<svg width="22" height="22" viewBox="0 0 22 22" fill="none" xmlns="http://www.w3.org/2000/svg"><g clip-path="url(#clip0_85_1133)"><path d="M16.827 11.668c.03 3.231 2.835 4.307 2.866 4.32-.024.076-.448 1.533-1.477 3.037-.89 1.3-1.814 2.597-3.27 2.624-1.429.026-1.889-.848-3.523-.848-1.634 0-2.145.82-3.499.874-1.404.053-2.474-1.407-3.371-2.703-1.834-2.65-3.235-7.49-1.353-10.758.934-1.622 2.605-2.65 4.418-2.676 1.38-.026 2.68.928 3.524.928.843 0 2.424-1.148 4.088-.98.696.03 2.65.282 3.905 2.119-.101.063-2.332 1.361-2.308 4.063zM14.14 3.733c.746-.902 1.248-2.16 1.111-3.41-1.075.044-2.374.717-3.145 1.62-.691.798-1.296 2.077-1.133 3.302 1.198.093 2.422-.609 3.167-1.512z" fill="#000"/></g><defs><clipPath id="clip0_85_1133"><path fill="#fff" d="M0 0h22v22H0z"/></clipPath></defs></svg>