<svg width="32" height="32" viewBox="0 0 32 32" fill="none" xmlns="http://www.w3.org/2000/svg"><g clip-path="url(#clip0_85_869)"><mask id="a" style="mask-type:luminance" maskUnits="userSpaceOnUse" x="0" y="0" width="32" height="32"><path d="M32 0H0v32h32V0z" fill="#fff"/><path d="M16 1.333C9.384 1.333 4 3.427 4 6s5.384 4.667 12 4.667S28 8.573 28 6s-5.384-4.667-12-4.667z" fill="#000"/></mask><g mask="url(#a)"><path d="M16 30.667c-6.616 0-12-2.094-12-4.667V6c9.161 2.165 14.415 2.216 24 0v20c0 2.573-5.384 4.667-12 4.667z" fill="url(#paint0_linear_85_869)"/></g><mask id="b" style="mask-type:luminance" maskUnits="userSpaceOnUse" x="4" y="1" width="24" height="10"><path d="M16 1.333C9.384 1.333 4 3.427 4 6s5.384 4.667 12 4.667S28 8.573 28 6s-5.384-4.667-12-4.667z" fill="#fff"/></mask><g filter="url(#filter0_f_85_869)" mask="url(#b)"><path d="M16 30.667c-6.616 0-12-2.094-12-4.667V6c9.161 2.165 14.415 2.216 24 0v20c0 2.573-5.384 4.667-12 4.667z" fill="url(#paint1_linear_85_869)"/></g><path d="M16 10.666c-6.616 0-12 2.094-12 4.667S9.384 20 16 20s12-2.094 12-4.667-5.384-4.667-12-4.667z" fill="url(#paint2_linear_85_869)"/><path d="M16 1.333C9.384 1.333 4 3.427 4 6s5.384 4.667 12 4.667S28 8.573 28 6s-5.384-4.667-12-4.667z" fill="url(#paint3_linear_85_869)"/><path d="M27 6c0-.268-.137-.633-.621-1.078-.485-.445-1.242-.892-2.26-1.288-2.032-.79-4.903-1.3-8.119-1.3s-6.087.51-8.118 1.3c-1.019.396-1.776.843-2.26 1.288C5.136 5.367 5 5.732 5 6s.137.634.621 1.078c.485.445 1.242.892 2.26 1.288 2.032.79 4.903 1.3 8.119 1.3v1C9.384 10.667 4 8.574 4 6c0-2.573 5.384-4.667 12-4.667S28 3.427 28 6s-5.384 4.667-12 4.667v-1c3.216 0 6.087-.511 8.119-1.301 1.018-.396 1.775-.843 2.26-1.288.484-.444.621-.81.621-1.078z" fill="url(#paint4_linear_85_869)"/></g><defs><linearGradient id="paint0_linear_85_869" x1="16" y1="6" x2="16" y2="30.667" gradientUnits="userSpaceOnUse"><stop stop-color="#575757"/><stop offset="1" stop-color="#434343"/></linearGradient><linearGradient id="paint1_linear_85_869" x1="16" y1="6" x2="16" y2="30.667" gradientUnits="userSpaceOnUse"><stop stop-color="#575757"/><stop offset="1" stop-color="#151515"/></linearGradient><linearGradient id="paint2_linear_85_869" x1="16" y1="1.31" x2="16" y2="20" gradientUnits="userSpaceOnUse"><stop stop-color="#4D4D4D"/><stop offset="1" stop-color="#2B2B2B"/></linearGradient><linearGradient id="paint3_linear_85_869" x1="16" y1="1.333" x2="16" y2="10.667" gradientUnits="userSpaceOnUse"><stop stop-color="#E3E3E5" stop-opacity=".6"/><stop offset="1" stop-color="#BBBBC0" stop-opacity=".6"/></linearGradient><linearGradient id="paint4_linear_85_869" x1="16" y1="1.333" x2="16" y2="6.739" gradientUnits="userSpaceOnUse"><stop stop-color="#fff"/><stop offset="1" stop-color="#fff" stop-opacity="0"/></linearGradient><clipPath id="clip0_85_869"><path fill="#fff" d="M0 0h32v32H0z"/></clipPath><filter id="filter0_f_85_869" x="0" y="2" width="32" height="32.666" filterUnits="userSpaceOnUse" color-interpolation-filters="sRGB"><feFlood flood-opacity="0" result="BackgroundImageFix"/><feBlend in="SourceGraphic" in2="BackgroundImageFix" result="shape"/><feGaussianBlur stdDeviation="2" result="effect1_foregroundBlur_85_869"/></filter></defs></svg>