<svg width="32" height="32" viewBox="0 0 32 32" fill="none" xmlns="http://www.w3.org/2000/svg"><g clip-path="url(#clip0_85_850)"><mask id="a" style="mask-type:luminance" maskUnits="userSpaceOnUse" x="0" y="0" width="32" height="32"><path d="M32 0H0v32h32V0z" fill="#fff"/><path d="M2.666 19.2v1.6c0 2.987 0 4.48.581 5.621a5.334 5.334 0 002.331 2.33c1.14.582 2.634.582 5.621.582h9.6c2.987 0 4.48 0 5.622-.581a5.334 5.334 0 002.33-2.33c.582-1.142.582-2.635.582-5.622v-1.6c0-2.987 0-4.48-.582-5.621a5.333 5.333 0 00-2.33-2.331c-1.141-.582-2.635-.582-5.622-.582h-9.6c-2.987 0-4.48 0-5.62.582a5.333 5.333 0 00-2.332 2.33c-.581 1.141-.581 2.635-.581 5.622z" fill="#000"/></mask><g mask="url(#a)"><path d="M21.333 16V8a5.333 5.333 0 10-10.666 0v8A1.333 1.333 0 018 16V8a8 8 0 1116 0v8a1.333 1.333 0 11-2.667 0z" fill="url(#paint0_linear_85_850)"/></g><mask id="b" style="mask-type:luminance" maskUnits="userSpaceOnUse" x="2" y="10" width="28" height="20"><path d="M2.666 19.2v1.6c0 2.987 0 4.48.581 5.621a5.334 5.334 0 002.331 2.33c1.14.582 2.634.582 5.621.582h9.6c2.987 0 4.48 0 5.622-.581a5.334 5.334 0 002.33-2.33c.582-1.142.582-2.635.582-5.622v-1.6c0-2.987 0-4.48-.582-5.621a5.333 5.333 0 00-2.33-2.331c-1.141-.582-2.635-.582-5.622-.582h-9.6c-2.987 0-4.48 0-5.62.582a5.333 5.333 0 00-2.332 2.33c-.581 1.141-.581 2.635-.581 5.622z" fill="#fff"/></mask><g filter="url(#filter0_f_85_850)" mask="url(#b)"><path d="M21.333 16V8a5.333 5.333 0 10-10.666 0v8A1.333 1.333 0 018 16V8a8 8 0 1116 0v8a1.333 1.333 0 11-2.667 0z" fill="url(#paint1_linear_85_850)"/></g><path d="M2.666 19.2v1.6c0 2.987 0 4.48.581 5.621a5.334 5.334 0 002.331 2.33c1.14.582 2.634.582 5.621.582h9.6c2.987 0 4.48 0 5.622-.581a5.334 5.334 0 002.33-2.33c.582-1.142.582-2.635.582-5.622v-1.6c0-2.987 0-4.48-.582-5.621a5.333 5.333 0 00-2.33-2.331c-1.141-.582-2.635-.582-5.622-.582h-9.6c-2.987 0-4.48 0-5.62.582a5.333 5.333 0 00-2.332 2.33c-.581 1.141-.581 2.635-.581 5.622z" fill="url(#paint2_linear_85_850)"/><path d="M20.799 28.333v1h-9.6v-1h9.6zm7.534-7.534V19.2c0-1.51 0-2.582-.07-3.421-.067-.828-.196-1.34-.403-1.747a4.333 4.333 0 00-1.893-1.893c-.406-.207-.919-.336-1.746-.403-.84-.069-1.912-.07-3.422-.07h-9.6c-1.509 0-2.582.001-3.421.07-.827.067-1.34.196-1.746.403a4.333 4.333 0 00-1.893 1.893c-.207.406-.336.919-.404 1.746-.069.84-.069 1.912-.069 3.422v1.6c0 1.51 0 2.582.069 3.421.068.828.197 1.34.404 1.746a4.333 4.333 0 001.893 1.893c.406.207.918.337 1.746.404.84.069 1.912.07 3.422.07v1l-1.98-.01c-1.588-.025-2.606-.119-3.424-.47l-.219-.101a5.336 5.336 0 01-2.125-1.964l-.205-.367c-.582-1.141-.581-2.636-.581-5.623V19.2c0-2.987 0-4.481.58-5.622a5.335 5.335 0 012.331-2.33c.856-.437 1.91-.545 3.644-.572l1.979-.01h9.599c2.987 0 4.481 0 5.622.581a5.335 5.335 0 012.331 2.331c.581 1.14.58 2.635.58 5.622v1.6c0 2.986.001 4.48-.58 5.622l-.206.367a5.336 5.336 0 01-2.125 1.963l-.219.102c-1.115.479-2.603.48-5.403.48v-1c1.51 0 2.583-.001 3.422-.07.827-.067 1.34-.197 1.746-.404a4.333 4.333 0 001.893-1.893c.207-.406.336-.918.404-1.746.068-.839.069-1.912.069-3.422z" fill="url(#paint3_linear_85_850)"/></g><defs><linearGradient id="paint0_linear_85_850" x1="16" y1="0" x2="16" y2="17.333" gradientUnits="userSpaceOnUse"><stop stop-color="#575757"/><stop offset="1" stop-color="#151515"/></linearGradient><linearGradient id="paint1_linear_85_850" x1="16" y1="0" x2="16" y2="17.333" gradientUnits="userSpaceOnUse"><stop stop-color="#575757"/><stop offset="1" stop-color="#151515"/></linearGradient><linearGradient id="paint2_linear_85_850" x1="15.999" y1="10.666" x2="15.999" y2="29.333" gradientUnits="userSpaceOnUse"><stop stop-color="#E3E3E5" stop-opacity=".6"/><stop offset="1" stop-color="#BBBBC0" stop-opacity=".6"/></linearGradient><linearGradient id="paint3_linear_85_850" x1="15.999" y1="10.666" x2="15.999" y2="21.477" gradientUnits="userSpaceOnUse"><stop stop-color="#fff"/><stop offset="1" stop-color="#fff" stop-opacity="0"/></linearGradient><clipPath id="clip0_85_850"><path fill="#fff" d="M0 0h32v32H0z"/></clipPath><filter id="filter0_f_85_850" x="4" y="-4" width="24" height="25.334" filterUnits="userSpaceOnUse" color-interpolation-filters="sRGB"><feFlood flood-opacity="0" result="BackgroundImageFix"/><feBlend in="SourceGraphic" in2="BackgroundImageFix" result="shape"/><feGaussianBlur stdDeviation="2" result="effect1_foregroundBlur_85_850"/></filter></defs></svg>