<svg width="32" height="32" viewBox="0 0 32 32" fill="none" xmlns="http://www.w3.org/2000/svg"><g clip-path="url(#clip0_85_908)"><mask id="a" style="mask-type:luminance" maskUnits="userSpaceOnUse" x="0" y="0" width="32" height="32"><path d="M32 0H0v32h32V0z" fill="#fff"/><path d="M16 1.333C24.1 1.333 30.668 7.9 30.668 16s-6.566 14.667-14.666 14.667C7.9 30.667 1.334 24.1 1.334 16S7.9 1.334 16.001 1.334zm8.943 9.058a1.333 1.333 0 00-1.885 0l-9.057 9.057-4.391-4.39a1.333 1.333 0 10-1.885 1.885l5.333 5.333c.52.521 1.365.521 1.885 0l10-10a1.332 1.332 0 000-1.885z" fill="#000"/></mask><g mask="url(#a)"><path d="M22.114 9.448a2.666 2.666 0 113.771 3.77l-10 10a2.666 2.666 0 01-3.77 0L6.78 17.885a2.666 2.666 0 113.77-3.77L14 17.561l8.114-8.114z" fill="url(#paint0_linear_85_908)"/></g><mask id="b" style="mask-type:luminance" maskUnits="userSpaceOnUse" x="1" y="1" width="30" height="30"><path d="M16 1.333C24.1 1.333 30.668 7.9 30.668 16s-6.566 14.667-14.666 14.667C7.9 30.667 1.334 24.1 1.334 16S7.9 1.334 16.001 1.334zm8.943 9.058a1.333 1.333 0 00-1.885 0l-9.057 9.057-4.391-4.39a1.333 1.333 0 10-1.885 1.885l5.333 5.333c.52.521 1.365.521 1.885 0l10-10a1.332 1.332 0 000-1.885z" fill="#fff"/></mask><g filter="url(#filter0_f_85_908)" mask="url(#b)"><path d="M22.114 9.448a2.666 2.666 0 113.771 3.77l-10 10a2.666 2.666 0 01-3.77 0L6.78 17.885a2.666 2.666 0 113.77-3.77L14 17.561l8.114-8.114z" fill="url(#paint1_linear_85_908)"/></g><path d="M16 1.333C24.1 1.333 30.668 7.9 30.668 16s-6.566 14.667-14.666 14.667C7.9 30.667 1.334 24.1 1.334 16S7.9 1.334 16.001 1.334zm8.943 9.058a1.333 1.333 0 00-1.885 0l-9.057 9.057-4.391-4.39a1.333 1.333 0 10-1.885 1.885l5.333 5.333c.52.521 1.365.521 1.885 0l10-10a1.332 1.332 0 000-1.885z" fill="url(#paint2_linear_85_908)"/><path d="M16 1.333C24.1 1.333 30.668 7.9 30.668 16s-6.566 14.667-14.666 14.667C7.9 30.667 1.334 24.1 1.334 16S7.9 1.334 16.001 1.334zm0 1C8.454 2.333 2.335 8.454 2.335 16c0 7.548 6.119 13.667 13.667 13.667 7.547 0 13.666-6.119 13.666-13.667S23.548 2.334 16.001 2.334z" fill="url(#paint3_linear_85_908)"/></g><defs><linearGradient id="paint0_linear_85_908" x1="16.333" y1="8.666" x2="16.333" y2="24" gradientUnits="userSpaceOnUse"><stop stop-color="#575757"/><stop offset="1" stop-color="#151515"/></linearGradient><linearGradient id="paint1_linear_85_908" x1="16.333" y1="8.666" x2="16.333" y2="24" gradientUnits="userSpaceOnUse"><stop stop-color="#575757"/><stop offset="1" stop-color="#151515"/></linearGradient><linearGradient id="paint2_linear_85_908" x1="16.001" y1="1.333" x2="16.001" y2="30.667" gradientUnits="userSpaceOnUse"><stop stop-color="#E3E3E5" stop-opacity=".6"/><stop offset="1" stop-color="#BBBBC0" stop-opacity=".6"/></linearGradient><linearGradient id="paint3_linear_85_908" x1="16.001" y1="1.333" x2="16.001" y2="18.32" gradientUnits="userSpaceOnUse"><stop stop-color="#fff"/><stop offset="1" stop-color="#fff" stop-opacity="0"/></linearGradient><clipPath id="clip0_85_908"><path fill="#fff" d="M0 0h32v32H0z"/></clipPath><filter id="filter0_f_85_908" x="2" y="4.667" width="28.666" height="23.333" filterUnits="userSpaceOnUse" color-interpolation-filters="sRGB"><feFlood flood-opacity="0" result="BackgroundImageFix"/><feBlend in="SourceGraphic" in2="BackgroundImageFix" result="shape"/><feGaussianBlur stdDeviation="2" result="effect1_foregroundBlur_85_908"/></filter></defs></svg>