<svg width="32" height="32" viewBox="0 0 32 32" fill="none" xmlns="http://www.w3.org/2000/svg"><g clip-path="url(#clip0_85_889)"><mask id="a" style="mask-type:luminance" maskUnits="userSpaceOnUse" x="0" y="0" width="32" height="32"><path d="M32 0H0v32h32V0z" fill="#fff"/><path d="M22.132 4c2.987 0 4.482 0 5.623.58a5.336 5.336 0 012.33 2.331c.582 1.141.581 2.636.581 5.623v6.932c0 2.987 0 4.482-.58 5.622a5.336 5.336 0 01-2.331 2.331C26.614 28 25.119 28 22.132 28H15.2c-2.987 0-4.482 0-5.623-.58a5.335 5.335 0 01-2.33-2.332c-.582-1.14-.581-2.635-.581-5.622v-6.932c0-2.987 0-4.482.58-5.623a5.335 5.335 0 012.331-2.33C10.718 3.999 12.213 4 15.2 4h6.932zm-4.8 17.333a1.333 1.333 0 000 2.667H20a1.333 1.333 0 100-2.667h-2.666zM20 16.667a1.333 1.333 0 100 2.666h6.667a1.333 1.333 0 100-2.666H20zM17.333 12a1.333 1.333 0 100 2.667h4a1.333 1.333 0 000-2.667h-4zm-5.334-4a1.333 1.333 0 000 2.667h1.334a1.333 1.333 0 000-2.667h-1.334z" fill="#000"/></mask><g mask="url(#a)"><path d="M12.566 4.525c-1.156.289-1.734.434-2.164.756-.38.284-.676.665-.86 1.102-.208.495-.208 1.09-.208 2.281v14.672c0 1.19 0 1.786.208 2.281.184.437.48.817.86 1.102.43.322 1.008.467 2.164.756l2.101.525h-4.8c-2.986 0-4.48 0-5.622-.58a5.335 5.335 0 01-2.33-2.332c-.582-1.14-.581-2.635-.581-5.622v-6.932c0-2.987 0-4.482.58-5.623a5.335 5.335 0 012.331-2.33C5.386 3.999 6.881 4 9.868 4h4.8l-2.102.525zM20 20.667a2 2 0 010 4h-2.667a2 2 0 010-4H20zM26.667 16a2 2 0 010 4h-6.666a2 2 0 010-4h6.666zm-5.333-4.667a2 2 0 010 4h-4a2 2 0 010-4h4zm-7.796-3.99a2 2 0 010 3.98l-.204.01h-1.333a2 2 0 110-4h1.333l.204.01z" fill="url(#paint0_linear_85_889)"/></g><mask id="b" style="mask-type:luminance" maskUnits="userSpaceOnUse" x="6" y="4" width="25" height="24"><path d="M22.132 4c2.987 0 4.482 0 5.623.58a5.336 5.336 0 012.33 2.331c.582 1.141.581 2.636.581 5.623v6.932c0 2.987 0 4.482-.58 5.622a5.336 5.336 0 01-2.331 2.331C26.614 28 25.119 28 22.132 28H15.2c-2.987 0-4.482 0-5.623-.58a5.335 5.335 0 01-2.33-2.332c-.582-1.14-.581-2.635-.581-5.622v-6.932c0-2.987 0-4.482.58-5.623a5.335 5.335 0 012.331-2.33C10.718 3.999 12.213 4 15.2 4h6.932zm-4.8 17.333a1.333 1.333 0 000 2.667H20a1.333 1.333 0 100-2.667h-2.666zM20 16.667a1.333 1.333 0 100 2.666h6.667a1.333 1.333 0 100-2.666H20zM17.333 12a1.333 1.333 0 100 2.667h4a1.333 1.333 0 000-2.667h-4zm-5.334-4a1.333 1.333 0 000 2.667h1.334a1.333 1.333 0 000-2.667h-1.334z" fill="#fff"/></mask><g filter="url(#filter0_f_85_889)" mask="url(#b)"><path d="M12.564 4.525c-1.156.289-1.734.434-2.164.756-.38.284-.676.665-.86 1.102-.208.495-.208 1.09-.208 2.281v14.672c0 1.19 0 1.786.208 2.281.184.437.48.817.86 1.102.43.322 1.008.467 2.164.756l2.101.525h-4.8c-2.986 0-4.48 0-5.622-.58a5.335 5.335 0 01-2.33-2.332c-.582-1.14-.581-2.635-.581-5.622v-6.932c0-2.987 0-4.482.58-5.623a5.335 5.335 0 012.331-2.33C5.384 3.999 6.88 4 9.866 4h4.8l-2.102.525zm7.435 16.142a2 2 0 010 4h-2.667a2 2 0 010-4h2.667zM26.665 16a2 2 0 010 4H20a2 2 0 010-4h6.666zm-5.333-4.667a2 2 0 010 4h-4a2 2 0 010-4h4zm-7.796-3.99a2 2 0 010 3.98l-.204.01h-1.333a2 2 0 110-4h1.333l.204.01z" fill="url(#paint1_linear_85_889)"/></g><path d="M22.132 4c2.987 0 4.482 0 5.623.58a5.336 5.336 0 012.33 2.331c.582 1.141.581 2.636.581 5.623v6.932c0 2.987 0 4.482-.58 5.622a5.336 5.336 0 01-2.331 2.331C26.614 28 25.119 28 22.132 28H15.2c-2.987 0-4.482 0-5.623-.58a5.335 5.335 0 01-2.33-2.332c-.582-1.14-.581-2.635-.581-5.622v-6.932c0-2.987 0-4.482.58-5.623a5.335 5.335 0 012.331-2.33C10.718 3.999 12.213 4 15.2 4h6.932zm-4.8 17.333a1.333 1.333 0 000 2.667H20a1.333 1.333 0 100-2.667h-2.666zM20 16.667a1.333 1.333 0 100 2.666h6.667a1.333 1.333 0 100-2.666H20zM17.333 12a1.333 1.333 0 100 2.667h4a1.333 1.333 0 000-2.667h-4zm-5.334-4a1.333 1.333 0 000 2.667h1.334a1.333 1.333 0 000-2.667h-1.334z" fill="url(#paint2_linear_85_889)"/><path d="M22.132 4c2.987 0 4.482 0 5.623.58a5.336 5.336 0 012.33 2.331c.582 1.141.581 2.636.581 5.623v6.932c0 2.987 0 4.482-.58 5.622a5.336 5.336 0 01-2.331 2.331C26.614 28 25.119 28 22.132 28H15.2c-2.987 0-4.482 0-5.623-.58a5.335 5.335 0 01-2.33-2.332c-.582-1.14-.581-2.635-.581-5.622v-6.932c0-2.987 0-4.482.58-5.623a5.335 5.335 0 012.331-2.33C10.718 3.999 12.213 4 15.2 4h6.932zM15.2 5c-1.51 0-2.582 0-3.422.069-.828.067-1.34.196-1.746.402a4.338 4.338 0 00-1.895 1.895c-.206.406-.335.918-.402 1.746-.068.84-.069 1.912-.069 3.422v6.932c0 1.51 0 2.582.069 3.422.067.828.196 1.34.402 1.746a4.339 4.339 0 001.895 1.895c.406.206.918.334 1.746.402.84.068 1.912.069 3.422.069h6.932c1.51 0 2.583 0 3.422-.07.828-.067 1.34-.195 1.746-.401a4.34 4.34 0 001.895-1.895c.206-.406.334-.918.402-1.746.068-.84.069-1.912.069-3.422v-6.932c0-1.51 0-2.583-.069-3.422-.068-.828-.196-1.34-.402-1.746A4.339 4.339 0 0027.3 5.47c-.406-.206-.918-.335-1.746-.402-.84-.068-1.912-.069-3.422-.069H15.2z" fill="url(#paint3_linear_85_889)"/></g><defs><linearGradient id="paint0_linear_85_889" x1="15.001" y1="4" x2="15.001" y2="28" gradientUnits="userSpaceOnUse"><stop stop-color="#575757"/><stop offset="1" stop-color="#151515"/></linearGradient><linearGradient id="paint1_linear_85_889" x1="14.999" y1="4" x2="14.999" y2="28" gradientUnits="userSpaceOnUse"><stop stop-color="#575757"/><stop offset="1" stop-color="#151515"/></linearGradient><linearGradient id="paint2_linear_85_889" x1="18.666" y1="4" x2="18.666" y2="28" gradientUnits="userSpaceOnUse"><stop stop-color="#E3E3E5" stop-opacity=".6"/><stop offset="1" stop-color="#BBBBC0" stop-opacity=".6"/></linearGradient><linearGradient id="paint3_linear_85_889" x1="18.666" y1="4" x2="18.666" y2="17.899" gradientUnits="userSpaceOnUse"><stop stop-color="#fff"/><stop offset="1" stop-color="#fff" stop-opacity="0"/></linearGradient><clipPath id="clip0_85_889"><path fill="#fff" d="M0 0h32v32H0z"/></clipPath><filter id="filter0_f_85_889" x="-2.668" y="0" width="35.333" height="32" filterUnits="userSpaceOnUse" color-interpolation-filters="sRGB"><feFlood flood-opacity="0" result="BackgroundImageFix"/><feBlend in="SourceGraphic" in2="BackgroundImageFix" result="shape"/><feGaussianBlur stdDeviation="2" result="effect1_foregroundBlur_85_889"/></filter></defs></svg>