<svg width="32" height="32" viewBox="0 0 32 32" fill="none" xmlns="http://www.w3.org/2000/svg"><g clip-path="url(#clip0_85_833)"><mask id="a" style="mask-type:luminance" maskUnits="userSpaceOnUse" x="0" y="0" width="32" height="32"><path d="M32 0H0v32h32V0z" fill="#fff"/><path d="M20.8 6.667c2.986 0 4.48 0 5.62.58a5.334 5.334 0 012.331 2.332c.582 1.14.582 2.634.582 5.62v5.6c0 2.988 0 4.481-.582 5.622a5.334 5.334 0 01-2.33 2.33c-1.141.582-2.635.582-5.622.582h-9.6c-2.987 0-4.48 0-5.62-.581a5.334 5.334 0 01-2.332-2.33c-.581-1.142-.581-2.635-.581-5.622v-5.6c0-2.987 0-4.48.581-5.621a5.333 5.333 0 012.331-2.331c1.14-.582 2.634-.582 5.621-.582h9.6z" fill="#000"/></mask><g mask="url(#a)"><path d="M19.214 2.575c2.564-.427 3.846-.64 4.845-.27a4 4 0 012.077 1.76c.53.924.53 2.224.53 4.823v5.69c0 1.927 0 2.89-.35 3.67a4 4 0 01-1.435 1.694c-.713.474-1.663.633-3.563.95l-11.2 1.866c-2.564.427-3.846.64-4.845.27a4 4 0 01-2.077-1.76c-.53-.924-.53-2.224-.53-4.823V14.37c0-3.21 0-4.815.584-6.117A6.667 6.667 0 015.641 5.43c1.188-.79 2.772-1.054 5.938-1.582l7.635-1.273z" fill="url(#paint0_linear_85_833)"/></g><mask id="b" style="mask-type:luminance" maskUnits="userSpaceOnUse" x="2" y="6" width="28" height="24"><path d="M20.8 6.667c2.986 0 4.48 0 5.62.58a5.334 5.334 0 012.331 2.332c.582 1.14.582 2.634.582 5.62v5.6c0 2.988 0 4.481-.582 5.622a5.334 5.334 0 01-2.33 2.33c-1.141.582-2.635.582-5.622.582h-9.6c-2.987 0-4.48 0-5.62-.581a5.334 5.334 0 01-2.332-2.33c-.581-1.142-.581-2.635-.581-5.622v-5.6c0-2.987 0-4.48.581-5.621a5.333 5.333 0 012.331-2.331c1.14-.582 2.634-.582 5.621-.582h9.6z" fill="#fff"/></mask><g filter="url(#filter0_f_85_833)" mask="url(#b)"><path d="M19.214 2.575c2.564-.427 3.846-.64 4.845-.27a4 4 0 012.077 1.76c.53.924.53 2.224.53 4.823v5.69c0 1.927 0 2.89-.35 3.67a4 4 0 01-1.435 1.694c-.713.474-1.663.633-3.563.95l-11.2 1.866c-2.564.427-3.846.64-4.845.27a4 4 0 01-2.077-1.76c-.53-.924-.53-2.224-.53-4.823V14.37c0-3.21 0-4.815.584-6.117A6.667 6.667 0 015.641 5.43c1.188-.79 2.772-1.054 5.938-1.582l7.635-1.273z" fill="url(#paint1_linear_85_833)"/></g><path d="M20.8 6.667c2.986 0 4.48 0 5.62.58a5.334 5.334 0 012.331 2.332c.582 1.14.582 2.634.582 5.62v5.6c0 2.988 0 4.481-.582 5.622a5.334 5.334 0 01-2.33 2.33c-1.141.582-2.635.582-5.622.582h-9.6c-2.987 0-4.48 0-5.62-.581a5.334 5.334 0 01-2.332-2.33c-.581-1.142-.581-2.635-.581-5.622v-5.6c0-2.987 0-4.48.581-5.621a5.333 5.333 0 012.331-2.331c1.14-.582 2.634-.582 5.621-.582h9.6z" fill="url(#paint2_linear_85_833)"/><path d="M20.799 28.333v1h-9.6v-1h9.6zm7.534-7.534V15.2c0-1.51 0-2.582-.07-3.421-.067-.828-.196-1.34-.403-1.747a4.333 4.333 0 00-1.893-1.893c-.406-.207-.919-.336-1.746-.403-.84-.069-1.912-.07-3.422-.07h-9.6c-1.509 0-2.582.001-3.421.07-.827.067-1.34.196-1.746.403a4.333 4.333 0 00-1.893 1.893c-.207.406-.336.919-.404 1.746-.069.84-.069 1.912-.069 3.422v5.6c0 1.51 0 2.582.069 3.421.068.828.197 1.34.404 1.746a4.333 4.333 0 001.893 1.893c.406.207.918.337 1.746.404.84.069 1.912.07 3.422.07v1l-1.98-.01c-1.588-.025-2.606-.119-3.424-.47l-.219-.101a5.336 5.336 0 01-2.125-1.964l-.205-.367c-.582-1.141-.581-2.636-.581-5.623V15.2c0-2.987 0-4.481.58-5.622a5.335 5.335 0 012.331-2.33c.856-.437 1.91-.545 3.644-.572l1.979-.01h9.599c2.987 0 4.481 0 5.622.581a5.335 5.335 0 012.331 2.331c.581 1.14.58 2.635.58 5.622v5.6c0 2.986.001 4.48-.58 5.622l-.206.367a5.336 5.336 0 01-2.125 1.963l-.219.102c-1.115.479-2.603.48-5.403.48v-1c1.51 0 2.583-.001 3.422-.07.827-.067 1.34-.197 1.746-.404a4.333 4.333 0 001.893-1.893c.207-.406.336-.918.404-1.746.068-.839.069-1.912.069-3.422z" fill="url(#paint3_linear_85_833)"/><path d="M29.333 13.334h-4.666a4.667 4.667 0 100 9.333h4.666c.737 0 1.334-.597 1.334-1.334v-6.666c0-.737-.597-1.333-1.334-1.333z" fill="url(#paint4_linear_85_833)"/></g><defs><linearGradient id="paint0_linear_85_833" x1="14.666" y1="2.115" x2="14.666" y2="23.219" gradientUnits="userSpaceOnUse"><stop stop-color="#575757"/><stop offset="1" stop-color="#151515"/></linearGradient><linearGradient id="paint1_linear_85_833" x1="14.666" y1="2.115" x2="14.666" y2="23.219" gradientUnits="userSpaceOnUse"><stop stop-color="#575757"/><stop offset="1" stop-color="#151515"/></linearGradient><linearGradient id="paint2_linear_85_833" x1="29.333" y1="18" x2="2.666" y2="18" gradientUnits="userSpaceOnUse"><stop stop-color="#E3E3E5" stop-opacity=".6"/><stop offset="1" stop-color="#BBBBC0" stop-opacity=".6"/></linearGradient><linearGradient id="paint3_linear_85_833" x1="15.999" y1="6.667" x2="15.999" y2="19.793" gradientUnits="userSpaceOnUse"><stop stop-color="#fff"/><stop offset="1" stop-color="#fff" stop-opacity="0"/></linearGradient><linearGradient id="paint4_linear_85_833" x1="25.333" y1="13.334" x2="25.333" y2="22.667" gradientUnits="userSpaceOnUse"><stop stop-color="#575757"/><stop offset="1" stop-color="#151515"/></linearGradient><clipPath id="clip0_85_833"><path fill="#fff" d="M0 0h32v32H0z"/></clipPath><filter id="filter0_f_85_833" x="-1.334" y="-1.885" width="32" height="29.104" filterUnits="userSpaceOnUse" color-interpolation-filters="sRGB"><feFlood flood-opacity="0" result="BackgroundImageFix"/><feBlend in="SourceGraphic" in2="BackgroundImageFix" result="shape"/><feGaussianBlur stdDeviation="2" result="effect1_foregroundBlur_85_833"/></filter></defs></svg>