<svg width="20" height="20" viewBox="0 0 20 20" fill="none" xmlns="http://www.w3.org/2000/svg"><g clip-path="url(#clip0_85_1149)"><path d="M1.37 14.942a10.205 10.205 0 003.372 3.505A10.26 10.26 0 009.361 20L14 12l-3.756-2.159-3.754 2.158L5.238 9.84l-.916-1.58L1.852 4a10.16 10.16 0 00-.482 10.942z" fill="#00AC47"/><path d="M10.076 0a9.805 9.805 0 00-4.555 1.122A9.856 9.856 0 002 4.234l4.463 7.767 3.613-2.096v-4.19H19a9.884 9.884 0 00-3.633-4.163A9.818 9.818 0 0010.077 0z" fill="#EA4435"/><path d="M18.644 15.086a9.588 9.588 0 00.4-9.086h-9.17v4.166l3.71 2.081-1.237 2.082-.906 1.525L9 19.964c1.918.162 3.845-.21 5.553-1.074a10.002 10.002 0 004.091-3.804z" fill="#FFBA00"/><path d="M10 14a4 4 0 100-8 4 4 0 000 8z" fill="#fff"/><path d="M10 13a3 3 0 100-6 3 3 0 000 6z" fill="#4285F4"/></g><defs><clipPath id="clip0_85_1149"><path fill="#fff" d="M0 0h20v20H0z"/></clipPath></defs></svg>