<svg width="40" height="40" viewBox="0 0 40 40" fill="none" xmlns="http://www.w3.org/2000/svg"><rect x=".5" y=".5" width="39" height="39" rx="19.5" fill="#002B1F"/><rect x=".5" y=".5" width="39" height="39" rx="19.5" stroke="#000"/><path d="M28.099 12.368a18.8 18.8 0 00-4.814-1.535c-.207.38-.45.892-.616 1.3a17.416 17.416 0 00-5.335 0 13.95 13.95 0 00-.625-1.3 18.71 18.71 0 00-4.817 1.54c-3.046 4.672-3.872 9.229-3.46 13.72 2.021 1.532 3.98 2.463 5.905 3.072a15.01 15.01 0 001.264-2.114c-.696-.269-1.362-.6-1.991-.984.167-.125.33-.257.488-.392 3.84 1.823 8.01 1.823 11.804 0 .16.135.323.267.488.392-.63.386-1.299.717-1.995.986.366.742.788 1.45 1.265 2.113 1.927-.608 3.887-1.539 5.908-3.072.484-5.208-.828-9.723-3.469-13.726zM16.124 23.331c-1.152 0-2.098-1.092-2.098-2.422s.925-2.424 2.098-2.424c1.173 0 2.118 1.092 2.098 2.424.002 1.33-.925 2.422-2.098 2.422zm7.752 0c-1.152 0-2.098-1.092-2.098-2.422s.925-2.424 2.098-2.424c1.173 0 2.118 1.092 2.098 2.424 0 1.33-.925 2.422-2.098 2.422z" fill="#fff"/></svg>