<svg width="170" height="72" viewBox="0 0 170 72" fill="none" xmlns="http://www.w3.org/2000/svg"><g clip-path="url(#clip0_85_1060)"><g clip-path="url(#clip1_85_1060)"><rect x=".5" width="144" height="31" rx="8" fill="#fff"/><path d="M33.704 20.5v-9.94h3.57c1.195 0 2.095.215 2.702.644.607.43.91 1.11.91 2.044 0 .42-.089.789-.266 1.106-.177.317-.439.57-.784.756-.336.177-.737.27-1.204.28l-.014-.056c.85.019 1.507.252 1.974.7.476.439.714 1.017.714 1.736 0 .905-.303 1.587-.91 2.044-.607.457-1.47.686-2.59.686h-4.102zm1.512-1.358h2.548c.625 0 1.11-.126 1.456-.378.355-.261.532-.64.532-1.134 0-.485-.177-.863-.532-1.134-.345-.27-.83-.406-1.456-.406h-2.548v3.052zm0-4.34h2.03c.663 0 1.176-.126 1.54-.378.364-.252.546-.607.546-1.064 0-.485-.177-.845-.532-1.078-.345-.243-.863-.364-1.554-.364h-2.03v2.884zm9.61 5.698v-8.554h-3.053V10.56h7.616v1.386h-3.052V20.5h-1.512zm9.328.224c-.896 0-1.685-.205-2.366-.616-.681-.42-1.213-1.017-1.596-1.792-.383-.775-.574-1.699-.574-2.772 0-1.064.187-1.983.56-2.758.383-.784.915-1.386 1.596-1.806.681-.43 1.48-.644 2.394-.644 1.232 0 2.189.308 2.87.924.681.616 1.125 1.47 1.33 2.562l-1.582.084c-.13-.681-.41-1.213-.84-1.596-.43-.392-1.022-.588-1.778-.588-.607 0-1.134.154-1.582.462-.439.308-.784.747-1.036 1.316-.243.57-.364 1.25-.364 2.044 0 .793.121 1.475.364 2.044.252.57.602 1.003 1.05 1.302.448.299.966.448 1.554.448.803 0 1.423-.21 1.862-.63.448-.43.728-1.017.84-1.764l1.582.084c-.121.756-.364 1.41-.728 1.96s-.845.98-1.442 1.288c-.597.299-1.302.448-2.114.448z" fill="#000"/><rect x="83.67" y="7" width="48.83" height="17" rx="4" fill="#A0FAB8"/><g clip-path="url(#clip2_85_1060)"><g clip-path="url(#clip3_85_1060)"><path d="M91.17 19.5v-6.087l-2.8 2.8-.7-.714 4-3.999 4 4-.7.712-2.8-2.8V19.5h-1z" fill="#1A2B1F"/></g></g><path d="M103.274 12.227V19.5h-1.317v-5.99h-.043l-1.701 1.086v-1.207l1.808-1.162h1.253zm1.953 7.351a.76.76 0 01-.554-.227.733.733 0 01-.227-.554.725.725 0 01.227-.547.76.76 0 01.554-.227.75.75 0 01.543.227.746.746 0 01.124.941.81.81 0 01-.284.284.739.739 0 01-.383.103zm4.235.021a2.93 2.93 0 01-1.272-.266 2.265 2.265 0 01-.891-.738 1.952 1.952 0 01-.348-1.073h1.278c.024.298.153.542.387.732.235.187.516.28.846.28.258 0 .487-.06.688-.177a1.27 1.27 0 00.476-.494c.116-.21.173-.451.171-.721a1.462 1.462 0 00-.174-.732 1.306 1.306 0 00-.487-.5 1.356 1.356 0 00-.71-.185 1.694 1.694 0 00-.643.12c-.21.084-.377.193-.5.328l-1.19-.196.38-3.75h4.219v1.101h-3.129l-.209 1.928h.042a1.51 1.51 0 01.572-.394c.246-.106.516-.16.81-.16a2.214 2.214 0 011.995 1.165c.199.362.299.777.299 1.243 0 .48-.112.91-.334 1.286a2.36 2.36 0 01-.92.884c-.391.213-.843.32-1.356.32zm3.368-1.448v-1.048l3.086-4.876h.873v1.492h-.532l-2.078 3.292v.056h4.308v1.084h-5.657zm3.469 1.349v-1.669l.015-.469v-5.135h1.242V19.5h-1.257zm6.911-1.364v-.383c0-.282.059-.541.177-.778a1.44 1.44 0 01.526-.572c.23-.144.508-.216.835-.216.336 0 .617.072.845.216.227.143.399.332.515.569.118.236.177.497.177.78v.384c0 .282-.059.541-.177.778a1.42 1.42 0 01-.522.572c-.228.144-.507.216-.838.216-.332 0-.612-.072-.842-.216a1.405 1.405 0 01-.522-.572 1.744 1.744 0 01-.174-.778zm.927-.383v.383c0 .187.045.359.135.515.09.157.248.235.476.235.229 0 .387-.077.472-.231a1.05 1.05 0 00.131-.519v-.383c0-.19-.041-.362-.124-.519-.083-.158-.243-.238-.479-.238-.223 0-.38.08-.473.238a1.003 1.003 0 00-.138.519zm-4.624-3.779v-.383a1.7 1.7 0 01.181-.781c.121-.237.296-.427.526-.569a1.54 1.54 0 01.834-.216c.334 0 .615.072.842.216.23.143.402.332.518.569.116.236.174.497.174.78v.384c0 .284-.059.545-.177.782a1.366 1.366 0 01-.519.564c-.229.142-.509.213-.838.213-.333 0-.615-.07-.845-.213a1.392 1.392 0 01-.518-.568 1.706 1.706 0 01-.178-.778zm.934-.383v.383c0 .19.044.363.132.519.089.154.248.23.475.23.228 0 .384-.076.469-.23a1.04 1.04 0 00.132-.519v-.383c0-.19-.042-.362-.125-.519-.083-.158-.241-.237-.476-.237-.225 0-.382.079-.472.237-.09.16-.135.332-.135.519zm-.529 5.909l5-7.273h.888l-5 7.273h-.888z" fill="#1A2B1F"/><rect x="1" y=".5" width="143" height="30" rx="7.5" stroke="#EBEBEB"/><g filter="url(#filter0_d_85_1060)"><rect x="8" y="7" width="18" height="18" rx="9" fill="#F5B300" shape-rendering="crispEdges"/><path d="M13.838 11.138c.33.09.66.15.991.24.33.09.661.15.992.24.09.03.12 0 .15-.09.12-.51.24-.991.36-1.502.03-.09.06-.12.15-.09.301.09.572.15.872.21.09.03.09.06.06.12-.12.481-.24.992-.36 1.473 0 .03 0 .06-.03.12.24.06.51.12.75.18.031 0 .061-.06.091-.09.09-.39.18-.751.3-1.142l.09-.36c0-.06.03-.09.09-.06.301.09.602.15.932.24.03 0 .03.03.06.03-.09.39-.18.751-.27 1.112-.03.15-.06.3-.12.45-.03.09 0 .12.09.15l.991.452c.3.18.571.42.782.72.27.451.3.932.18 1.413-.09.33-.21.63-.45.871-.181.18-.421.3-.662.39-.03 0-.06.03-.12.03.12.091.24.151.36.241.361.27.601.601.722 1.022.06.33.03.691-.06 1.021-.12.421-.27.782-.541 1.112-.33.39-.751.601-1.232.661-.631.09-1.232.03-1.833-.06-.09-.03-.15 0-.18.09-.12.481-.24.992-.36 1.473-.03.12-.03.15-.181.09-.27-.06-.571-.15-.842-.21-.09-.03-.09-.06-.06-.12.12-.512.24-1.022.391-1.503 0-.06.03-.09-.03-.12-.24-.06-.48-.12-.751-.18-.06.27-.15.54-.21.81-.06.271-.15.541-.21.812-.03.06-.03.09-.121.06-.3-.09-.601-.15-.901-.21-.09-.03-.09-.06-.06-.12.12-.511.24-1.022.39-1.503 0-.03.03-.06.03-.12-.69-.18-1.382-.36-2.103-.54.06-.121.09-.211.15-.331.12-.27.24-.541.33-.782.03-.09.06-.09.15-.09.211.06.451.12.662.15.24.06.42-.06.45-.27.391-1.532.782-3.065 1.142-4.627.06-.24-.09-.51-.36-.601-.27-.09-.541-.15-.781-.21-.06 0-.09-.03-.06-.09.09-.331.18-.692.27-1.022-.12.09-.12.09-.09.06zm1.532 7.421c.03 0 .06.03.06.03.481.12.992.271 1.503.301.36.03.69.03 1.021-.09.571-.18.811-.931.48-1.412-.15-.24-.39-.39-.63-.541-.54-.3-1.172-.42-1.773-.541-.09-.03-.09 0-.12.09-.06.3-.15.571-.21.871-.12.421-.21.842-.33 1.293zm2.524-3.064c.06 0 .21-.03.33-.06a.876.876 0 00.572-1.292c-.15-.27-.421-.451-.692-.571-.42-.18-.84-.27-1.292-.39-.09-.03-.12 0-.15.09-.15.63-.3 1.231-.48 1.862-.03.06 0 .09.06.12.12.03.21.06.33.09.45.06.841.15 1.322.15z" fill="#140903"/></g></g><g clip-path="url(#clip4_85_1060)"><rect x="24" y="41" width="144" height="31" rx="8" fill="#fff"/><path d="M61.788 61.724c-.793 0-1.484-.145-2.072-.434a3.442 3.442 0 01-1.372-1.204c-.336-.513-.532-1.11-.588-1.792l1.554-.098c.065.467.2.863.406 1.19.205.317.48.56.826.728.355.159.78.238 1.274.238.43 0 .793-.051 1.092-.154.308-.112.541-.275.7-.49a1.28 1.28 0 00.238-.784c0-.28-.07-.527-.21-.742-.13-.224-.387-.425-.77-.602-.373-.187-.924-.369-1.652-.546-.793-.196-1.428-.41-1.904-.644-.476-.233-.821-.523-1.036-.868-.205-.355-.308-.789-.308-1.302 0-.57.135-1.069.406-1.498.28-.439.677-.78 1.19-1.022.513-.243 1.13-.364 1.848-.364.756 0 1.4.14 1.932.42.541.28.966.663 1.274 1.148.317.485.513 1.04.588 1.666l-1.554.084a2.358 2.358 0 00-.35-1.008 1.85 1.85 0 00-.756-.686c-.317-.168-.705-.252-1.162-.252-.579 0-1.036.135-1.372.406-.327.261-.49.611-.49 1.05 0 .28.065.518.196.714.14.187.383.35.728.49.355.14.854.29 1.498.448.859.196 1.54.439 2.044.728.513.28.877.611 1.092.994.215.383.322.817.322 1.302 0 .588-.154 1.101-.462 1.54-.299.43-.719.76-1.26.994-.541.233-1.171.35-1.89.35zm9.622 0c-.961 0-1.787-.205-2.478-.616-.69-.42-1.222-1.017-1.596-1.792-.373-.775-.56-1.699-.56-2.772 0-1.073.187-1.997.56-2.772.374-.784.906-1.386 1.596-1.806.69-.42 1.517-.63 2.478-.63.97 0 1.802.21 2.492.63.7.42 1.232 1.022 1.596 1.806.373.775.56 1.699.56 2.772 0 1.073-.187 1.997-.56 2.772a4.032 4.032 0 01-1.596 1.792c-.69.41-1.521.616-2.492.616zm0-1.386c.644 0 1.195-.15 1.652-.448.467-.299.822-.728 1.064-1.288.243-.57.364-1.255.364-2.058 0-.803-.121-1.489-.364-2.058-.243-.57-.597-1.003-1.064-1.302-.457-.308-1.008-.462-1.652-.462-.635 0-1.18.154-1.638.462-.457.299-.812.733-1.064 1.302-.242.57-.364 1.255-.364 2.058 0 .803.122 1.489.364 2.058.252.56.607.99 1.064 1.288.457.299 1.003.448 1.638.448zm6.317 1.162v-9.94h1.512v9.38l-.798-.826h5.642V61.5h-6.356z" fill="#000"/><path d="M35.438 60.255a.501.501 0 01.346-.138h11.97c.219 0 .328.253.174.4l-2.366 2.262a.5.5 0 01-.346.137h-11.97c-.219 0-.328-.252-.174-.4l2.366-2.261z" fill="url(#paint0_linear_85_1060)"/><path d="M35.438 51.804a.5.5 0 01.346-.138h11.97c.219 0 .328.253.174.4l-2.366 2.262a.501.501 0 01-.346.137h-11.97c-.219 0-.328-.252-.174-.4l2.366-2.261z" fill="url(#paint1_linear_85_1060)"/><path d="M45.562 56.002a.501.501 0 00-.346-.137h-11.97c-.219 0-.328.252-.174.4l2.366 2.262a.5.5 0 00.346.137h11.97c.219 0 .328-.252.174-.4l-2.366-2.262z" fill="url(#paint2_linear_85_1060)"/><rect x="107.52" y="48" width="48.48" height="17" rx="4" fill="#FAA0A0"/><g clip-path="url(#clip5_85_1060)"><g clip-path="url(#clip6_85_1060)"><path d="M116.019 52.5v6.087l2.801-2.8.7.714-4 3.999-4-4 .699-.712 2.801 2.8V52.5h.999z" fill="#2B1A1A"/></g></g><path d="M126.854 60.639c-.585 0-1.087-.149-1.506-.444-.416-.299-.737-.728-.962-1.29-.223-.563-.334-1.241-.334-2.034.003-.793.115-1.468.338-2.024.224-.56.545-.985.962-1.279.419-.293.92-.44 1.502-.44s1.083.147 1.502.44c.419.294.74.72.963 1.279.224.558.337 1.233.337 2.024 0 .795-.113 1.475-.337 2.038-.223.561-.544.99-.963 1.286-.416.295-.917.444-1.502.444zm0-1.112c.455 0 .813-.224 1.076-.671.265-.45.398-1.112.398-1.985 0-.578-.061-1.063-.181-1.456-.121-.393-.292-.69-.512-.888a1.118 1.118 0 00-.781-.302c-.452 0-.81.225-1.072.675-.263.447-.396 1.104-.398 1.97-.002.58.056 1.068.174 1.464.121.395.291.694.511.895.22.199.482.298.785.298zm4.205 1.051a.76.76 0 01-.554-.227.738.738 0 01-.228-.554.73.73 0 01.228-.547.76.76 0 01.554-.227.75.75 0 01.543.227.746.746 0 01.124.941.81.81 0 01-.284.284.739.739 0 01-.383.103zm4.234.021c-.473 0-.897-.088-1.271-.266a2.265 2.265 0 01-.891-.739 1.952 1.952 0 01-.348-1.072h1.278c.024.298.153.542.387.732.235.187.516.28.845.28.259 0 .488-.06.689-.178.202-.118.36-.282.476-.493.116-.21.173-.451.171-.721a1.462 1.462 0 00-.174-.732 1.306 1.306 0 00-.487-.5 1.358 1.358 0 00-.71-.185 1.694 1.694 0 00-.643.12 1.32 1.32 0 00-.501.328l-1.189-.196.38-3.75h4.219v1.101h-3.129l-.209 1.928h.042a1.51 1.51 0 01.572-.394c.246-.106.516-.16.81-.16.44 0 .833.105 1.178.313.346.206.618.49.817.852.199.362.299.777.299 1.243 0 .48-.112.91-.334 1.286a2.36 2.36 0 01-.92.884c-.391.213-.843.32-1.357.32zm6.458-7.372V60.5h-1.317v-5.99h-.043l-1.701 1.086v-1.207l1.808-1.162h1.253zm5.435 5.91v-.384c0-.282.06-.541.178-.778.121-.237.296-.427.525-.572.23-.144.508-.216.835-.216.336 0 .618.072.845.216.227.142.399.332.515.569.118.236.178.497.178.78v.384c0 .282-.06.541-.178.778a1.405 1.405 0 01-.522.572c-.227.144-.507.216-.838.216-.331 0-.612-.072-.842-.216a1.42 1.42 0 01-.522-.572 1.744 1.744 0 01-.174-.778zm.927-.384v.383c0 .187.045.359.135.515.09.156.249.235.476.235.23 0 .387-.077.472-.231a1.04 1.04 0 00.132-.519v-.383c0-.19-.042-.362-.125-.519-.082-.158-.242-.238-.479-.238-.223 0-.38.08-.472.238a.994.994 0 00-.139.519zm-4.623-3.779v-.383c0-.284.06-.545.181-.781a1.41 1.41 0 01.525-.569c.23-.144.508-.216.835-.216.334 0 .614.072.841.217.23.142.403.33.519.568.116.236.174.497.174.78v.384c0 .285-.059.545-.178.782a1.363 1.363 0 01-.518.564c-.23.142-.509.213-.838.213-.334 0-.616-.07-.845-.213a1.394 1.394 0 01-.519-.568 1.718 1.718 0 01-.177-.778zm.934-.383v.383c0 .19.043.363.131.519.09.154.249.23.476.23.227 0 .383-.076.469-.23a1.05 1.05 0 00.131-.519v-.383c0-.19-.041-.362-.124-.519-.083-.158-.242-.238-.476-.238-.225 0-.383.08-.472.238-.09.16-.135.332-.135.519zm-.53 5.909l5-7.273h.888l-5 7.273h-.888z" fill="#2B1A1A"/><rect x="24.5" y="41.5" width="143" height="30" rx="7.5" stroke="#EBEBEB"/></g></g><defs><clipPath id="clip0_85_1060"><path fill="#fff" d="M0 0h170v72H0z"/></clipPath><clipPath id="clip1_85_1060"><rect x=".5" width="144" height="31" rx="8" fill="#fff"/></clipPath><clipPath id="clip2_85_1060"><path fill="#fff" transform="translate(87.67 11.5)" d="M0 0h8v8H0z"/></clipPath><clipPath id="clip3_85_1060"><path fill="#fff" transform="translate(87.67 11.5)" d="M0 0h8v8H0z"/></clipPath><clipPath id="clip4_85_1060"><rect x="24" y="41" width="144" height="31" rx="8" fill="#fff"/></clipPath><clipPath id="clip5_85_1060"><path fill="#fff" transform="rotate(180 59.76 30.25)" d="M0 0h8v8H0z"/></clipPath><clipPath id="clip6_85_1060"><path fill="#fff" transform="rotate(180 59.76 30.25)" d="M0 0h8v8H0z"/></clipPath><linearGradient id="paint0_linear_85_1060" x1="43.141" y1="48.581" x2="35.413" y2="64.047" gradientUnits="userSpaceOnUse"><stop stop-color="#00FFA3"/><stop offset="1" stop-color="#DC1FFF"/></linearGradient><linearGradient id="paint1_linear_85_1060" x1="43.141" y1="48.581" x2="35.413" y2="64.047" gradientUnits="userSpaceOnUse"><stop stop-color="#00FFA3"/><stop offset="1" stop-color="#DC1FFF"/></linearGradient><linearGradient id="paint2_linear_85_1060" x1="43.141" y1="48.581" x2="35.413" y2="64.047" gradientUnits="userSpaceOnUse"><stop stop-color="#00FFA3"/><stop offset="1" stop-color="#DC1FFF"/></linearGradient><filter id="filter0_d_85_1060" x="-4" y="-1" width="42" height="42" filterUnits="userSpaceOnUse" color-interpolation-filters="sRGB"><feFlood flood-opacity="0" result="BackgroundImageFix"/><feColorMatrix in="SourceAlpha" values="0 0 0 0 0 0 0 0 0 0 0 0 0 0 0 0 0 0 127 0" result="hardAlpha"/><feOffset dy="4"/><feGaussianBlur stdDeviation="6"/><feComposite in2="hardAlpha" operator="out"/><feColorMatrix values="0 0 0 0 0 0 0 0 0 0 0 0 0 0 0 0 0 0 0.1 0"/><feBlend in2="BackgroundImageFix" result="effect1_dropShadow_85_1060"/><feBlend in="SourceGraphic" in2="effect1_dropShadow_85_1060" result="shape"/></filter></defs></svg>