<svg width="375" height="587" viewBox="0 0 375 587" fill="none" xmlns="http://www.w3.org/2000/svg"><path d="M40.244 176.978c-24.023 0-40.21-13.331-42.04-34.351l-.147-1.392h13.842l.147 1.172c.66 6.299 3.15 11.646 8.276 16.04 5.347 4.615 12.378 6.299 19.922 6.299 5.786 0 11.792-.806 16.7-3.149 6.957-3.369 11.279-8.789 11.279-15.747 0-4.175-1.465-7.984-4.615-11.06-2.49-2.417-7.91-4.248-11.938-5.347-5.493-1.611-11.426-2.71-17.358-3.881-5.933-1.172-11.939-2.417-17.212-4.468-10.767-4.029-18.75-10.987-18.75-25.488 0-20.362 21.46-31.348 41.894-31.348 24.024 0 40.283 13.476 42.041 34.497l.147 1.391H68.589l-.147-1.245C67.051 84.985 56.138 76.49 40.244 76.49c-5.786 0-11.719.806-16.626 3.223-7.031 3.37-11.352 8.716-11.352 15.747 0 4.175 1.391 7.983 4.614 10.986 2.49 2.491 7.91 4.248 11.865 5.42 5.493 1.538 11.5 2.637 17.432 3.809 5.932 1.172 11.865 2.49 17.212 4.468 10.766 4.028 18.75 11.059 18.75 25.561 0 20.288-21.46 31.275-41.895 31.275zm65.017-94.336c-5.347 0-8.716-4.102-8.716-8.277 0-4.248 3.223-8.35 8.716-8.35 5.493 0 8.862 4.102 8.862 8.35 0 4.175-3.589 8.277-8.862 8.277zm6.445 11.718V175h-12.89V94.36h12.89zm33.449 80.786c-13.33 0-16.919-9.228-16.919-18.53v-90.6h12.891v89.355c0 2.417.146 4.468.879 6.006.659 1.245 1.831 2.197 4.687 2.197 1.685 0 3.369-.146 4.981-.22l1.611-.073v11.573l-1.465.073a99.943 99.943 0 01-6.665.219zm51.394 1.612c-25.855 0-40.869-20.654-40.869-41.236 0-20.581 15.014-41.162 40.869-41.162 25.781 0 40.796 20.581 40.796 41.162 0 1.172-.074 2.271-.22 3.443l-.146 1.172h-67.896c1.611 13.403 11.426 24.975 27.466 24.975 10.254 0 18.53-4.834 23.291-12.817 1.245-2.124 1.465-2.857 2.417-5.2l1.025-2.417 12.158 3.515-.439 1.245c-.147.44-.22.953-.439 1.392-5.64 14.868-19.41 25.928-38.013 25.928zm-27.1-48.34h54.053c-2.417-12.378-12.085-22.485-26.953-22.485-15.088 0-24.463 10.107-27.1 22.485zm94.973-4.028V175h-12.891V94.36h12.891v4.688c6.006-3.516 14.209-4.688 20.727-4.688 9.668 0 18.457 1.758 25.269 8.716 6.079 6.226 8.35 13.843 8.35 21.826V175h-12.891v-48.047c0-13.11-5.273-21.167-20.728-21.167-6.225 0-12.085 1.172-15.82 5.274-3.076 3.295-4.907 8.935-4.907 13.33zm96.877 50.756c-13.33 0-16.919-9.155-16.919-18.53v-50.683h-15.894V94.36h15.894V62.5h12.891v31.86h16.406v11.573h-16.406v49.438c0 5.42.439 8.203 6.079 8.203 2.929 0 5.859-.073 8.789-.22l1.611-.073v11.426l-1.392.073c-3.662.22-7.397.366-11.059.366z" fill="url(#paint0_linear_1_1411)" fill-opacity=".26"/><rect x="64" y="427" width="253" height="50.374" rx="11.307" fill="#000" fill-opacity=".04"/><g filter="url(#filter1_d_1_1411)"><rect x="75.307" y="436.64" width="31.095" height="31.095" rx="15.547" fill="#5378DF"/><path d="M99.042 444.499a7.412 7.412 0 012.136.284c.099.02.192.063.272.125.304.182.522.477.605.818a1.3 1.3 0 01-.163.999c-.253.372-.631.413-1.029.413H97.56c.17.41.291.838.362 1.274.083.477.127.973.19 1.47v.85h2.609c.197-.007.394.006.587.041.461.084.733.331.756.765v1.238c-.021.434-.295.683-.756.767a2.81 2.81 0 01-.587.041h-2.644v.844c-.064.495-.105.992-.189 1.466a5.85 5.85 0 01-.377 1.291h3.35c.398 0 .776.041 1.029.415.187.299.246.659.163 1.001a1.323 1.323 0 01-.605.82.678.678 0 01-.27.13c-.697.2-1.42.297-2.145.288l-.29.006-.582.011c-2.423.043-4.825.052-6.654.054h-.632c-2.455 0-5.75-.035-8.24-.085a7.425 7.425 0 01-2.137-.289.666.666 0 01-.272-.124 1.317 1.317 0 01-.605-.818 1.3 1.3 0 01.163-1c.251-.372.63-.413 1.028-.413h3.306a5.736 5.736 0 01-.362-1.274c-.085-.476-.127-.973-.19-1.469v-.858h-2.609a2.752 2.752 0 01-.587-.041c-.461-.082-.733-.329-.756-.764v-1.237c.021-.436.293-.683.756-.767.198-.035.4-.049.602-.041h2.644v-.852c.062-.496.104-.991.189-1.467.074-.443.2-.876.377-1.29h-3.365c-.398 0-.778-.042-1.029-.414a1.303 1.303 0 01-.165-1.001c.083-.342.3-.637.605-.82a.661.661 0 01.274-.125 7.46 7.46 0 012.143-.277l.291-.006.582-.011c2.424-.043 4.826-.052 6.654-.054h.633c2.455 0 5.75.034 8.237.086zm-4.564 9.085h-7.232c-.38.003-.377.036-.339.476.015.438.07.874.168 1.302a1.997 1.997 0 001.511 1.511 9.273 9.273 0 002.077.29 9.859 9.859 0 002.395-.298 1.996 1.996 0 001.51-1.507c.098-.428.154-.864.169-1.302.032-.402.034-.457-.26-.472zm-3.463-6.436a9.767 9.767 0 00-2.383.299 1.996 1.996 0 00-1.511 1.507 7.15 7.15 0 00-.168 1.302c-.034.402-.038.463.255.472h7.233c.38-.002.377-.036.34-.476a7.185 7.185 0 00-.178-1.304 2.007 2.007 0 00-1.511-1.512 9.156 9.156 0 00-2.077-.288z" fill="#F8F8F8"/></g><path d="M121.545 444.798v1.269h-6.046v-8.281h6.046v1.275h-4.588v2.175h3.859v1.27h-3.859v2.292h4.588zm2.678-2.292v3.561h-1.458v-8.281h6.046v1.275h-4.588v2.175h3.859v1.27h-3.859zm9.038 2.325v1.236h-3.23v-1.236h.872v-5.809h-.872v-1.236h3.23v1.236h-.878v5.809h.878z" fill="#000"/><rect x="138.123" y="438.067" width="43.109" height="8" rx="4" fill="#5378DF"/><path d="M147.638 444.491v.576h-3.541v-5.134h3.541v.576h-2.923v1.667h2.46v.576h-2.46v1.739h2.923zm2.305.583c-.628 0-.797-.431-.797-.873v-2.388h-.749v-.545h.749v-1.501h.607v1.501h.773v.545h-.773v2.33c0 .255.021.386.286.386.138 0 .276-.003.414-.01l.076-.004v.539l-.065.003c-.173.01-.349.017-.521.017zm1.953-2.391v2.384h-.607v-5.134h.607v1.556c.283-.166.669-.221.976-.221.456 0 .87.083 1.191.411.286.293.393.652.393 1.028v2.36h-.607v-2.263c0-.618-.249-.998-.977-.998-.293 0-.569.056-.745.249-.145.155-.231.421-.231.628zm5.038 2.467c-1.218 0-1.926-.973-1.926-1.943 0-.969.708-1.939 1.926-1.939 1.215 0 1.922.97 1.922 1.939 0 .056-.004.107-.01.163l-.007.055h-3.199c.076.631.538 1.177 1.294 1.177.483 0 .873-.228 1.097-.604.059-.1.069-.135.114-.245l.048-.114.573.165-.021.059c-.006.021-.01.045-.02.066a1.87 1.87 0 01-1.791 1.221zm-1.277-2.277h2.547c-.114-.583-.57-1.06-1.27-1.06-.711 0-1.153.477-1.277 1.06zm4.569-.19v2.384h-.607v-3.799h.607v.218c.304-.176.711-.218 1.045-.218h.069v.538h-.072c-.318-.003-.614.038-.811.249-.145.155-.231.421-.231.628zm3.147 2.467c-1.218 0-1.926-.973-1.926-1.943 0-.969.708-1.939 1.926-1.939 1.215 0 1.922.97 1.922 1.939 0 .056-.004.107-.01.163l-.007.055h-3.199c.076.631.538 1.177 1.294 1.177.483 0 .873-.228 1.097-.604.059-.1.069-.135.114-.245l.048-.114.573.165-.02.059c-.007.021-.011.045-.021.066a1.87 1.87 0 01-1.791 1.221zm-1.277-2.277h2.547c-.114-.583-.57-1.06-1.27-1.06-.711 0-1.153.477-1.277 1.06zm5.545 2.194c-.452 0-.876-.082-1.194-.41-.286-.294-.389-.663-.389-1.032v-2.357h.607v2.264c0 .614.248.997.976.997.29 0 .566-.062.746-.252.141-.152.228-.424.228-.628v-2.381h.61v3.799h-.61v-.224c-.28.166-.67.224-.974.224zm2.954-2.263v2.263h-.611v-3.799h.608v.235c.259-.162.562-.221.873-.221.466 0 .89.159 1.159.497.273-.345.694-.497 1.167-.497.966 0 1.466.642 1.466 1.425v2.36h-.611v-2.263c0-.542-.214-.991-.869-.991-.097 0-.207.018-.3.045-.435.135-.553.549-.553.946v2.263h-.603v-2.263c0-.539-.221-.991-.873-.991-.097 0-.208.018-.301.045-.431.135-.552.549-.552.946z" fill="#F8F8F8"/><path d="M118.384 465.42v1.014h-.565v-1.001c-1.297-.067-2.059-.735-2.234-1.96l-.014-.099h.637l.009.076c.126.884.678 1.351 1.602 1.4v-2.696l-.063-.018c-.965-.26-1.875-.74-1.875-1.848 0-.233.054-.458.139-.669.193-.471.65-.82 1.153-.964a3.44 3.44 0 01.646-.117v-1.009h.565v1.009c1.216.099 1.848.862 1.974 1.97l.013.094h-.637l-.009-.076a1.832 1.832 0 00-.229-.696c-.233-.408-.632-.637-1.112-.708v2.557l.018.004c1.005.274 1.974.713 1.974 1.889 0 .219-.027.435-.117.646a1.896 1.896 0 01-.309.511c-.162.188-.404.341-.615.444-.292.148-.633.215-.951.247zm-.565-3.894v-2.409c-.758.063-1.306.395-1.306 1.153 0 .323.09.597.346.803.246.202.619.35.96.453zm.565.79v2.521c.754-.086 1.359-.467 1.359-1.221 0-.332-.09-.619-.35-.834-.26-.211-.655-.363-1.009-.466zm5.141 3.22c-1.337 0-2.301-1.484-2.301-3.526 0-2.036.964-3.521 2.301-3.521 1.341 0 2.301 1.48 2.301 3.521 0 2.042-.96 3.526-2.301 3.526zm0-.489c1.063-.053 1.817-1.309 1.817-3.037 0-1.722-.759-2.978-1.817-3.032-1.059.054-1.817 1.31-1.817 3.032 0 1.723.758 2.984 1.817 3.037zm4.374-.569l-.696 1.727h-.569l.52-1.727h.745zm3.315 1.058c-1.337 0-2.302-1.484-2.302-3.526 0-2.036.965-3.521 2.302-3.521 1.341 0 2.301 1.48 2.301 3.521 0 2.042-.96 3.526-2.301 3.526zm0-.489c1.063-.053 1.816-1.309 1.816-3.037 0-1.722-.758-2.978-1.816-3.032-1.059.054-1.817 1.31-1.817 3.032 0 1.723.758 2.984 1.817 3.037zm5.58.395c-1.251 0-2.27-.682-2.27-1.947 0-.691.386-1.323 1.037-1.642-.557-.331-.848-.901-.848-1.52 0-.234.045-.467.134-.682.314-.79 1.117-1.126 1.947-1.126.247 0 .494.036.731.094a1.743 1.743 0 011.351 1.714c0 .619-.292 1.189-.853 1.52a1.819 1.819 0 011.037 1.642c0 1.265-1.014 1.947-2.266 1.947zm0-3.835c.852 0 1.449-.458 1.449-1.274 0-.817-.606-1.229-1.449-1.229-.848 0-1.449.408-1.449 1.229 0 .821.588 1.274 1.449 1.274zm0 3.257c.933 0 1.615-.467 1.615-1.369 0-.901-.686-1.328-1.615-1.328-.928 0-1.619.422-1.619 1.328 0 .906.686 1.369 1.619 1.369z" fill="#000"/><path d="M147.652 463.726v2.082h-.61v-2.082h-2.158v-.596h2.158v-2.091h.61v2.091h2.153v.596h-2.153zm5.23 2.31c-1.337 0-2.301-1.484-2.301-3.526 0-2.036.964-3.521 2.301-3.521 1.342 0 2.302 1.48 2.302 3.521 0 2.042-.96 3.526-2.302 3.526zm0-.489c1.063-.053 1.817-1.309 1.817-3.037 0-1.722-.758-2.978-1.817-3.032-1.058.054-1.816 1.31-1.816 3.032 0 1.723.758 2.984 1.816 3.037zm3.827.337a.45.45 0 01-.467-.453c0-.247.175-.462.467-.462a.458.458 0 110 .915zm3.799.152c-1.336 0-2.301-1.484-2.301-3.526 0-2.036.965-3.521 2.301-3.521 1.342 0 2.302 1.48 2.302 3.521 0 2.042-.96 3.526-2.302 3.526zm0-.489c1.064-.053 1.817-1.309 1.817-3.037 0-1.722-.758-2.978-1.817-3.032-1.058.054-1.816 1.31-1.816 3.032 0 1.723.758 2.984 1.816 3.037zm7.667-.332v.593h-3.822v-.593h1.592v-5.432h-1.592v-.624h2.229v6.056h1.593zm2.898-1.834c-1.252 0-1.485-1.306-1.485-2.136 0-.834.233-2.144 1.485-2.144 1.247 0 1.48 1.315 1.48 2.144 0 .83-.229 2.136-1.48 2.136zm4.387-4.222l-3.705 6.649h-.66l3.714-6.649h.651zm-4.387 3.665c.372 0 .592-.228.717-.556.131-.327.157-.731.157-1.023 0-.296-.026-.699-.152-1.031-.13-.323-.346-.552-.722-.552-.373 0-.592.229-.723.556-.13.328-.157.731-.157 1.027 0 .292.027.696.157 1.023.131.328.35.556.723.556zm4.414 3.037c-1.252 0-1.485-1.3-1.485-2.135 0-.839.233-2.14 1.485-2.14 1.247 0 1.485 1.306 1.485 2.14 0 .83-.238 2.135-1.485 2.135zm0-.551c.377 0 .596-.234.722-.557.13-.332.157-.735.157-1.027 0-.296-.027-.7-.157-1.027-.126-.328-.345-.556-.722-.556-.373 0-.592.228-.718.556-.13.327-.157.731-.157 1.027 0 .292.027.695.157 1.027.126.323.345.557.718.557z" fill="#2F8600"/><path d="M215.409 463.494l3.857-2.155 1.231-3.498 1.764 1.627 5.21-18.588 2.954 13.87 2.831-6.264 3.98 9.355 1.969-2.847 1.559 1.098 2.913-6.427" stroke="#10BE00" stroke-width="1.413" stroke-linecap="round" stroke-linejoin="round"/><path d="M262.485 447.659v1.073h-.99v-1.049c-1.551-.14-2.223-1.072-2.372-2.265l-.01-.097-.01-.087h1.063l.01.072c.072.754.42 1.319 1.319 1.44v-2.493c-1.174-.338-2.044-.903-2.044-2.053 0-.256.058-.507.16-.749.309-.715 1.019-1.101 1.884-1.207v-1.063h.99v1.063c1.015.135 1.647.695 1.932 1.492.097.285.136.575.179.865l.015.092h-1.073l-.019-.15a2.049 2.049 0 00-.077-.396 1.332 1.332 0 00-.957-.942v2.319c1.208.343 2.102.889 2.102 2.082 0 1.101-.812 1.879-2.102 2.053zm-.99-4.415v-2.068c-.643.106-.986.435-.986 1.005 0 .29.068.517.305.715.169.14.434.261.681.348zm.99 1.294v2.179c.647-.13 1.044-.493 1.044-1.068 0-.289-.068-.545-.31-.748-.178-.145-.468-.271-.734-.363zm6.411 2.087h1.676v.942h-4.425v-.942h1.681v-5.299h-1.681v-.976h2.749v6.275zm5.575 1.078c-1.57 0-2.59-.899-2.59-2.179 0-.647.319-1.309.957-1.715a1.936 1.936 0 01-.754-1.561c0-1.173.937-2.038 2.387-2.038 1.454 0 2.396.869 2.396 2.038 0 .575-.237 1.16-.763 1.561.632.406.961 1.068.961 1.715 0 1.285-1.015 2.179-2.594 2.179zm0-4.3c.86 0 1.338-.454 1.338-1.155 0-.7-.488-1.111-1.338-1.111-.851 0-1.329.406-1.329 1.111 0 .706.469 1.155 1.329 1.155zm0 3.372c.951 0 1.512-.464 1.512-1.251 0-.788-.565-1.208-1.512-1.208-.942 0-1.512.42-1.512 1.208 0 .787.56 1.251 1.512 1.251zm6.237.894c-1.459 0-2.508-1.575-2.508-3.735 0-2.154 1.049-3.729 2.508-3.729 1.458 0 2.507 1.575 2.507 3.729 0 2.16-1.049 3.735-2.507 3.735zm0-.908c.937-.049 1.608-1.218 1.608-2.827 0-1.599-.671-2.773-1.608-2.821-.938.048-1.609 1.222-1.609 2.821 0 1.6.676 2.778 1.609 2.827zm5.444-.145h3.42v.951h-5.111v-.763l2.875-2.517c.55-.483.98-1.063.98-1.725 0-.777-.376-1.425-1.372-1.425-.647 0-1.062.276-1.246.783a2.06 2.06 0 00-.092.449l-.019.155h-1.092l.015-.092c.038-.275.077-.56.188-.836.333-.86 1.135-1.386 2.246-1.386 1.686 0 2.454 1.067 2.454 2.323 0 .991-.574 1.783-1.372 2.469l-1.874 1.614zm5.024-.237h1.208l-.87 2.116h-.99l.652-2.116zm4.058.237h3.421v.951h-5.112v-.763l2.875-2.517c.551-.483.981-1.063.981-1.725 0-.777-.377-1.425-1.372-1.425-.648 0-1.063.276-1.247.783a2.12 2.12 0 00-.092.449l-.019.155h-1.092l.015-.092c.038-.275.077-.56.188-.836.334-.86 1.135-1.386 2.247-1.386 1.686 0 2.454 1.067 2.454 2.323 0 .991-.575 1.783-1.372 2.469l-1.875 1.614zm7.179 1.087c-1.57 0-2.589-.899-2.589-2.179v-.251h1.077v.251c0 .782.565 1.251 1.512 1.251.952 0 1.512-.464 1.512-1.251 0-.788-.565-1.208-1.512-1.208h-.807v-.913h.807c.855 0 1.338-.459 1.338-1.155 0-.7-.488-1.111-1.338-1.111-.85 0-1.328.406-1.328 1.111v.257h-1.058v-.257c0-1.178.937-2.038 2.386-2.038s2.396.869 2.396 2.038c0 .575-.236 1.16-.763 1.561.633.406.961 1.068.961 1.715 0 1.285-1.014 2.179-2.594 2.179z" fill="#000"/><path d="M290.609 465.933c-1.458 0-2.405-.834-2.405-2.023v-.233h1.001v.233c0 .727.524 1.162 1.404 1.162.883 0 1.404-.431 1.404-1.162 0-.731-.525-1.121-1.404-1.121h-.75v-.848h.75c.794 0 1.242-.426 1.242-1.072 0-.651-.453-1.032-1.242-1.032-.79 0-1.234.377-1.234 1.032v.237h-.982v-.237c0-1.095.87-1.893 2.216-1.893 1.345 0 2.225.807 2.225 1.893 0 .533-.22 1.076-.709 1.449a1.9 1.9 0 01.893 1.592c0 1.193-.943 2.023-2.409 2.023zm8.393-1.74h-.915v1.615h-.978v-1.615h-3.297v-.714l3.4-4.373h.875v4.207h.915v.88zm-3.894-.88h2.001v-2.565l-2.001 2.565zm6.339 1.611h3.176v.884h-4.747v-.709l2.67-2.337c.511-.449.91-.987.91-1.602 0-.722-.35-1.323-1.274-1.323-.601 0-.987.256-1.157.727a1.93 1.93 0 00-.085.417l-.018.143h-1.014l.013-.085c.036-.256.072-.52.175-.776.31-.798 1.054-1.287 2.086-1.287 1.566 0 2.279.991 2.279 2.157 0 .92-.534 1.656-1.274 2.293l-1.74 1.498z" fill="#7D7D7D"/><rect x="64" y="480.709" width="253" height="45.229" rx="11.307" fill="#000" fill-opacity=".04"/><g filter="url(#filter3_d_1_1411)"><rect x="75.307" y="487.776" width="31.095" height="31.095" rx="15.547" fill="#F5B300" shape-rendering="crispEdges"/><path d="M85.392 494.925c.571.156 1.142.259 1.713.415.571.156 1.142.26 1.713.415.156.052.207 0 .26-.155.207-.883.415-1.713.622-2.596.052-.155.104-.207.26-.155.519.155.986.259 1.505.363.156.052.156.104.104.208-.208.83-.415 1.712-.623 2.543 0 .052 0 .104-.052.208.415.103.883.207 1.298.311.052 0 .104-.104.156-.156.155-.675.311-1.297.519-1.972l.155-.623c0-.104.052-.156.156-.104.52.156 1.038.26 1.61.415.051 0 .051.052.103.052-.156.675-.312 1.298-.467 1.921-.052.259-.104.519-.208.778-.052.156 0 .208.156.26l1.713.779c.519.311.986.726 1.35 1.245.466.779.518 1.609.31 2.44-.155.571-.363 1.09-.778 1.505-.311.312-.727.519-1.142.675-.052 0-.104.052-.207.052.207.156.415.259.623.415.622.467 1.038 1.038 1.245 1.765.104.571.052 1.194-.104 1.765-.207.726-.467 1.349-.934 1.92-.57.675-1.297 1.038-2.128 1.142-1.09.156-2.128.052-3.166-.104-.156-.052-.26 0-.312.156-.207.831-.415 1.713-.623 2.543-.051.208-.051.26-.311.156-.467-.104-.986-.259-1.453-.363-.156-.052-.156-.104-.104-.208.207-.882.415-1.765.674-2.595 0-.104.052-.156-.051-.208-.416-.104-.83-.207-1.298-.311-.104.467-.26.934-.363 1.401-.104.467-.26.935-.364 1.402-.052.104-.052.155-.207.104a16.86 16.86 0 00-1.558-.364c-.155-.052-.155-.104-.103-.207.207-.883.415-1.765.674-2.596 0-.052.052-.103.052-.207a363.419 363.419 0 00-3.633-.935c.104-.207.156-.363.26-.571.207-.467.415-.934.57-1.349.052-.156.104-.156.26-.156.363.104.779.208 1.142.26.415.103.727-.104.778-.467.675-2.648 1.35-5.295 1.973-7.994.104-.415-.156-.882-.623-1.038-.467-.156-.934-.26-1.35-.363-.103 0-.155-.052-.103-.156.155-.571.311-1.194.467-1.765-.208.156-.208.156-.156.104zm2.647 12.821c.052 0 .104.052.104.052.83.207 1.713.467 2.595.519.623.051 1.194.051 1.765-.156.987-.312 1.402-1.609.83-2.44-.259-.415-.674-.675-1.09-.934-.934-.519-2.024-.727-3.062-.934-.156-.052-.156 0-.207.155-.104.519-.26.987-.364 1.506-.207.726-.363 1.453-.57 2.232zm4.36-5.295c.104 0 .364-.052.571-.104.987-.207 1.506-1.349.987-2.232-.26-.467-.727-.778-1.194-.986-.727-.311-1.454-.467-2.232-.675-.156-.051-.208 0-.26.156a74.557 74.557 0 01-.83 3.218c-.052.104 0 .156.104.208.207.052.363.104.57.156.78.103 1.454.259 2.284.259z" fill="#140903"/></g><path d="M119.416 499.704h-3.528v-8.282h3.484c.817 0 1.661.144 2.258.641.563.475.762 1.115.762 1.722a2.08 2.08 0 01-.818 1.679 2.134 2.134 0 011.016 1.816c0 1.535-1.17 2.424-3.174 2.424zm0-7.006h-2.071v2.175h2.071c1.043 0 1.512-.281 1.512-1.088 0-.789-.491-1.087-1.512-1.087zm.071 3.445h-2.142v2.291h2.131c1.055 0 1.651-.331 1.651-1.154 0-.806-.602-1.137-1.64-1.137zm7.901-3.445v7.006h-1.463v-7.006h-2.617v-1.276h6.714v1.276h-2.634zm7.272 7.155c-.503 0-1-.072-1.464-.215-2.081-.641-2.843-2.551-2.843-4.075 0-1.297.552-2.909 2.032-3.721a4.631 4.631 0 012.275-.58c2.523 0 3.964 1.701 4.196 3.407l.016.116h-1.463l-.028-.078c-.027-.071-.044-.149-.066-.226a2.569 2.569 0 00-.237-.618c-.425-.795-1.276-1.358-2.418-1.358a2.87 2.87 0 00-1.11.215c-1.27.53-1.712 1.772-1.712 2.843 0 1.055.447 2.33 1.706 2.838a2.9 2.9 0 001.116.21c1.148 0 1.993-.552 2.423-1.353a2.79 2.79 0 00.232-.607c.022-.077.028-.149.044-.226l.022-.083h1.491l-.016.11c-.238 1.712-1.668 3.401-4.196 3.401z" fill="#000"/><rect x="144.123" y="491.704" width="40.989" height="8" rx="4" fill="#F5B300"/><path d="M155.856 498.704h-2.091v-5.135h2.064c.455 0 .969.076 1.325.38.324.276.445.652.445 1.032 0 .372-.152.769-.494 1.021a2.88 2.88 0 01-.124.08c.487.234.742.69.742 1.173 0 1.028-.814 1.449-1.867 1.449zm0-4.558h-1.473v1.666h1.473c.69 0 1.122-.193 1.122-.831 0-.625-.442-.835-1.122-.835zm.045 2.243h-1.518v1.739h1.511c.697 0 1.211-.224 1.211-.873 0-.639-.517-.866-1.204-.866zm2.788-2.036a.396.396 0 01-.41-.39c0-.2.151-.394.41-.394a.4.4 0 01.418.394c0 .197-.169.39-.418.39zm.304.552v3.799h-.607v-3.799h.607zm2.212 3.806c-.628 0-.797-.431-.797-.873v-2.388h-.749v-.545h.749v-1.501h.607v1.501h.773v.545h-.773v2.329c0 .256.021.387.286.387.138 0 .276-.004.414-.011l.076-.003v.538l-.065.004c-.173.01-.349.017-.521.017zm2.805.072c-1.201 0-1.874-1-1.874-1.939 0-.938.673-1.939 1.874-1.939.752 0 1.318.393 1.625.966.083.155.142.314.187.476l.038.156h-.628l-.011-.049c-.096-.334-.252-.645-.579-.831a1.297 1.297 0 00-.632-.173 1.29 1.29 0 00-.631.173c-.435.245-.628.769-.628 1.221 0 .452.193.97.628 1.218.193.111.403.173.631.173.228 0 .438-.062.632-.173.327-.186.483-.493.579-.831l.011-.045h.628l-.018.072c-.189.804-.793 1.525-1.832 1.525zm4.279.004c-1.204 0-1.874-1.004-1.874-1.943 0-.938.673-1.939 1.874-1.939s1.874 1.001 1.874 1.939c0 .939-.67 1.943-1.874 1.943zm0-.549c.235 0 .435-.062.632-.176.438-.252.624-.759.624-1.218 0-.452-.19-.976-.624-1.221a1.306 1.306 0 00-.632-.173 1.29 1.29 0 00-.631.173c-.435.248-.628.766-.628 1.221 0 .459.189.966.628 1.218.196.114.396.176.631.176zm2.837-3.885a.397.397 0 01-.411-.39c0-.2.152-.394.411-.394a.4.4 0 01.417.394c0 .197-.169.39-.417.39zm.303.552v3.799h-.607v-3.799h.607zm1.481 1.415v2.384h-.608v-3.799h.608v.221c.282-.166.669-.221.976-.221.456 0 .87.083 1.191.411.286.293.393.652.393 1.028v2.36h-.607v-2.264c0-.617-.249-.997-.977-.997-.293 0-.569.055-.745.249-.145.155-.231.421-.231.628zm-54.371 19.736v1.014h-.566v-1c-1.296-.067-2.059-.736-2.233-1.96l-.014-.099h.637l.009.076c.126.884.677 1.35 1.601 1.4v-2.696l-.062-.018c-.965-.26-1.875-.74-1.875-1.848 0-.234.053-.458.139-.669.193-.471.65-.821 1.153-.964.206-.059.426-.099.645-.117v-1.009h.566v1.009c1.215.099 1.848.861 1.974 1.969l.013.095h-.637l-.009-.077a1.845 1.845 0 00-.229-.695c-.233-.408-.632-.637-1.112-.709v2.557l.018.005c1.005.273 1.973.713 1.973 1.888 0 .22-.026.435-.116.646a1.89 1.89 0 01-.31.512c-.161.188-.403.341-.614.444-.292.148-.633.215-.951.246zm-.566-3.893v-2.409c-.758.063-1.305.395-1.305 1.153 0 .323.09.596.346.803.246.201.619.35.959.453zm.566.789v2.521c.753-.085 1.359-.466 1.359-1.22 0-.332-.09-.619-.35-.834-.26-.211-.655-.364-1.009-.467zm4.916 2.916l-.009.076h-.673l.014-.098c.3-2.194.987-4.132 2.355-5.949h-3.795v-.601h4.661v.507l-.018.023c-1.53 1.911-2.257 3.674-2.535 6.042zm5.563 0l-.009.076h-.673l.013-.098c.301-2.194.987-4.132 2.356-5.949h-3.796v-.601h4.661v.507l-.018.023c-1.529 1.911-2.256 3.674-2.534 6.042zm8.303.224a2.27 2.27 0 01-.574-.067 2.46 2.46 0 01-.632-.256 2.17 2.17 0 01-.525-.466c-.382-.458-.516-1.063-.516-1.62 0-1.74 1.112-3.265 2.431-4.369l.023-.018.937-.049-.202.166a9.832 9.832 0 00-1.453 1.453c-.292.355-.547.74-.74 1.144.381-.282.901-.417 1.363-.417 1.342 0 2.216 1.072 2.216 2.256 0 1.243-.978 2.243-2.328 2.243zm.009-.578c1.014 0 1.656-.696 1.656-1.629v-.121c-.027-.462-.175-.866-.525-1.184-.305-.283-.669-.408-1.095-.408-1.005 0-1.646.717-1.646 1.642v.116c.027.458.175.87.525 1.184.3.27.668.4 1.085.4zm5.244.354l-.009.076h-.673l.014-.098c.3-2.194.987-4.132 2.355-5.949h-3.795v-.601h4.661v.507l-.018.023c-1.53 1.911-2.257 3.674-2.535 6.042zm5.805.211c-1.252 0-2.27-.682-2.27-1.947a1.82 1.82 0 011.036-1.642c-.556-.332-.847-.901-.847-1.521 0-.233.044-.466.134-.681.314-.79 1.117-1.126 1.947-1.126.247 0 .493.036.731.094.839.211 1.35.915 1.35 1.713 0 .62-.291 1.189-.852 1.521a1.818 1.818 0 011.036 1.642c0 1.265-1.013 1.947-2.265 1.947zm0-3.836c.852 0 1.449-.457 1.449-1.274 0-.816-.606-1.229-1.449-1.229-.848 0-1.449.409-1.449 1.229 0 .821.588 1.274 1.449 1.274zm0 3.257c.933 0 1.615-.466 1.615-1.368 0-.902-.686-1.328-1.615-1.328-.929 0-1.619.422-1.619 1.328 0 .906.686 1.368 1.619 1.368zm4.356-.386l-.695 1.728h-.57l.52-1.728h.745zm3.333.965c-1.252 0-2.27-.682-2.27-1.947a1.82 1.82 0 011.036-1.642c-.556-.332-.848-.901-.848-1.521 0-.233.045-.466.135-.681.314-.79 1.117-1.126 1.947-1.126.247 0 .493.036.731.094.839.211 1.35.915 1.35 1.713 0 .62-.291 1.189-.852 1.521a1.82 1.82 0 011.036 1.642c0 1.265-1.014 1.947-2.265 1.947zm0-3.836c.852 0 1.449-.457 1.449-1.274 0-.816-.606-1.229-1.449-1.229-.848 0-1.449.409-1.449 1.229 0 .821.588 1.274 1.449 1.274zm0 3.257c.933 0 1.615-.466 1.615-1.368 0-.902-.687-1.328-1.615-1.328-.929 0-1.62.422-1.62 1.328 0 .906.687 1.368 1.62 1.368zm5.58.579c-.758 0-1.404-.265-1.852-.866-.238-.323-.35-.691-.395-1.072l-.009-.094h.637l.013.072c.148.847.682 1.381 1.606 1.381.458 0 .835-.157 1.131-.48.323-.345.448-.794.448-1.26 0-.929-.578-1.593-1.588-1.593-.255 0-.516.059-.74.175-.193.099-.386.229-.511.39-.094.117-.18.238-.233.364l-.023.054h-.556l.309-3.854h3.715v.601h-3.1l-.171 2.131a2.37 2.37 0 01.436-.251c.296-.135.605-.193.928-.193.902 0 1.691.48 2.01 1.287.112.283.179.579.179.889 0 1.188-.861 2.319-2.234 2.319z" fill="#000"/><path d="M172.832 513.275v.57h-2.979v-.57h2.979zm3.207 2.804c-.758 0-1.404-.265-1.853-.866-.237-.323-.35-.691-.394-1.072l-.009-.094h.637l.013.072c.148.847.682 1.381 1.606 1.381.458 0 .834-.157 1.13-.48.323-.345.449-.794.449-1.26 0-.929-.579-1.593-1.588-1.593-.256 0-.516.059-.74.175-.193.099-.386.229-.512.39a1.622 1.622 0 00-.233.364l-.022.054h-.557l.31-3.854h3.714v.601h-3.099l-.171 2.131c.135-.103.292-.184.435-.251.296-.135.606-.193.929-.193.901 0 1.691.48 2.009 1.287.113.283.18.579.18.889 0 1.188-.861 2.319-2.234 2.319zm3.8-.058a.45.45 0 01-.467-.453.45.45 0 01.467-.463.458.458 0 110 .916zm3.884.071c-.193 0-.385-.018-.574-.067a2.474 2.474 0 01-.632-.256 2.17 2.17 0 01-.525-.466c-.382-.458-.516-1.063-.516-1.62 0-1.74 1.112-3.265 2.431-4.369l.023-.018.937-.049-.202.166a9.93 9.93 0 00-1.453 1.453c-.292.355-.547.74-.74 1.144.381-.282.901-.417 1.363-.417 1.342 0 2.217 1.072 2.217 2.256 0 1.243-.978 2.243-2.329 2.243zm.009-.578c1.014 0 1.656-.696 1.656-1.629v-.121c-.027-.462-.175-.866-.525-1.184-.305-.283-.669-.408-1.095-.408-1.005 0-1.646.717-1.646 1.642v.116c.027.458.175.87.525 1.184.3.27.668.4 1.085.4zm5.487.565c-1.252 0-2.27-.682-2.27-1.947v-.085h.65v.085c0 .395.126.727.426.991.323.283.745.377 1.194.377.933 0 1.614-.466 1.614-1.368 0-.902-.686-1.328-1.614-1.328h-.584v-.561h.584c.852 0 1.449-.462 1.449-1.274 0-.816-.606-1.229-1.449-1.229-.848 0-1.449.409-1.449 1.229v.086h-.633v-.086c0-.233.045-.466.135-.681.314-.79 1.112-1.126 1.947-1.126.246 0 .493.036.731.094.839.215 1.35.915 1.35 1.713 0 .62-.292 1.189-.852 1.521a1.82 1.82 0 011.036 1.642c0 1.265-1.014 1.947-2.265 1.947zm4.974-2.562c-1.251 0-1.484-1.305-1.484-2.135 0-.834.233-2.144 1.484-2.144 1.248 0 1.481 1.314 1.481 2.144 0 .83-.229 2.135-1.481 2.135zm4.388-4.221l-3.706 6.648h-.659l3.714-6.648h.651zm-4.388 3.665c.373 0 .593-.229.718-.556.13-.328.157-.731.157-1.023 0-.296-.027-.7-.152-1.032-.13-.323-.346-.551-.723-.551-.372 0-.592.228-.722.556-.13.327-.157.731-.157 1.027 0 .292.027.695.157 1.023.13.327.35.556.722.556zm4.415 3.037c-1.252 0-1.485-1.301-1.485-2.135 0-.839.233-2.14 1.485-2.14 1.247 0 1.484 1.305 1.484 2.14 0 .83-.237 2.135-1.484 2.135zm0-.552c.376 0 .596-.233.722-.556.13-.332.157-.736.157-1.027 0-.296-.027-.7-.157-1.027-.126-.328-.346-.557-.722-.557-.373 0-.593.229-.718.557-.13.327-.157.731-.157 1.027 0 .291.027.695.157 1.027.125.323.345.556.718.556z" fill="#FF002F"/><path d="M217.349 514.631l3.661-3.328 1.392-6.05 1.977 2.42 6.224-5.597 2.123-10.059 3.369 13.841 4.979-13.841 1.465 16.337 1.977-6.883 3.221 5.445" stroke="#FF718B" stroke-width="1.413" stroke-linecap="round" stroke-linejoin="round"/><path d="M268.485 499.795v1.072h-.99v-1.048c-1.551-.14-2.223-1.072-2.372-2.266l-.01-.096-.01-.087h1.063l.01.072c.072.754.42 1.319 1.319 1.44v-2.493c-1.174-.338-2.044-.903-2.044-2.053 0-.256.058-.507.16-.749.309-.715 1.019-1.101 1.884-1.208v-1.062h.99v1.062c1.015.136 1.647.696 1.932 1.493.097.285.136.575.179.865l.015.092h-1.073l-.019-.15a2.035 2.035 0 00-.077-.396 1.33 1.33 0 00-.957-.942v2.319c1.208.343 2.102.888 2.102 2.082 0 1.101-.812 1.879-2.102 2.053zm-.99-4.416v-2.067c-.643.106-.986.435-.986 1.005 0 .289.068.516.305.715.169.14.434.26.681.347zm.99 1.295v2.179c.647-.131 1.044-.493 1.044-1.068 0-.29-.068-.546-.31-.749-.178-.145-.468-.27-.734-.362zm5.676 3.164c-1.57 0-2.589-.898-2.589-2.178v-.252h1.077v.252c0 .782.566 1.251 1.512 1.251.952 0 1.513-.464 1.513-1.251 0-.788-.566-1.208-1.513-1.208h-.806v-.913h.806c.856 0 1.339-.459 1.339-1.155 0-.7-.488-1.111-1.339-1.111-.85 0-1.328.406-1.328 1.111v.256h-1.058v-.256c0-1.179.937-2.038 2.386-2.038 1.45 0 2.397.869 2.397 2.038 0 .575-.237 1.16-.764 1.561.633.405.962 1.067.962 1.715 0 1.285-1.015 2.178-2.595 2.178zm6.237-.033c-1.459 0-2.507-1.575-2.507-3.735 0-2.154 1.048-3.729 2.507-3.729s2.508 1.575 2.508 3.729c0 2.16-1.049 3.735-2.508 3.735zm0-.909c.937-.048 1.609-1.217 1.609-2.826 0-1.599-.672-2.773-1.609-2.821-.937.048-1.608 1.222-1.608 2.821 0 1.599.676 2.778 1.608 2.826zm5.445-.145h3.42v.952h-5.111v-.763l2.874-2.517c.551-.483.981-1.063.981-1.725 0-.778-.377-1.425-1.372-1.425-.647 0-1.063.275-1.246.783a2.035 2.035 0 00-.092.449l-.019.155h-1.092l.014-.092c.039-.276.078-.561.189-.836.333-.86 1.135-1.386 2.246-1.386 1.686 0 2.454 1.067 2.454 2.323 0 .991-.575 1.783-1.372 2.469l-1.874 1.613zm5.024-.236h1.208l-.87 2.116h-.99l.652-2.116zm4.058.236h3.42v.952h-5.111v-.763l2.875-2.517c.55-.483.98-1.063.98-1.725 0-.778-.376-1.425-1.372-1.425-.647 0-1.062.275-1.246.783a2.035 2.035 0 00-.092.449l-.019.155h-1.092l.015-.092c.038-.276.077-.561.188-.836.333-.86 1.135-1.386 2.246-1.386 1.686 0 2.454 1.067 2.454 2.323 0 .991-.574 1.783-1.372 2.469l-1.874 1.613zm7.179 1.087c-1.57 0-2.59-.898-2.59-2.178v-.252h1.078v.252c0 .782.565 1.251 1.512 1.251.952 0 1.512-.464 1.512-1.251 0-.788-.565-1.208-1.512-1.208h-.807v-.913h.807c.855 0 1.338-.459 1.338-1.155 0-.7-.488-1.111-1.338-1.111-.85 0-1.329.406-1.329 1.111v.256h-1.058v-.256c0-1.179.938-2.038 2.387-2.038s2.396.869 2.396 2.038c0 .575-.237 1.16-.763 1.561.633.405.961 1.067.961 1.715 0 1.285-1.014 2.178-2.594 2.178z" fill="#000"/><path d="M276.559 515.038c-1.354 0-2.328-1.463-2.328-3.468 0-2.001.974-3.463 2.328-3.463 1.355 0 2.328 1.462 2.328 3.463 0 2.005-.973 3.468-2.328 3.468zm0-.844c.871-.045 1.494-1.13 1.494-2.624 0-1.485-.623-2.575-1.494-2.62-.87.045-1.494 1.135-1.494 2.62s.628 2.579 1.494 2.624zm4.163.826c-.408 0-.637-.305-.637-.593 0-.287.22-.596.637-.596.417 0 .642.309.642.596 0 .288-.243.593-.642.593zm4.073.018c-1.354 0-2.328-1.463-2.328-3.468 0-2.001.974-3.463 2.328-3.463 1.355 0 2.329 1.462 2.329 3.463 0 2.005-.974 3.468-2.329 3.468zm0-.844c.871-.045 1.494-1.13 1.494-2.624 0-1.485-.623-2.575-1.494-2.62-.87.045-1.493 1.135-1.493 2.62s.628 2.579 1.493 2.624zm5.832.844c-1.355 0-2.328-1.463-2.328-3.468 0-2.001.973-3.463 2.328-3.463s2.328 1.462 2.328 3.463c0 2.005-.973 3.468-2.328 3.468zm0-.844c.87-.045 1.494-1.13 1.494-2.624 0-1.485-.624-2.575-1.494-2.62-.87.045-1.494 1.135-1.494 2.62s.628 2.579 1.494 2.624zm8.434-.866h-.916v1.615h-.977v-1.615h-3.298v-.713l3.401-4.374h.874v4.208h.916v.879zm-3.894-.879h2.001v-2.566l-2.001 2.566zm7.195 2.62c-1.498 0-2.301-.969-2.395-2.095l-.005-.085-.004-.076h.969l.036.192c.148.691.515 1.203 1.399 1.203.408 0 .718-.139.969-.404.296-.31.399-.713.399-1.117 0-.74-.43-1.377-1.377-1.377-.421 0-.83.193-1.081.48-.094.112-.211.282-.242.403l-.014.059h-.879l.328-4.011h3.992v.889h-3.05l-.13 1.574c.341-.17.731-.26 1.13-.26 1.507 0 2.328 1.135 2.328 2.243 0 1.112-.816 2.382-2.373 2.382z" fill="#7D7D7D"/><rect x="52.5" y="3.5" width="276" height="580" rx="50.5" stroke="#fff" stroke-width="7"/><rect x="20" y="86" width="93" height="37" rx="18.5" fill="#000" fill-opacity=".12"/><g clip-path="url(#clip0_1_1411)"><path d="M37 114.5c5.536 0 10-4.464 10-10s-4.464-10-10-10-10 4.464-10 10 4.464 10 10 10z" fill="#0098EA"/><path d="M40.429 100.071H33.57c-1.25 0-2.035 1.357-1.428 2.465l4.214 7.321a.735.735 0 001.25 0l4.214-7.321c.643-1.108-.142-2.465-1.392-2.465zm-4.036 7.572l-.929-1.786-2.214-3.964c-.143-.25.036-.572.357-.572h2.786v6.322zm4.357-5.75l-2.214 3.964-.929 1.786v-6.322h2.786c.321 0 .5.322.357.572z" fill="#fff"/></g><path d="M61.812 100.641h-3.289v8.859h-1.497v-8.859h-3.274v-1.354h8.06v1.354zM67 104.995h-2.188v4.505h-1.49V99.287h4.19c2.209 0 3.61.964 3.61 2.858 0 1.401-.807 2.454-2.495 2.754l2.707 4.601h-1.757L67 104.995zm.567-4.354h-2.754v3.007h2.754c1.306 0 2.058-.389 2.058-1.51 0-1.115-.759-1.497-2.058-1.497zm10.083 9.05a5.9 5.9 0 01-1.77-.266 4.706 4.706 0 01-2.844-2.413 5.978 5.978 0 01-.608-2.618c0-1.641.704-3.623 2.474-4.601a5.517 5.517 0 012.748-.704c2.892 0 4.676 1.866 5.059 4.06l.02.13h-1.517l-.027-.082c-.02-.068-.028-.13-.048-.198a3.64 3.64 0 00-.308-.807c-.588-1.087-1.716-1.791-3.179-1.791-.52 0-1.011.089-1.47.287-1.62.67-2.228 2.263-2.228 3.706 0 1.428.615 3.048 2.222 3.705.458.191.97.28 1.476.28 1.86 0 3.124-1.121 3.487-2.584.02-.062.02-.13.034-.191l.02-.096h1.538l-.02.13c-.376 2.194-2.174 4.053-5.059 4.053z" fill="#fff"/><path d="M96.53 98.97l5.001 4.999a.757.757 0 01.163.819.757.757 0 01-.163.244l-5 5a.75.75 0 11-1.063-1.063l4.47-4.469-4.47-4.469a.753.753 0 011.062-1.063v.001z" fill="#D2D2D2"/><rect x="263" y="131" width="93" height="37" rx="18.5" fill="#000" fill-opacity=".12"/><path d="M278.938 152.255a.498.498 0 01.346-.137h11.971c.218 0 .327.252.173.4l-2.366 2.262a.498.498 0 01-.346.137h-11.971c-.218 0-.327-.252-.173-.4l2.366-2.262z" fill="url(#paint1_linear_1_1411)"/><path d="M278.938 143.804a.498.498 0 01.346-.137h11.971c.218 0 .327.252.173.4l-2.366 2.262a.498.498 0 01-.346.137h-11.971c-.218 0-.327-.252-.173-.4l2.366-2.262z" fill="url(#paint2_linear_1_1411)"/><path d="M289.062 148.003a.498.498 0 00-.346-.137h-11.971c-.218 0-.327.252-.173.399l2.366 2.263a.502.502 0 00.346.137h11.971c.218 0 .327-.253.173-.4l-2.366-2.262z" fill="url(#paint3_linear_1_1411)"/><path d="M304.806 154.678c-1.785 0-3.206-.773-3.781-2.188a4.135 4.135 0 01-.246-1.059l-.027-.253h1.559l.027.212c.068.553.253 1.005.724 1.401.465.397 1.067.54 1.744.54.512 0 1.046-.068 1.476-.273.609-.287.971-.759.971-1.34 0-.349-.123-.684-.39-.937-.225-.212-.683-.355-1.046-.458-.519-.15-1.066-.246-1.606-.348-.547-.11-1.094-.233-1.607-.424-1.292-.486-1.811-1.285-1.811-2.441 0-1.852 1.935-2.98 4.013-2.98 1.784 0 3.206.779 3.78 2.201.137.349.205.704.246 1.06l.027.253h-1.558l-.028-.219a2.364 2.364 0 00-.15-.615c-.349-.869-1.217-1.333-2.317-1.333-.52 0-1.033.068-1.47.28-.622.301-.978.752-.978 1.34 0 .355.11.676.39.936.226.212.67.356 1.039.458.52.151 1.067.246 1.6.349 1.941.383 3.431.902 3.431 2.864 0 1.853-1.941 2.974-4.012 2.974zm8.962-.014c-2.523 0-3.815-2.099-3.815-3.896 0-1.791 1.292-3.883 3.815-3.883 2.522 0 3.814 2.092 3.814 3.883 0 1.797-1.285 3.896-3.814 3.896zm0-1.299c.43 0 .799-.116 1.162-.321.834-.479 1.169-1.436 1.169-2.276 0-.821-.342-1.812-1.169-2.277a2.351 2.351 0 00-1.162-.314c-.411 0-.814.116-1.163.314-.82.465-1.168 1.456-1.168 2.277 0 .84.334 1.797 1.175 2.276.356.205.725.321 1.156.321zm6.61 1.149c-1.354 0-1.702-.944-1.702-1.812v-8.415h1.47v8.299c0 .082 0 .171.006.253.007.082.021.15.041.212.048.102.123.171.328.171.199 0 .404-.014.602-.028h.144v1.285l-.13.007c-.253.014-.506.028-.759.028z" fill="#fff"/><path d="M335.531 143.969l5 5a.757.757 0 01.163.819.757.757 0 01-.163.244l-5 5a.751.751 0 01-1.063-1.063l4.469-4.469-4.47-4.469a.756.756 0 010-1.063.751.751 0 011.063 0l.001.001z" fill="#E8E8E8"/><g clip-path="url(#clip1_1_1411)"><path d="M46.073 187.634H487.97" stroke="#CCC" stroke-width=".525" stroke-linecap="round" stroke-dasharray="3.15 3.15"/><path d="M91.806 283.127c-18.63-3.977-38.815 1.657-46.577 4.971l-14.051 13.036-9.055 14.139h308.256V197.284l-23.166 9.163a47.175 47.175 0 01-24.008 2.839l-13.269-1.888a47.2 47.2 0 00-18.374 1.01l-45.836 14.213c-14.417 11.599-46.216 35.154-58.192 46.421-14.973 17.399-32.44 19.056-55.728 14.085z" fill="url(#paint4_linear_1_1411)"/><path d="M330.43 128.635v182.704" stroke="#CCC" stroke-linecap="round"/><path d="M479.206 121.022l-34.715 10.819a70.608 70.608 0 00-24.095 13.09l-24.475 20.324a70.635 70.635 0 01-17.201 10.54l-65.212 28.066a70.423 70.423 0 01-37.842 5.024l-1.206-.172a70.389 70.389 0 00-27.628 1.531l-26.165 6.767c-9.787 2.531-18.924 7.128-26.744 13.557-15.722 12.927-36.852 30.596-46.1 39.367-14.913 17.471-32.31 19.134-55.507 14.142-18.558-3.993-31.787-2.963-46.463 4.545-14.675 7.507-23.106 26.275-23.106 26.275" stroke="#121212" stroke-width="3" stroke-linecap="round"/><path d="M330.38 204.102c4.541 0 8.222-3.697 8.222-8.257s-3.681-8.256-8.222-8.256c-4.541 0-8.222 3.696-8.222 8.256 0 4.56 3.681 8.257 8.222 8.257z" fill="#000" stroke="#01FBB9" stroke-width=".525"/><path opacity=".1" d="M330.38 215.613c10.872 0 19.685-8.85 19.685-19.767 0-10.918-8.813-19.768-19.685-19.768-10.872 0-19.686 8.85-19.686 19.768 0 10.917 8.814 19.767 19.686 19.767z" fill="#000" stroke="#000" stroke-width=".525"/></g><rect x="162" y="199" width="58" height="20" rx="10" fill="#fff"/><path d="M175.502 210.381h-2.76V213h-1.254v-2.619h-2.765v-1.149h2.765v-2.625h1.254v2.625h2.76v1.149zm4.307 2.801c-.5 0-.955-.092-1.366-.276a2.853 2.853 0 01-1.037-.791c-.472-.562-.709-1.281-.709-2.156 0-.848.196-1.67.586-2.467a8.914 8.914 0 011.623-2.267 11.1 11.1 0 01.979-.903l.07-.052.029-.018 1.928-.1-.726.586c-1.059.852-1.868 1.719-2.426 2.602a3.486 3.486 0 011.195-.205c.633 0 1.182.148 1.647.445.468.293.824.672 1.066 1.137.242.465.363.947.363 1.447 0 .516-.131 1.006-.392 1.471a3.006 3.006 0 01-1.125 1.119c-.489.285-1.057.428-1.705.428zm.011-1.125c.399 0 .741-.084 1.026-.252.285-.168.5-.391.644-.668.145-.282.217-.59.217-.926v-.152a1.77 1.77 0 00-.164-.733 1.779 1.779 0 00-.445-.621 1.685 1.685 0 00-.557-.334 1.925 1.925 0 00-.674-.111c-.39 0-.728.086-1.013.258a1.67 1.67 0 00-.639.685 1.977 1.977 0 00-.217.92v.147c0 .07.01.148.029.234.039.23.102.437.188.621.09.18.219.344.387.492.339.293.746.44 1.218.44zm5.274 1.043a.882.882 0 01-.446-.112.782.782 0 01-.287-.287.774.774 0 01-.006-.744.771.771 0 01.288-.293.851.851 0 01.451-.117c.172 0 .32.039.445.117a.75.75 0 01.293.293c.066.117.1.24.1.369a.74.74 0 01-.106.375.763.763 0 01-.293.287.845.845 0 01-.439.112zm8.455-1.254V213h-6.199v-.926l3.486-3.053c.793-.695 1.189-1.392 1.189-2.091 0-.512-.134-.928-.404-1.248-.269-.321-.689-.481-1.26-.481-.39 0-.713.082-.966.246-.25.16-.432.395-.545.703a3.02 3.02 0 00-.112.545l-.023.188h-1.324l.017-.112c.031-.23.063-.419.094-.568.031-.148.076-.297.135-.445a2.47 2.47 0 011.013-1.237c.473-.296 1.043-.445 1.711-.445.657 0 1.207.127 1.653.381.445.25.777.588.996 1.014.219.425.328.9.328 1.424 0 .566-.147 1.093-.44 1.582-.289.488-.697.959-1.224 1.412l-2.274 1.957h4.149zm7.892-.955h-1.195V213h-1.277v-2.109h-4.307v-.932l4.442-5.713h1.142v5.496h1.195v1.149zm-5.086-1.149h2.614v-3.351l-2.614 3.351zm8.614.211c-.563 0-1.002-.154-1.319-.463a2.437 2.437 0 01-.65-1.113 5.116 5.116 0 010-2.619c.113-.434.328-.807.645-1.119.32-.313.761-.469 1.324-.469.562 0 1.002.156 1.318.469.317.312.531.685.645 1.119a5.157 5.157 0 010 2.619c-.114.43-.328.801-.645 1.113-.316.309-.756.463-1.318.463zm4.64-5.707h1.36L205.988 213h-1.371l4.992-8.754zm-4.64 4.606c.34 0 .584-.221.732-.663.102-.296.153-.671.153-1.125 0-.468-.047-.843-.141-1.125-.149-.441-.397-.662-.744-.662-.344 0-.59.223-.739.668-.101.293-.152.666-.152 1.119 0 .454.051.829.152 1.125.149.442.395.663.739.663zm5.654 4.218c-.566 0-1.008-.154-1.324-.463a2.393 2.393 0 01-.645-1.113 5.118 5.118 0 010-2.619c.114-.434.328-.805.645-1.113.32-.313.762-.469 1.324-.469.563 0 1.002.156 1.318.469.317.312.532.685.645 1.119a4.932 4.932 0 010 2.613c-.113.43-.328.801-.645 1.113-.316.309-.755.463-1.318.463zm0-1.095c.348 0 .596-.223.744-.668.098-.293.147-.668.147-1.125 0-.457-.049-.832-.147-1.125-.148-.442-.396-.662-.744-.662-.34 0-.584.222-.732.667-.102.293-.153.667-.153 1.12 0 .453.051.828.153 1.125.14.445.384.668.732.668z" fill="#111"/><rect x="140.6" y="28.579" width="88" height="24.8" rx="12.4" fill="#030303"/><rect x="207.8" y="33.379" width="15.2" height="15.2" rx="7.6" fill="#0E0B0F"/><rect x="211" y="36.579" width="8.8" height="8.8" rx="4.4" fill="#161424"/><rect x="212.6" y="38.179" width="4.8" height="4.8" rx="2.4" fill="#0F0F2A"/><rect x="215" y="38.98" width="1.6" height="1.6" rx=".8" fill="#393752"/><g clip-path="url(#clip2_1_1411)"><g clip-path="url(#clip3_1_1411)"><path opacity=".35" d="M291 36.202h13.6a2.778 2.778 0 012.778 2.779v4a2.778 2.778 0 01-2.778 2.778H291a2.778 2.778 0 01-2.778-2.779v-4A2.778 2.778 0 01291 36.203z" stroke="#fff" stroke-width=".844" stroke-miterlimit="10"/><path opacity=".4" d="M308.6 39.78v3.376a1.832 1.832 0 000-3.376z" fill="#fff"/><path d="M289.4 38.98a1.6 1.6 0 011.6-1.6h13.6a1.6 1.6 0 011.6 1.6v4a1.6 1.6 0 01-1.6 1.6H291a1.6 1.6 0 01-1.6-1.6v-4zm-18.502 1.032a.27.27 0 01-.385-.003l-1.03-1.06a.298.298 0 01.002-.414 9.564 9.564 0 0113.429-.001.298.298 0 01.003.414l-1.03 1.06a.27.27 0 01-.386.004 7.61 7.61 0 00-5.3-2.162 7.615 7.615 0 00-5.303 2.162zm2.399 2.26a.271.271 0 01-.385-.005l-1.028-1.06a.3.3 0 01.003-.418 6.283 6.283 0 018.685 0 .296.296 0 01.004.418l-1.028 1.06a.273.273 0 01-.386.005 4.32 4.32 0 00-2.933-1.154 4.324 4.324 0 00-2.932 1.154zm5.023.983a.292.292 0 01-.084.21l-1.779 1.831a.275.275 0 01-.395 0l-1.779-1.832a.29.29 0 01.009-.416 3 3 0 013.935 0 .288.288 0 01.093.206zM257.4 38.18a.8.8 0 01.8-.8h.8a.8.8 0 01.8.8v6.4a.8.8 0 01-.8.8h-.8a.8.8 0 01-.8-.8v-6.4zm4-1.6a.8.8 0 01.8-.8h.8a.8.8 0 01.8.8v8a.8.8 0 01-.8.8h-.8a.8.8 0 01-.8-.8v-8zm-8 4.4a.8.8 0 01.8-.8h.8a.8.8 0 01.8.8v3.6a.8.8 0 01-.8.8h-.8a.8.8 0 01-.8-.8v-3.6zm-4 2a.8.8 0 01.8-.8h.8a.8.8 0 01.8.8v1.6a.8.8 0 01-.8.8h-.8a.8.8 0 01-.8-.8v-1.6z" fill="#fff"/></g></g><path d="M79.902 36.07c.449.003.886.083 1.31.238.428.153.813.403 1.155.752.342.345.614.807.815 1.387.202.58.302 1.298.302 2.154.004.806-.082 1.527-.256 2.162-.171.632-.417 1.166-.738 1.603-.32.437-.707.77-1.159.999-.452.229-.96.343-1.525.343-.593 0-1.118-.116-1.576-.348a2.96 2.96 0 01-1.104-.953 3.03 3.03 0 01-.518-1.383h1.672c.086.373.26.669.523.889.265.216.6.325 1.003.325.65 0 1.151-.283 1.502-.848.352-.565.527-1.35.527-2.354h-.064c-.15.268-.344.5-.582.696-.238.193-.508.34-.81.444-.3.104-.617.156-.953.156-.55 0-1.045-.131-1.485-.394a2.875 2.875 0 01-1.04-1.08c-.253-.459-.381-.983-.384-1.572 0-.611.14-1.16.421-1.645.284-.488.68-.873 1.187-1.154.507-.284 1.1-.423 1.777-.417zm.005 1.374c-.33 0-.628.081-.894.243-.262.159-.47.376-.623.65-.15.272-.224.576-.224.912.003.333.078.635.224.907.15.272.353.487.61.646.26.159.555.238.888.238a1.689 1.689 0 001.25-.536c.163-.17.288-.365.377-.581a1.69 1.69 0 00.132-.688c0-.32-.076-.617-.229-.888a1.769 1.769 0 00-.618-.655 1.63 1.63 0 00-.893-.248zm5.503 7.01a.982.982 0 01-.715-.294.959.959 0 01-.293-.715.939.939 0 01.293-.705.982.982 0 01.715-.293.96.96 0 01.7.293.963.963 0 01.161 1.214 1.053 1.053 0 01-.367.366.953.953 0 01-.494.133zm0-4.65a.982.982 0 01-.715-.294.959.959 0 01-.293-.714.94.94 0 01.293-.706.975.975 0 01.715-.298c.269 0 .502.1.7.298.202.196.305.43.308.706a1.054 1.054 0 01-.513.87.93.93 0 01-.495.138zm1.892 4.035v-1.351l3.98-6.29h1.128v1.924h-.688l-2.68 4.247v.073H94.6v1.397h-7.297zm4.475 1.741v-2.153l.019-.605v-6.624h1.603v9.382h-1.621zm7.336-9.382v9.382h-1.7v-7.728h-.055l-2.194 1.402v-1.558l2.332-1.498h1.617z" fill="#fff"/><path fill-rule="evenodd" clip-rule="evenodd" d="M217.875 322.877l-23.224 21.435 15.718 13.297c2.904 2.458 7.506.109 7.506-3.613v-31.119zm-5.004-28.947a4.322 4.322 0 00-2.502.953l-23.405 19.801h-6.089c-3.804 0-6.937 3.133-6.937 6.937v9.25c0 3.804 3.133 6.938 6.937 6.938h6.089l.573.487-15.167 14.002a2.312 2.312 0 003.135 3.396c20.044-18.498 40.084-36.999 60.125-55.5a2.312 2.312 0 00-3.135-3.396l-14.62 13.495v-11.797c0-2.749-2.511-4.694-5.004-4.566z" fill="#fff"/><defs><linearGradient id="paint0_linear_1_1411" x1="186" y1="210" x2="186" y2="53.719" gradientUnits="userSpaceOnUse"><stop stop-color="#01FBB9"/><stop offset="1" stop-color="#002B1F"/></linearGradient><linearGradient id="paint1_linear_1_1411" x1="286.641" y1="140.581" x2="278.913" y2="156.047" gradientUnits="userSpaceOnUse"><stop stop-color="#00FFA3"/><stop offset="1" stop-color="#DC1FFF"/></linearGradient><linearGradient id="paint2_linear_1_1411" x1="286.641" y1="140.581" x2="278.913" y2="156.047" gradientUnits="userSpaceOnUse"><stop stop-color="#00FFA3"/><stop offset="1" stop-color="#DC1FFF"/></linearGradient><linearGradient id="paint3_linear_1_1411" x1="286.641" y1="140.581" x2="278.913" y2="156.047" gradientUnits="userSpaceOnUse"><stop stop-color="#00FFA3"/><stop offset="1" stop-color="#DC1FFF"/></linearGradient><linearGradient id="paint4_linear_1_1411" x1="187.542" y1="202.602" x2="187.619" y2="315.312" gradientUnits="userSpaceOnUse"><stop stop-opacity=".4"/><stop offset="1" stop-color="#D9D9D9" stop-opacity="0"/></linearGradient><clipPath id="clip0_1_1411"><path fill="#fff" transform="translate(27 94.5)" d="M0 0h20v20H0z"/></clipPath><clipPath id="clip1_1_1411"><path fill="#fff" transform="translate(19 89.367)" d="M0 0h469v259H0z"/></clipPath><clipPath id="clip2_1_1411"><path fill="#fff" transform="translate(249.4 35.78)" d="M0 0h60.8v10.4H0z"/></clipPath><clipPath id="clip3_1_1411"><path fill="#fff" transform="translate(249.4 35.78)" d="M0 0h60.8v10.4H0z"/></clipPath><filter id="filter1_d_1_1411" x="63.307" y="428.64" width="55.095" height="55.095" filterUnits="userSpaceOnUse" color-interpolation-filters="sRGB"><feFlood flood-opacity="0" result="BackgroundImageFix"/><feColorMatrix in="SourceAlpha" values="0 0 0 0 0 0 0 0 0 0 0 0 0 0 0 0 0 0 127 0" result="hardAlpha"/><feOffset dy="4"/><feGaussianBlur stdDeviation="6"/><feComposite in2="hardAlpha" operator="out"/><feColorMatrix values="0 0 0 0 0 0 0 0 0 0 0 0 0 0 0 0 0 0 0.1 0"/><feBlend in2="BackgroundImageFix" result="effect1_dropShadow_1_1411"/><feBlend in="SourceGraphic" in2="effect1_dropShadow_1_1411" result="shape"/></filter><filter id="filter3_d_1_1411" x="63.307" y="479.776" width="55.095" height="55.095" filterUnits="userSpaceOnUse" color-interpolation-filters="sRGB"><feFlood flood-opacity="0" result="BackgroundImageFix"/><feColorMatrix in="SourceAlpha" values="0 0 0 0 0 0 0 0 0 0 0 0 0 0 0 0 0 0 127 0" result="hardAlpha"/><feOffset dy="4"/><feGaussianBlur stdDeviation="6"/><feComposite in2="hardAlpha" operator="out"/><feColorMatrix values="0 0 0 0 0 0 0 0 0 0 0 0 0 0 0 0 0 0 0.1 0"/><feBlend in2="BackgroundImageFix" result="effect1_dropShadow_1_1411"/><feBlend in="SourceGraphic" in2="effect1_dropShadow_1_1411" result="shape"/></filter></defs></svg>