<svg width="751" height="601" viewBox="0 0 751 601" fill="none" xmlns="http://www.w3.org/2000/svg"><path d="M138.992 196.637c-32.031 0-53.613-17.774-56.054-45.801l-.196-1.856H101.2l.196 1.563c.878 8.398 4.199 15.527 11.035 21.387 7.129 6.152 16.504 8.398 26.562 8.398 7.715 0 15.723-1.074 22.266-4.199 9.277-4.492 15.039-11.719 15.039-20.996 0-5.567-1.953-10.645-6.152-14.746-3.321-3.223-10.547-5.664-15.918-7.129-7.325-2.149-15.235-3.613-23.145-5.176-7.91-1.562-15.918-3.223-22.949-5.957-14.356-5.371-25-14.648-25-33.984 0-27.149 28.613-41.797 55.859-41.797 32.031 0 53.711 17.968 56.055 45.996l.195 1.855h-18.457l-.195-1.66c-1.856-18.554-16.406-29.883-37.598-29.883-7.715 0-15.625 1.075-22.168 4.297-9.375 4.492-15.136 11.621-15.136 20.996 0 5.567 1.855 10.645 6.152 14.649 3.32 3.32 10.547 5.664 15.82 7.226 7.324 2.051 15.332 3.516 23.242 5.078 7.91 1.563 15.821 3.321 22.95 5.957 14.355 5.372 25 14.747 25 34.083 0 27.05-28.614 41.699-55.86 41.699zm87.356-125.781c-7.129 0-11.621-5.47-11.621-11.036 0-5.664 4.296-11.133 11.621-11.133 7.324 0 11.816 5.47 11.816 11.133 0 5.567-4.785 11.036-11.816 11.036zm8.593 15.625V194h-17.187V86.48h17.187zm45.266 107.714c-17.773 0-22.559-12.304-22.559-24.707v-120.8h17.188v119.14c0 3.223.195 5.957 1.172 8.008.879 1.66 2.441 2.93 6.25 2.93 2.246 0 4.492-.196 6.64-.293l2.149-.098v15.43l-1.953.097c-2.93.196-5.86.293-8.887.293zm69.191 2.149c-34.472 0-54.492-27.539-54.492-54.981 0-27.441 20.02-54.882 54.492-54.882 34.375 0 54.395 27.441 54.395 54.882 0 1.563-.098 3.028-.293 4.59l-.195 1.563h-90.528c2.149 17.871 15.235 33.3 36.621 33.3 13.672 0 24.707-6.445 31.055-17.089 1.66-2.832 1.953-3.809 3.223-6.934l1.367-3.223 16.211 4.688-.586 1.66c-.195.586-.293 1.27-.586 1.855-7.52 19.825-25.879 34.571-50.684 34.571zm-36.132-64.453h72.07c-3.223-16.504-16.113-29.981-35.938-29.981-20.117 0-32.617 13.477-36.132 29.981zm127.296-5.371V194h-17.187V86.48h17.187v6.25c8.008-4.687 18.946-6.25 27.637-6.25 12.891 0 24.61 2.344 33.692 11.622 8.105 8.3 11.132 18.457 11.132 29.101V194h-17.187v-64.062c0-17.481-7.031-28.223-27.637-28.223-8.301 0-16.113 1.562-21.094 7.031-4.101 4.395-6.543 11.914-6.543 17.774zm129.836 67.675c-17.773 0-22.558-12.207-22.558-24.707V101.91h-21.192V86.48h21.192V44h17.187v42.48h21.875v15.43h-21.875v65.918c0 7.227.586 10.938 8.106 10.938 3.906 0 7.812-.098 11.719-.293l2.148-.098v15.234l-1.855.098c-4.883.293-9.864.488-14.747.488z" fill="url(#paint0_linear_85_718)" fill-opacity=".26"/><rect x="231" y="440.754" width="253" height="50.374" rx="11.307" fill="#000" fill-opacity=".04"/><g filter="url(#filter1_d_85_718)"><rect x="242.307" y="450.394" width="31.095" height="31.095" rx="15.547" fill="#5378DF"/><path d="M266.042 458.253a7.414 7.414 0 012.136.284c.099.02.192.063.272.125.304.182.522.477.605.818a1.3 1.3 0 01-.163.999c-.253.372-.631.413-1.03.413h-3.302c.169.41.291.837.362 1.274.083.477.127.973.189 1.47v.85h2.61c.197-.007.393.006.587.041.461.084.733.331.755.764v1.239c-.02.434-.294.683-.755.767-.194.034-.39.048-.587.041h-2.644v.844c-.064.495-.106.992-.189 1.466a5.826 5.826 0 01-.377 1.291h3.35c.398 0 .776.041 1.029.415.187.299.246.659.163 1.001a1.323 1.323 0 01-.605.82.678.678 0 01-.27.13c-.697.2-1.42.297-2.145.288l-.291.006-.582.011c-2.422.043-4.824.052-6.653.054h-.632c-2.455 0-5.75-.035-8.239-.085a7.427 7.427 0 01-2.138-.289.668.668 0 01-.272-.124 1.323 1.323 0 01-.606-.818 1.298 1.298 0 01.164-1c.251-.372.629-.413 1.028-.413h3.306a5.718 5.718 0 01-.362-1.274c-.085-.476-.127-.973-.189-1.47v-.857h-2.61a2.744 2.744 0 01-.587-.041c-.461-.082-.733-.329-.756-.765v-1.237c.021-.435.293-.682.756-.766.198-.036.4-.049.602-.041h2.644v-.852c.062-.496.104-.991.189-1.468.073-.442.2-.875.377-1.289h-3.365c-.398 0-.778-.042-1.029-.414a1.306 1.306 0 01.44-1.822.67.67 0 01.274-.124 7.455 7.455 0 012.143-.277l.291-.006.582-.011c2.424-.043 4.826-.052 6.654-.054h.633c2.455 0 5.75.033 8.237.086zm-4.564 9.085h-7.232c-.38.002-.377.036-.339.476.015.438.071.874.168 1.302a1.995 1.995 0 001.511 1.51 9.221 9.221 0 002.077.291 9.864 9.864 0 002.395-.298 1.995 1.995 0 001.51-1.507c.098-.428.154-.864.169-1.302.032-.402.034-.457-.259-.472zm-3.464-6.437a9.824 9.824 0 00-2.383.3 1.996 1.996 0 00-1.51 1.507 7.14 7.14 0 00-.168 1.302c-.034.402-.038.463.254.472h7.234c.38-.003.377-.036.339-.476a7.177 7.177 0 00-.178-1.304 2.005 2.005 0 00-1.51-1.512 9.163 9.163 0 00-2.078-.289z" fill="#F8F8F8"/></g><path d="M288.545 458.551v1.27h-6.046v-8.281h6.046v1.275h-4.588v2.175h3.859v1.27h-3.859v2.291h4.588zm2.678-2.291v3.561h-1.458v-8.281h6.046v1.275h-4.588v2.175h3.859v1.27h-3.859zm9.038 2.325v1.236h-3.23v-1.236h.872v-5.809h-.872v-1.236h3.23v1.236h-.878v5.809h.878z" fill="#000"/><rect x="305.123" y="451.821" width="43.109" height="8" rx="4" fill="#5378DF"/><path d="M314.638 458.245v.576h-3.541v-5.134h3.541v.576h-2.923v1.667h2.46v.576h-2.46v1.739h2.923zm2.305.583c-.628 0-.797-.431-.797-.873v-2.388h-.749v-.545h.749v-1.501h.607v1.501h.773v.545h-.773v2.33c0 .255.021.386.286.386.138 0 .276-.003.415-.01l.075-.004v.538l-.065.004c-.173.01-.349.017-.521.017zm1.953-2.391v2.384h-.607v-5.134h.607v1.556c.283-.166.669-.221.976-.221.456 0 .87.083 1.191.411.286.293.393.652.393 1.028v2.36h-.607v-2.263c0-.618-.248-.998-.977-.998-.293 0-.569.056-.745.249-.145.155-.231.421-.231.628zm5.038 2.467c-1.218 0-1.926-.973-1.926-1.943 0-.969.708-1.939 1.926-1.939 1.215 0 1.922.97 1.922 1.939 0 .056-.003.107-.01.163l-.007.055h-3.199c.076.631.538 1.176 1.294 1.176.483 0 .873-.227 1.097-.603.059-.1.069-.135.114-.245l.048-.114.573.165-.02.059c-.007.021-.011.045-.021.066a1.87 1.87 0 01-1.791 1.221zm-1.277-2.277h2.547c-.114-.584-.57-1.06-1.27-1.06-.711 0-1.153.476-1.277 1.06zm4.569-.19v2.384h-.607v-3.799h.607v.217c.304-.176.711-.217 1.045-.217h.069v.538h-.072c-.317-.003-.614.038-.811.249-.145.155-.231.421-.231.628zm3.147 2.467c-1.218 0-1.926-.973-1.926-1.943 0-.969.708-1.939 1.926-1.939 1.215 0 1.922.97 1.922 1.939 0 .056-.003.107-.01.163l-.007.055h-3.199c.076.631.538 1.176 1.294 1.176.483 0 .873-.227 1.097-.603.059-.1.069-.135.114-.245l.048-.114.573.165-.02.059c-.007.021-.011.045-.021.066a1.87 1.87 0 01-1.791 1.221zm-1.277-2.277h2.547c-.114-.584-.57-1.06-1.27-1.06-.711 0-1.153.476-1.277 1.06zm5.545 2.194c-.452 0-.876-.083-1.193-.41-.287-.294-.39-.663-.39-1.032v-2.357h.607v2.264c0 .614.248.997.976.997.29 0 .566-.062.746-.252.141-.152.228-.424.228-.628v-2.381h.61v3.799h-.61v-.224c-.28.166-.67.224-.974.224zm2.954-2.263v2.263h-.611v-3.799h.608v.235c.259-.162.562-.221.873-.221.466 0 .89.159 1.159.497.273-.345.694-.497 1.167-.497.966 0 1.466.642 1.466 1.425v2.36h-.611v-2.263c0-.542-.214-.991-.869-.991-.097 0-.207.018-.3.045-.435.135-.553.549-.553.946v2.263h-.603v-2.263c0-.539-.221-.991-.873-.991-.097 0-.207.018-.301.045-.431.135-.552.549-.552.946z" fill="#F8F8F8"/><path d="M285.384 479.174v1.013h-.565v-1c-1.297-.067-2.059-.736-2.234-1.96l-.014-.099h.637l.009.076c.126.884.678 1.351 1.602 1.4v-2.696l-.063-.018c-.965-.26-1.875-.74-1.875-1.848 0-.233.054-.458.139-.669.193-.471.65-.821 1.153-.964a3.44 3.44 0 01.646-.117v-1.009h.565v1.009c1.216.099 1.848.862 1.974 1.97l.013.094h-.637l-.009-.076a1.832 1.832 0 00-.229-.696c-.233-.408-.632-.637-1.112-.709v2.557l.018.005c1.005.274 1.974.713 1.974 1.888 0 .22-.027.436-.117.646-.072.18-.179.359-.309.512-.162.188-.404.341-.615.444-.292.148-.633.215-.951.247zm-.565-3.894v-2.409c-.758.063-1.306.395-1.306 1.153 0 .323.09.596.346.803.246.202.619.35.96.453zm.565.789v2.522c.754-.086 1.359-.467 1.359-1.221 0-.332-.09-.619-.35-.834-.26-.211-.655-.363-1.009-.467zm5.141 3.221c-1.337 0-2.301-1.485-2.301-3.526 0-2.036.964-3.521 2.301-3.521 1.341 0 2.301 1.48 2.301 3.521s-.96 3.526-2.301 3.526zm0-.489c1.063-.053 1.817-1.31 1.817-3.037 0-1.722-.759-2.978-1.817-3.032-1.059.054-1.817 1.31-1.817 3.032 0 1.723.758 2.984 1.817 3.037zm4.374-.569l-.696 1.727h-.569l.52-1.727h.745zm3.315 1.058c-1.337 0-2.302-1.485-2.302-3.526 0-2.036.965-3.521 2.302-3.521 1.341 0 2.301 1.48 2.301 3.521s-.96 3.526-2.301 3.526zm0-.489c1.063-.053 1.816-1.31 1.816-3.037 0-1.722-.758-2.978-1.816-3.032-1.059.054-1.817 1.31-1.817 3.032 0 1.723.758 2.984 1.817 3.037zm5.58.395c-1.251 0-2.27-.682-2.27-1.947 0-.691.386-1.323 1.037-1.642-.557-.332-.848-.901-.848-1.52 0-.234.045-.467.134-.682.314-.79 1.117-1.126 1.947-1.126.247 0 .494.036.731.094a1.743 1.743 0 011.351 1.714c0 .619-.292 1.188-.853 1.52a1.819 1.819 0 011.037 1.642c0 1.265-1.014 1.947-2.266 1.947zm0-3.835c.852 0 1.449-.458 1.449-1.274 0-.817-.606-1.229-1.449-1.229-.848 0-1.449.408-1.449 1.229 0 .821.588 1.274 1.449 1.274zm0 3.256c.933 0 1.615-.466 1.615-1.368 0-.901-.686-1.328-1.615-1.328-.928 0-1.619.422-1.619 1.328 0 .906.686 1.368 1.619 1.368z" fill="#000"/><path d="M314.652 477.48v2.082h-.61v-2.082h-2.158v-.597h2.158v-2.09h.61v2.09h2.153v.597h-2.153zm5.23 2.31c-1.337 0-2.301-1.485-2.301-3.526 0-2.036.964-3.521 2.301-3.521 1.342 0 2.302 1.48 2.302 3.521s-.96 3.526-2.302 3.526zm0-.489c1.063-.053 1.817-1.31 1.817-3.037 0-1.722-.758-2.978-1.817-3.032-1.058.054-1.816 1.31-1.816 3.032 0 1.723.758 2.984 1.816 3.037zm3.827.337a.45.45 0 01-.467-.453c0-.247.175-.462.467-.462a.457.457 0 110 .915zm3.799.152c-1.336 0-2.301-1.485-2.301-3.526 0-2.036.965-3.521 2.301-3.521 1.342 0 2.302 1.48 2.302 3.521s-.96 3.526-2.302 3.526zm0-.489c1.064-.053 1.817-1.31 1.817-3.037 0-1.722-.758-2.978-1.817-3.032-1.058.054-1.816 1.31-1.816 3.032 0 1.723.758 2.984 1.816 3.037zm7.667-.332v.593h-3.822v-.593h1.592v-5.432h-1.592v-.624h2.229v6.056h1.593zm2.898-1.834c-1.252 0-1.485-1.306-1.485-2.136 0-.834.233-2.144 1.485-2.144 1.247 0 1.48 1.314 1.48 2.144 0 .83-.229 2.136-1.48 2.136zm4.387-4.222l-3.705 6.649h-.66l3.714-6.649h.651zm-4.387 3.665c.372 0 .592-.228.717-.556.131-.327.157-.731.157-1.023 0-.296-.026-.699-.152-1.031-.13-.323-.346-.552-.722-.552-.373 0-.592.229-.723.556-.13.328-.157.731-.157 1.027 0 .292.027.696.157 1.023.131.328.35.556.723.556zm4.414 3.037c-1.252 0-1.485-1.301-1.485-2.135 0-.839.233-2.14 1.485-2.14 1.247 0 1.485 1.306 1.485 2.14 0 .83-.238 2.135-1.485 2.135zm0-.551c.377 0 .596-.234.722-.557.13-.332.157-.735.157-1.027 0-.296-.027-.7-.157-1.027-.126-.328-.345-.556-.722-.556-.373 0-.592.228-.718.556-.13.327-.157.731-.157 1.027 0 .292.027.695.157 1.027.126.323.345.557.718.557z" fill="#2F8600"/><path d="M382.409 477.248l3.857-2.155 1.231-3.498 1.764 1.627 5.21-18.588 2.954 13.869 2.831-6.263 3.98 9.355 1.969-2.847 1.559 1.098 2.913-6.427" stroke="#10BE00" stroke-width="1.413" stroke-linecap="round" stroke-linejoin="round"/><path d="M429.485 461.413v1.073h-.99v-1.049c-1.551-.14-2.223-1.072-2.372-2.265l-.01-.097-.01-.087h1.063l.01.072c.072.754.42 1.319 1.319 1.44v-2.493c-1.174-.338-2.044-.903-2.044-2.053 0-.256.058-.507.16-.749.309-.715 1.019-1.101 1.884-1.207v-1.063h.99v1.063c1.015.135 1.647.695 1.932 1.492.097.285.136.575.179.865l.015.092h-1.073l-.019-.15a2.049 2.049 0 00-.077-.396 1.332 1.332 0 00-.957-.942v2.319c1.208.343 2.102.889 2.102 2.082 0 1.101-.812 1.879-2.102 2.053zm-.99-4.415v-2.068c-.643.106-.986.435-.986 1.005 0 .29.068.517.305.715.169.14.434.261.681.348zm.99 1.294v2.179c.647-.13 1.044-.493 1.044-1.068 0-.289-.068-.546-.31-.748-.178-.145-.468-.271-.734-.363zm6.411 2.087h1.676v.942h-4.425v-.942h1.681v-5.299h-1.681v-.976h2.749v6.275zm5.575 1.078c-1.57 0-2.59-.899-2.59-2.179 0-.648.319-1.309.957-1.715a1.936 1.936 0 01-.754-1.561c0-1.174.937-2.038 2.387-2.038 1.454 0 2.396.869 2.396 2.038 0 .575-.237 1.16-.763 1.561.632.406.961 1.067.961 1.715 0 1.285-1.015 2.179-2.594 2.179zm0-4.3c.86 0 1.338-.454 1.338-1.155 0-.7-.488-1.111-1.338-1.111-.851 0-1.329.406-1.329 1.111 0 .706.469 1.155 1.329 1.155zm0 3.372c.951 0 1.512-.464 1.512-1.251 0-.788-.565-1.208-1.512-1.208-.942 0-1.512.42-1.512 1.208 0 .787.56 1.251 1.512 1.251zm6.237.894c-1.459 0-2.508-1.575-2.508-3.735 0-2.154 1.049-3.729 2.508-3.729 1.458 0 2.507 1.575 2.507 3.729 0 2.16-1.049 3.735-2.507 3.735zm0-.908c.937-.049 1.608-1.218 1.608-2.827 0-1.599-.671-2.773-1.608-2.821-.938.048-1.609 1.222-1.609 2.821 0 1.599.676 2.778 1.609 2.827zm5.444-.145h3.42v.951h-5.111v-.763l2.875-2.517c.55-.483.98-1.063.98-1.725 0-.777-.376-1.425-1.372-1.425-.647 0-1.062.276-1.246.783a2.06 2.06 0 00-.092.449l-.019.155h-1.092l.015-.092c.038-.275.077-.56.188-.836.333-.86 1.135-1.386 2.246-1.386 1.686 0 2.454 1.067 2.454 2.323 0 .991-.574 1.783-1.372 2.469l-1.874 1.614zm5.024-.237h1.208l-.87 2.116h-.99l.652-2.116zm4.058.237h3.421v.951h-5.112v-.763l2.875-2.517c.551-.483.981-1.063.981-1.725 0-.777-.377-1.425-1.372-1.425-.648 0-1.063.276-1.247.783a2.12 2.12 0 00-.092.449l-.019.155h-1.092l.015-.092c.038-.275.077-.56.188-.836.334-.86 1.135-1.386 2.247-1.386 1.686 0 2.454 1.067 2.454 2.323 0 .991-.575 1.783-1.372 2.469l-1.875 1.614zm7.179 1.087c-1.57 0-2.589-.899-2.589-2.179v-.251h1.077v.251c0 .782.565 1.251 1.512 1.251.952 0 1.512-.464 1.512-1.251 0-.788-.565-1.208-1.512-1.208h-.807v-.913h.807c.855 0 1.338-.459 1.338-1.155 0-.7-.488-1.111-1.338-1.111-.85 0-1.328.406-1.328 1.111v.256h-1.058v-.256c0-1.178.937-2.038 2.386-2.038s2.396.869 2.396 2.038c0 .575-.236 1.16-.763 1.561.633.406.961 1.067.961 1.715 0 1.285-1.014 2.179-2.594 2.179z" fill="#000"/><path d="M457.609 479.687c-1.458 0-2.405-.834-2.405-2.023v-.233h1.001v.233c0 .727.524 1.162 1.404 1.162.883 0 1.404-.431 1.404-1.162 0-.731-.525-1.121-1.404-1.121h-.75v-.848h.75c.794 0 1.242-.426 1.242-1.072 0-.651-.453-1.032-1.242-1.032-.79 0-1.234.377-1.234 1.032v.237h-.982v-.237c0-1.095.87-1.894 2.216-1.894 1.345 0 2.225.808 2.225 1.894 0 .533-.22 1.076-.709 1.448.587.377.893.992.893 1.593 0 1.193-.943 2.023-2.409 2.023zm8.393-1.74h-.915v1.615h-.978v-1.615h-3.297v-.714l3.4-4.373h.875v4.207h.915v.88zm-3.894-.88h2.001v-2.566l-2.001 2.566zm6.339 1.611h3.176v.884h-4.747v-.709l2.67-2.337c.511-.449.91-.987.91-1.602 0-.722-.35-1.323-1.274-1.323-.601 0-.987.255-1.157.726-.049.14-.067.274-.085.418l-.018.143h-1.014l.013-.085c.036-.256.072-.52.175-.776.31-.799 1.054-1.288 2.086-1.288 1.566 0 2.279.992 2.279 2.158 0 .92-.534 1.656-1.274 2.293l-1.74 1.498z" fill="#7D7D7D"/><rect x="231" y="494.463" width="253" height="45.229" rx="11.307" fill="#000" fill-opacity=".04"/><g filter="url(#filter3_d_85_718)"><rect x="242.307" y="501.53" width="31.095" height="31.095" rx="15.547" fill="#F5B300" shape-rendering="crispEdges"/><path d="M252.392 508.679c.571.155 1.142.259 1.713.415.571.156 1.142.259 1.713.415.156.052.208 0 .259-.156.208-.882.416-1.712.623-2.595.052-.156.104-.207.26-.156.519.156.986.26 1.505.364.156.052.156.104.104.207-.208.831-.415 1.713-.623 2.544 0 .052 0 .104-.052.207.415.104.883.208 1.298.312.052 0 .104-.104.156-.156.155-.675.311-1.297.519-1.972l.155-.623c0-.104.052-.156.156-.104.519.156 1.038.26 1.609.415.052 0 .052.052.104.052-.156.675-.312 1.298-.467 1.921-.052.259-.104.519-.208.778-.052.156 0 .208.156.26l1.713.778c.519.312.986.727 1.349 1.246.467.779.519 1.609.312 2.44-.156.571-.364 1.09-.779 1.505-.311.311-.727.519-1.142.675-.052 0-.104.052-.207.052.207.155.415.259.622.415.623.467 1.039 1.038 1.246 1.765.104.571.052 1.194-.104 1.765-.207.726-.467 1.349-.934 1.92-.571.675-1.298 1.038-2.128 1.142-1.09.156-2.128.052-3.166-.104-.156-.052-.26 0-.312.156-.207.83-.415 1.713-.623 2.543-.052.208-.052.26-.311.156-.467-.104-.986-.259-1.453-.363-.156-.052-.156-.104-.104-.208.207-.882.415-1.765.675-2.595 0-.104.051-.156-.052-.208a49.936 49.936 0 00-1.298-.311c-.104.467-.26.934-.363 1.401-.104.467-.26.935-.364 1.402-.052.103-.052.155-.207.103a17.163 17.163 0 00-1.557-.363c-.156-.052-.156-.104-.104-.207.207-.883.415-1.765.674-2.596 0-.052.052-.104.052-.207a355.079 355.079 0 00-3.633-.935c.104-.207.156-.363.259-.571.208-.467.416-.934.571-1.349.052-.156.104-.156.26-.156.363.104.779.208 1.142.26.415.103.727-.104.779-.468.674-2.647 1.349-5.294 1.972-7.993.104-.415-.156-.883-.623-1.038-.467-.156-.934-.26-1.349-.364-.104 0-.156-.051-.104-.155.155-.571.311-1.194.467-1.765-.208.156-.208.156-.156.104zm2.647 12.821c.052 0 .104.051.104.051.831.208 1.713.468 2.595.519.623.052 1.194.052 1.765-.155.986-.312 1.402-1.609.831-2.44-.26-.415-.675-.675-1.09-.934-.935-.519-2.025-.727-3.063-.934-.155-.052-.155 0-.207.155-.104.519-.26.986-.364 1.506-.207.726-.363 1.453-.571 2.232zm4.36-5.295c.104 0 .364-.052.571-.104.987-.207 1.506-1.349.987-2.232-.26-.467-.727-.778-1.194-.986-.727-.311-1.454-.467-2.232-.675-.156-.052-.208 0-.26.156a73.123 73.123 0 01-.83 3.218c-.052.104 0 .156.104.208.207.052.363.104.571.156.778.103 1.453.259 2.283.259z" fill="#140903"/></g><path d="M286.416 513.458h-3.528v-8.282h3.484c.817 0 1.661.144 2.258.641.563.475.762 1.115.762 1.722a2.08 2.08 0 01-.818 1.679 2.133 2.133 0 011.016 1.816c0 1.535-1.17 2.424-3.174 2.424zm0-7.006h-2.071v2.175h2.071c1.043 0 1.512-.282 1.512-1.088 0-.789-.491-1.087-1.512-1.087zm.071 3.445h-2.142v2.291h2.131c1.055 0 1.651-.331 1.651-1.154 0-.806-.602-1.137-1.64-1.137zm7.901-3.445v7.006h-1.463v-7.006h-2.617v-1.276h6.714v1.276h-2.634zm7.272 7.155c-.503 0-1-.072-1.464-.215-2.081-.641-2.843-2.551-2.843-4.075 0-1.297.552-2.909 2.032-3.721a4.62 4.62 0 012.275-.58c2.523 0 3.964 1.701 4.196 3.407l.016.116h-1.463l-.028-.078c-.027-.071-.044-.149-.066-.226a2.553 2.553 0 00-.237-.618c-.425-.795-1.276-1.359-2.418-1.359a2.87 2.87 0 00-1.11.216c-1.27.53-1.712 1.772-1.712 2.843 0 1.055.447 2.33 1.706 2.838a2.9 2.9 0 001.116.21c1.148 0 1.993-.552 2.423-1.353a2.79 2.79 0 00.232-.607c.022-.077.028-.149.044-.227l.022-.082h1.491l-.016.11c-.238 1.712-1.668 3.401-4.196 3.401z" fill="#000"/><rect x="311.123" y="505.458" width="40.989" height="8" rx="4" fill="#F5B300"/><path d="M322.856 512.458h-2.091v-5.135h2.064c.455 0 .969.076 1.325.38.324.276.445.652.445 1.032 0 .372-.152.769-.494 1.021a2.136 2.136 0 01-.124.079c.487.235.742.691.742 1.174 0 1.028-.814 1.449-1.867 1.449zm0-4.558h-1.473v1.666h1.473c.69 0 1.122-.193 1.122-.831 0-.625-.442-.835-1.122-.835zm.045 2.243h-1.518v1.739h1.511c.697 0 1.211-.225 1.211-.873 0-.639-.517-.866-1.204-.866zm2.788-2.036a.396.396 0 01-.41-.39c0-.2.151-.394.41-.394a.4.4 0 01.418.394c0 .196-.169.39-.418.39zm.304.552v3.799h-.607v-3.799h.607zm2.212 3.806c-.628 0-.797-.431-.797-.873v-2.388h-.749v-.545h.749v-1.501h.607v1.501h.773v.545h-.773v2.329c0 .256.021.387.286.387.138 0 .276-.004.414-.011l.076-.003v.538l-.065.004c-.173.01-.349.017-.521.017zm2.805.072c-1.201 0-1.874-1-1.874-1.939 0-.939.673-1.939 1.874-1.939.752 0 1.318.393 1.625.966.083.155.142.314.187.476l.038.155h-.628l-.011-.048c-.096-.335-.252-.645-.579-.831a1.297 1.297 0 00-.632-.173 1.29 1.29 0 00-.631.173c-.435.245-.628.769-.628 1.221 0 .452.193.97.628 1.218.193.111.403.173.631.173.228 0 .438-.062.632-.173.327-.186.483-.493.579-.831l.011-.045h.628l-.018.072c-.189.804-.793 1.525-1.832 1.525zm4.279.004c-1.204 0-1.874-1.004-1.874-1.943 0-.939.673-1.939 1.874-1.939s1.874 1 1.874 1.939c0 .939-.67 1.943-1.874 1.943zm0-.549c.235 0 .435-.062.632-.176.438-.252.624-.759.624-1.218 0-.452-.19-.976-.624-1.221a1.306 1.306 0 00-.632-.173 1.29 1.29 0 00-.631.173c-.435.248-.628.766-.628 1.221 0 .459.189.966.628 1.218.196.114.396.176.631.176zm2.837-3.885a.397.397 0 01-.411-.39c0-.2.152-.394.411-.394a.4.4 0 01.417.394c0 .196-.169.39-.417.39zm.303.552v3.799h-.607v-3.799h.607zm1.481 1.415v2.384h-.608v-3.799h.608v.221c.282-.166.669-.221.976-.221.456 0 .87.083 1.191.41.286.294.393.653.393 1.029v2.36h-.607v-2.264c0-.617-.249-.997-.977-.997-.293 0-.569.055-.745.249-.145.155-.231.421-.231.628zm-54.371 19.736v1.014h-.566v-1c-1.296-.067-2.059-.736-2.233-1.96l-.014-.099h.637l.009.076c.126.884.677 1.35 1.601 1.4v-2.696l-.062-.018c-.965-.26-1.875-.74-1.875-1.848 0-.234.053-.458.139-.669.193-.471.65-.821 1.153-.964.206-.059.426-.099.645-.117v-1.009h.566v1.009c1.215.099 1.848.861 1.974 1.969l.013.095h-.637l-.009-.077a1.845 1.845 0 00-.229-.695c-.233-.408-.632-.637-1.112-.709v2.557l.018.005c1.005.273 1.973.713 1.973 1.888 0 .22-.026.435-.116.646a1.89 1.89 0 01-.31.512c-.161.188-.403.34-.614.444-.292.148-.633.215-.951.246zm-.566-3.893v-2.409c-.758.062-1.305.394-1.305 1.153 0 .323.09.596.346.803.246.201.619.349.959.453zm.566.789v2.521c.753-.085 1.359-.466 1.359-1.22 0-.332-.09-.619-.35-.834-.26-.211-.655-.364-1.009-.467zm4.916 2.916l-.009.076h-.673l.014-.098c.3-2.194.987-4.132 2.355-5.949h-3.795v-.601h4.661v.507l-.018.022c-1.53 1.911-2.257 3.674-2.535 6.043zm5.563 0l-.009.076h-.673l.013-.098c.301-2.194.987-4.132 2.356-5.949h-3.796v-.601h4.661v.507l-.018.022c-1.529 1.911-2.256 3.674-2.534 6.043zm8.303.224a2.27 2.27 0 01-.574-.067 2.46 2.46 0 01-.632-.256 2.17 2.17 0 01-.525-.466c-.382-.458-.516-1.063-.516-1.62 0-1.74 1.112-3.265 2.431-4.369l.023-.018.937-.049-.202.166a9.832 9.832 0 00-1.453 1.453c-.292.355-.547.74-.74 1.144.381-.283.901-.417 1.363-.417 1.342 0 2.216 1.072 2.216 2.256 0 1.243-.978 2.243-2.328 2.243zm.009-.578c1.014 0 1.656-.696 1.656-1.629v-.121c-.027-.462-.175-.866-.525-1.184-.305-.283-.669-.408-1.095-.408-1.005 0-1.646.717-1.646 1.641v.117c.027.458.175.87.525 1.184.3.27.668.4 1.085.4zm5.244.354l-.009.076h-.673l.014-.098c.3-2.194.987-4.132 2.355-5.949h-3.795v-.601h4.661v.507l-.018.022c-1.53 1.911-2.257 3.674-2.535 6.043zm5.805.211c-1.252 0-2.27-.682-2.27-1.947a1.82 1.82 0 011.036-1.642c-.556-.332-.847-.902-.847-1.521 0-.233.044-.466.134-.681.314-.79 1.117-1.126 1.947-1.126.247 0 .493.035.731.094.839.211 1.35.915 1.35 1.713 0 .619-.291 1.189-.852 1.521a1.818 1.818 0 011.036 1.642c0 1.265-1.013 1.947-2.265 1.947zm0-3.836c.852 0 1.449-.457 1.449-1.274 0-.816-.606-1.229-1.449-1.229-.848 0-1.449.408-1.449 1.229 0 .821.588 1.274 1.449 1.274zm0 3.257c.933 0 1.615-.466 1.615-1.368 0-.902-.686-1.328-1.615-1.328-.929 0-1.619.422-1.619 1.328 0 .906.686 1.368 1.619 1.368zm4.356-.386l-.695 1.727h-.57l.52-1.727h.745zm3.333.965c-1.252 0-2.27-.682-2.27-1.947a1.82 1.82 0 011.036-1.642 1.734 1.734 0 01-.848-1.521c0-.233.045-.466.135-.681.314-.79 1.117-1.126 1.947-1.126.247 0 .493.035.731.094.839.211 1.35.915 1.35 1.713 0 .619-.291 1.189-.852 1.521a1.82 1.82 0 011.036 1.642c0 1.265-1.014 1.947-2.265 1.947zm0-3.836c.852 0 1.449-.457 1.449-1.274 0-.816-.606-1.229-1.449-1.229-.848 0-1.449.408-1.449 1.229 0 .821.588 1.274 1.449 1.274zm0 3.257c.933 0 1.615-.466 1.615-1.368 0-.902-.687-1.328-1.615-1.328-.929 0-1.62.422-1.62 1.328 0 .906.687 1.368 1.62 1.368zm5.58.579c-.758 0-1.404-.265-1.852-.866-.238-.323-.35-.691-.395-1.072l-.009-.094h.637l.013.071c.148.848.682 1.382 1.606 1.382.458 0 .835-.157 1.131-.48.323-.345.448-.794.448-1.26 0-.929-.578-1.593-1.588-1.593-.255 0-.516.058-.74.175-.193.099-.386.229-.511.39-.094.117-.18.238-.233.364l-.023.054h-.556l.309-3.854h3.715v.601h-3.1l-.171 2.131a2.37 2.37 0 01.436-.251c.296-.135.605-.193.928-.193.902 0 1.691.48 2.01 1.287.112.283.179.579.179.889 0 1.188-.861 2.319-2.234 2.319z" fill="#000"/><path d="M339.832 527.029v.57h-2.979v-.57h2.979zm3.207 2.804c-.758 0-1.404-.265-1.853-.866-.237-.323-.35-.691-.394-1.072l-.009-.094h.637l.013.071c.148.848.682 1.382 1.606 1.382.458 0 .834-.157 1.13-.48.323-.345.449-.794.449-1.26 0-.929-.579-1.593-1.588-1.593-.256 0-.516.058-.74.175-.193.099-.386.229-.512.39a1.622 1.622 0 00-.233.364l-.022.054h-.557l.31-3.854h3.714v.601h-3.099l-.171 2.131c.135-.103.292-.184.435-.251.296-.135.606-.193.929-.193.901 0 1.691.48 2.009 1.287.113.283.18.579.18.889 0 1.188-.861 2.319-2.234 2.319zm3.8-.058a.45.45 0 01-.467-.454.45.45 0 01.467-.462.458.458 0 110 .916zm3.884.071c-.193 0-.385-.018-.574-.067a2.474 2.474 0 01-.632-.256 2.17 2.17 0 01-.525-.466c-.382-.458-.516-1.063-.516-1.62 0-1.74 1.112-3.265 2.431-4.369l.023-.018.937-.049-.202.166a9.93 9.93 0 00-1.453 1.453c-.292.355-.547.74-.74 1.144.381-.283.901-.417 1.363-.417 1.342 0 2.217 1.072 2.217 2.256 0 1.243-.978 2.243-2.329 2.243zm.009-.578c1.014 0 1.656-.696 1.656-1.629v-.121c-.027-.462-.175-.866-.525-1.184-.305-.283-.669-.408-1.095-.408-1.005 0-1.646.717-1.646 1.641v.117c.027.458.175.87.525 1.184.3.27.668.4 1.085.4zm5.487.565c-1.252 0-2.27-.682-2.27-1.947v-.085h.65v.085c0 .395.126.727.426.991.323.283.745.377 1.194.377.933 0 1.614-.466 1.614-1.368 0-.902-.686-1.328-1.614-1.328h-.584v-.561h.584c.852 0 1.449-.462 1.449-1.274 0-.816-.606-1.229-1.449-1.229-.848 0-1.449.408-1.449 1.229v.086h-.633v-.086c0-.233.045-.466.135-.681.314-.79 1.112-1.126 1.947-1.126.246 0 .493.035.731.094.839.215 1.35.915 1.35 1.713 0 .619-.292 1.189-.852 1.521a1.82 1.82 0 011.036 1.642c0 1.265-1.014 1.947-2.265 1.947zm4.974-2.562c-1.251 0-1.484-1.305-1.484-2.135 0-.834.233-2.144 1.484-2.144 1.248 0 1.481 1.314 1.481 2.144 0 .83-.229 2.135-1.481 2.135zm4.388-4.221l-3.706 6.648h-.659l3.714-6.648h.651zm-4.388 3.665c.373 0 .593-.229.718-.556.13-.328.157-.731.157-1.023 0-.296-.027-.7-.152-1.032-.13-.323-.346-.551-.723-.551-.372 0-.592.228-.722.556-.13.327-.157.731-.157 1.027 0 .292.027.695.157 1.023.13.327.35.556.722.556zm4.415 3.037c-1.252 0-1.485-1.301-1.485-2.135 0-.839.233-2.14 1.485-2.14 1.247 0 1.484 1.305 1.484 2.14 0 .83-.237 2.135-1.484 2.135zm0-.552c.376 0 .596-.233.722-.556.13-.332.157-.736.157-1.027 0-.296-.027-.7-.157-1.027-.126-.328-.346-.557-.722-.557-.373 0-.593.229-.718.557-.13.327-.157.731-.157 1.027 0 .291.027.695.157 1.027.125.323.345.556.718.556z" fill="#FF002F"/><path d="M384.349 528.385l3.661-3.328 1.392-6.051 1.977 2.421 6.224-5.597 2.123-10.059 3.369 13.841 4.979-13.841 1.464 16.336 1.978-6.882 3.221 5.445" stroke="#FF718B" stroke-width="1.413" stroke-linecap="round" stroke-linejoin="round"/><path d="M435.485 513.549v1.072h-.99v-1.048c-1.551-.14-2.223-1.073-2.372-2.266l-.01-.096-.01-.087h1.063l.01.072c.072.754.42 1.319 1.319 1.44v-2.493c-1.174-.338-2.044-.903-2.044-2.053 0-.256.058-.507.16-.749.309-.715 1.019-1.101 1.884-1.208v-1.063h.99v1.063c1.015.136 1.647.696 1.932 1.493.097.285.136.575.179.865l.015.092h-1.073l-.019-.15a2.035 2.035 0 00-.077-.396 1.33 1.33 0 00-.957-.942v2.318c1.208.343 2.102.889 2.102 2.083 0 1.101-.812 1.879-2.102 2.053zm-.99-4.416v-2.067c-.643.106-.986.434-.986 1.004 0 .29.068.517.305.715.169.141.434.261.681.348zm.99 1.295v2.179c.647-.131 1.044-.493 1.044-1.068 0-.29-.068-.546-.31-.749-.178-.145-.468-.27-.734-.362zm5.676 3.164c-1.57 0-2.589-.898-2.589-2.178v-.252h1.077v.252c0 .782.566 1.251 1.512 1.251.952 0 1.513-.464 1.513-1.251 0-.788-.566-1.208-1.513-1.208h-.806v-.913h.806c.856 0 1.339-.459 1.339-1.155 0-.7-.488-1.111-1.339-1.111-.85 0-1.328.406-1.328 1.111v.256h-1.058v-.256c0-1.179.937-2.039 2.386-2.039 1.45 0 2.397.87 2.397 2.039 0 .575-.237 1.16-.764 1.561.633.405.962 1.067.962 1.715 0 1.285-1.015 2.178-2.595 2.178zm6.237-.034c-1.459 0-2.507-1.574-2.507-3.734 0-2.154 1.048-3.729 2.507-3.729s2.508 1.575 2.508 3.729c0 2.16-1.049 3.734-2.508 3.734zm0-.908c.937-.048 1.609-1.217 1.609-2.826 0-1.599-.672-2.773-1.609-2.821-.937.048-1.608 1.222-1.608 2.821 0 1.599.676 2.778 1.608 2.826zm5.445-.145h3.42v.952h-5.111v-.763l2.874-2.517c.551-.483.981-1.063.981-1.725 0-.778-.377-1.425-1.372-1.425-.647 0-1.063.275-1.246.783a2.035 2.035 0 00-.092.449l-.019.154h-1.092l.014-.091c.039-.276.078-.561.189-.836.333-.86 1.135-1.387 2.246-1.387 1.686 0 2.454 1.068 2.454 2.324 0 .99-.575 1.783-1.372 2.469l-1.874 1.613zm5.024-.236h1.208l-.87 2.116h-.99l.652-2.116zm4.058.236h3.42v.952h-5.111v-.763l2.875-2.517c.55-.483.98-1.063.98-1.725 0-.778-.376-1.425-1.372-1.425-.647 0-1.062.275-1.246.783a2.035 2.035 0 00-.092.449l-.019.154h-1.092l.015-.091c.038-.276.077-.561.188-.836.333-.86 1.135-1.387 2.246-1.387 1.686 0 2.454 1.068 2.454 2.324 0 .99-.574 1.783-1.372 2.469l-1.874 1.613zm7.179 1.087c-1.57 0-2.59-.898-2.59-2.178v-.252h1.078v.252c0 .782.565 1.251 1.512 1.251.952 0 1.512-.464 1.512-1.251 0-.788-.565-1.208-1.512-1.208h-.807v-.913h.807c.855 0 1.338-.459 1.338-1.155 0-.7-.488-1.111-1.338-1.111-.85 0-1.329.406-1.329 1.111v.256h-1.058v-.256c0-1.179.938-2.039 2.387-2.039s2.396.87 2.396 2.039c0 .575-.237 1.16-.763 1.561.633.405.961 1.067.961 1.715 0 1.285-1.014 2.178-2.594 2.178z" fill="#000"/><path d="M443.559 528.791c-1.354 0-2.328-1.462-2.328-3.467 0-2.001.974-3.463 2.328-3.463 1.355 0 2.328 1.462 2.328 3.463 0 2.005-.973 3.467-2.328 3.467zm0-.843c.871-.045 1.494-1.13 1.494-2.624 0-1.485-.623-2.575-1.494-2.62-.87.045-1.494 1.135-1.494 2.62s.628 2.579 1.494 2.624zm4.163.826c-.408 0-.637-.306-.637-.593s.22-.596.637-.596c.417 0 .642.309.642.596s-.243.593-.642.593zm4.073.017c-1.354 0-2.328-1.462-2.328-3.467 0-2.001.974-3.463 2.328-3.463 1.355 0 2.329 1.462 2.329 3.463 0 2.005-.974 3.467-2.329 3.467zm0-.843c.871-.045 1.494-1.13 1.494-2.624 0-1.485-.623-2.575-1.494-2.62-.87.045-1.493 1.135-1.493 2.62s.628 2.579 1.493 2.624zm5.832.843c-1.355 0-2.328-1.462-2.328-3.467 0-2.001.973-3.463 2.328-3.463s2.328 1.462 2.328 3.463c0 2.005-.973 3.467-2.328 3.467zm0-.843c.87-.045 1.494-1.13 1.494-2.624 0-1.485-.624-2.575-1.494-2.62-.87.045-1.494 1.135-1.494 2.62s.628 2.579 1.494 2.624zm8.434-.866h-.916v1.615h-.977v-1.615h-3.298v-.713l3.401-4.374h.874v4.208h.916v.879zm-3.894-.879h2.001v-2.566l-2.001 2.566zm7.195 2.62c-1.498 0-2.301-.969-2.395-2.095l-.005-.085-.004-.077h.969l.036.193c.148.691.515 1.203 1.399 1.203.408 0 .718-.139.969-.404.296-.31.399-.713.399-1.117 0-.74-.43-1.377-1.377-1.377-.421 0-.83.193-1.081.48-.094.112-.211.282-.242.403l-.014.059h-.879l.328-4.011h3.992v.889h-3.05l-.13 1.574c.341-.17.731-.26 1.13-.26 1.507 0 2.328 1.135 2.328 2.243 0 1.112-.816 2.382-2.373 2.382z" fill="#7D7D7D"/><rect x="219.5" y="17.254" width="276" height="580" rx="50.5" stroke="#fff" stroke-width="7"/><rect x="173" y="99.754" width="93" height="37" rx="18.5" fill="#000" fill-opacity=".12"/><g clip-path="url(#clip0_85_718)"><path d="M190 128.254c5.536 0 10-4.464 10-10s-4.464-10-10-10-10 4.464-10 10 4.464 10 10 10z" fill="#0098EA"/><path d="M193.429 113.825h-6.858c-1.25 0-2.035 1.357-1.428 2.464l4.214 7.322a.735.735 0 001.25 0l4.214-7.322c.643-1.107-.142-2.464-1.392-2.464zm-4.036 7.572l-.929-1.786-2.214-3.964c-.143-.25.036-.572.357-.572h2.786v6.322zm4.357-5.75l-2.214 3.964-.929 1.786v-6.322h2.786c.321 0 .5.322.357.572z" fill="#fff"/></g><path d="M214.812 114.395h-3.289v8.859h-1.497v-8.859h-3.274v-1.354h8.06v1.354zm5.188 4.354h-2.188v4.505h-1.49v-10.213h4.191c2.208 0 3.609.964 3.609 2.857 0 1.402-.807 2.455-2.495 2.755l2.707 4.601h-1.757L220 118.749zm.567-4.354h-2.755v3.007h2.755c1.306 0 2.058-.389 2.058-1.51 0-1.115-.759-1.497-2.058-1.497zm10.083 9.05a5.93 5.93 0 01-1.77-.266 4.707 4.707 0 01-2.844-2.413 5.983 5.983 0 01-.608-2.619c0-1.64.704-3.623 2.474-4.6a5.517 5.517 0 012.748-.704c2.892 0 4.676 1.866 5.059 4.06l.02.13h-1.517l-.027-.082c-.021-.068-.028-.13-.048-.198a3.642 3.642 0 00-.308-.807c-.588-1.087-1.716-1.791-3.179-1.791-.519 0-1.011.089-1.469.287-1.62.67-2.229 2.263-2.229 3.705 0 1.429.615 3.049 2.222 3.706.458.191.971.28 1.476.28 1.86 0 3.124-1.121 3.487-2.584.02-.062.02-.13.034-.192l.02-.095h1.538l-.02.13c-.376 2.194-2.174 4.053-5.059 4.053z" fill="#fff"/><path d="M249.531 112.723l5 5a.757.757 0 01.163.819.757.757 0 01-.163.244l-5 5a.751.751 0 01-1.063-1.063l4.469-4.469-4.47-4.469a.756.756 0 010-1.063.751.751 0 011.063 0l.001.001z" fill="#D2D2D2"/><rect x="451" y="144.754" width="93" height="37" rx="18.5" fill="#000" fill-opacity=".12"/><path d="M466.938 166.008a.502.502 0 01.346-.137h11.971c.218 0 .327.253.173.4l-2.366 2.262a.498.498 0 01-.346.137h-11.971c-.218 0-.327-.252-.173-.4l2.366-2.262z" fill="url(#paint1_linear_85_718)"/><path d="M466.938 157.557a.502.502 0 01.346-.137h11.971c.218 0 .327.253.173.4l-2.366 2.262a.498.498 0 01-.346.137h-11.971c-.218 0-.327-.252-.173-.399l2.366-2.263z" fill="url(#paint2_linear_85_718)"/><path d="M477.062 161.756a.498.498 0 00-.346-.137h-11.971c-.218 0-.327.252-.173.4l2.366 2.262a.498.498 0 00.346.137h11.971c.218 0 .327-.252.173-.4l-2.366-2.262z" fill="url(#paint3_linear_85_718)"/><path d="M492.806 168.432c-1.785 0-3.206-.773-3.781-2.188a4.135 4.135 0 01-.246-1.059l-.027-.253h1.559l.027.212c.068.553.253 1.004.724 1.401.465.396 1.067.54 1.744.54.512 0 1.046-.068 1.476-.273.609-.288.971-.759.971-1.34 0-.349-.123-.684-.39-.937-.225-.212-.683-.355-1.046-.458-.519-.15-1.066-.246-1.606-.348-.547-.11-1.094-.233-1.607-.424-1.292-.486-1.811-1.285-1.811-2.441 0-1.852 1.935-2.98 4.013-2.98 1.784 0 3.206.779 3.78 2.201.137.349.205.704.246 1.06l.027.252h-1.558l-.028-.218a2.381 2.381 0 00-.15-.616c-.349-.868-1.217-1.333-2.317-1.333-.52 0-1.033.069-1.47.281-.622.301-.978.752-.978 1.34 0 .355.11.676.39.936.226.212.67.356 1.039.458.52.151 1.067.246 1.6.349 1.941.383 3.431.902 3.431 2.864 0 1.853-1.941 2.974-4.012 2.974zm8.962-.014c-2.523 0-3.815-2.099-3.815-3.897 0-1.791 1.292-3.882 3.815-3.882 2.522 0 3.814 2.091 3.814 3.882 0 1.798-1.285 3.897-3.814 3.897zm0-1.299c.43 0 .799-.116 1.162-.321.834-.479 1.169-1.436 1.169-2.277 0-.82-.342-1.811-1.169-2.276a2.351 2.351 0 00-1.162-.314c-.411 0-.814.116-1.163.314-.82.465-1.168 1.456-1.168 2.276 0 .841.334 1.798 1.175 2.277.356.205.725.321 1.156.321zm6.61 1.149c-1.354 0-1.702-.944-1.702-1.812v-8.415h1.47v8.299c0 .082 0 .171.006.253.007.082.021.15.041.212.048.102.123.171.328.171.199 0 .404-.014.602-.028h.144v1.285l-.13.007c-.253.014-.506.028-.759.028z" fill="#fff"/><path d="M523.531 157.723l5 5a.757.757 0 01.163.819.757.757 0 01-.163.244l-5 5a.751.751 0 01-1.063-1.063l4.469-4.469-4.47-4.469a.756.756 0 010-1.063.751.751 0 011.063 0l.001.001z" fill="#E8E8E8"/><g clip-path="url(#clip1_85_718)"><path d="M43.352 212.828h707.6" stroke="#CCC" stroke-width=".525" stroke-linecap="round" stroke-dasharray="3.15 3.15"/><path d="M116.583 365.47c-29.833-6.358-62.154 2.649-74.583 7.946l-22.5 20.838-14.5 22.6h493.605v-188.6L461.51 242.9a75.682 75.682 0 01-38.444 4.538l-21.247-3.017a75.674 75.674 0 00-29.423 1.614L299 268.754c-23.085 18.54-74.005 56.192-93.182 74.201-23.975 27.812-51.945 30.461-89.235 22.515z" fill="url(#paint4_linear_85_718)"/><path d="M498.686 118.521v292.045" stroke="#CCC" stroke-linecap="round"/><path d="M736.918 106.354l-55.588 17.293a113.113 113.113 0 00-38.582 20.923l-39.193 32.488a113.152 113.152 0 01-27.543 16.847L471.59 238.767a112.948 112.948 0 01-60.596 8.031l-1.932-.276a112.943 112.943 0 00-44.24 2.448l-41.898 10.817c-15.671 4.045-30.301 11.394-42.824 21.67-25.175 20.663-59.01 48.907-73.819 62.926-23.879 27.926-51.736 30.585-88.882 22.607-29.716-6.383-50.899-4.737-74.399 7.263s-37 42-37 42" stroke="#121212" stroke-width="3" stroke-linecap="round"/><path d="M498.605 239.152c7.272 0 13.166-5.909 13.166-13.198 0-7.288-5.894-13.197-13.166-13.197-7.271 0-13.166 5.909-13.166 13.197 0 7.289 5.895 13.198 13.166 13.198z" fill="#000" stroke="#01FBB9" stroke-width=".525"/><path opacity=".1" d="M498.606 257.552c17.409 0 31.522-14.146 31.522-31.597s-14.113-31.598-31.522-31.598-31.522 14.147-31.522 31.598 14.113 31.597 31.522 31.597z" fill="#000" stroke="#000" stroke-width=".525"/></g><rect x="329" y="212.754" width="58" height="20" rx="10" fill="#fff"/><path d="M342.502 224.135h-2.76v2.619h-1.254v-2.619h-2.765v-1.149h2.765v-2.625h1.254v2.625h2.76v1.149zm4.307 2.801c-.5 0-.955-.092-1.366-.276a2.853 2.853 0 01-1.037-.791c-.472-.562-.709-1.281-.709-2.156 0-.848.196-1.67.586-2.467a8.914 8.914 0 011.623-2.267 11.1 11.1 0 01.979-.903l.07-.053.029-.017 1.928-.1-.726.586c-1.059.852-1.868 1.719-2.426 2.602a3.486 3.486 0 011.195-.205c.633 0 1.182.148 1.647.445.468.293.824.672 1.066 1.137.242.465.363.947.363 1.447 0 .516-.131 1.006-.392 1.471a3.006 3.006 0 01-1.125 1.119c-.489.285-1.057.428-1.705.428zm.011-1.125c.399 0 .741-.084 1.026-.252.285-.168.5-.391.644-.668.145-.282.217-.59.217-.926v-.153c0-.246-.055-.49-.164-.732a1.779 1.779 0 00-.445-.621 1.685 1.685 0 00-.557-.334 1.925 1.925 0 00-.674-.111c-.39 0-.728.086-1.013.257a1.68 1.68 0 00-.639.686 1.977 1.977 0 00-.217.92v.146c0 .071.01.149.029.235.039.23.102.437.188.621.09.18.219.344.387.492.339.293.746.44 1.218.44zm5.274 1.043a.882.882 0 01-.446-.112.782.782 0 01-.287-.287.774.774 0 01-.006-.744.771.771 0 01.288-.293.851.851 0 01.451-.117c.172 0 .32.039.445.117a.75.75 0 01.293.293c.066.117.1.24.1.369a.74.74 0 01-.106.375.763.763 0 01-.293.287.845.845 0 01-.439.112zm8.455-1.254v1.154h-6.199v-.926l3.486-3.053c.793-.695 1.189-1.392 1.189-2.091 0-.512-.134-.928-.404-1.248-.269-.321-.689-.481-1.26-.481-.39 0-.713.082-.966.246-.25.16-.432.395-.545.703a3.02 3.02 0 00-.112.545l-.023.188h-1.324l.017-.112c.031-.23.063-.42.094-.568.031-.148.076-.297.135-.445a2.47 2.47 0 011.013-1.237c.473-.296 1.043-.445 1.711-.445.657 0 1.207.127 1.653.381.445.25.777.588.996 1.014.219.425.328.9.328 1.423 0 .567-.147 1.094-.44 1.582-.289.489-.697.959-1.224 1.413L356.4 225.6h4.149zm7.892-.955h-1.195v2.109h-1.277v-2.109h-4.307v-.932l4.442-5.713h1.142v5.496h1.195v1.149zm-5.086-1.149h2.614v-3.351l-2.614 3.351zm8.614.211c-.563 0-1.002-.154-1.319-.463a2.437 2.437 0 01-.65-1.113 5.11 5.11 0 010-2.619c.113-.434.328-.807.645-1.119.32-.313.761-.469 1.324-.469.562 0 1.002.156 1.318.469.317.312.531.685.645 1.119a5.157 5.157 0 010 2.619c-.114.43-.328.801-.645 1.113-.316.309-.756.463-1.318.463zm4.64-5.707h1.36l-4.981 8.754h-1.371l4.992-8.754zm-4.64 4.605c.34 0 .584-.22.732-.662.102-.297.153-.672.153-1.125 0-.468-.047-.843-.141-1.125-.149-.441-.397-.662-.744-.662-.344 0-.59.223-.739.668-.101.293-.152.666-.152 1.119 0 .453.051.828.152 1.125.149.442.395.662.739.662zm5.654 4.219c-.566 0-1.008-.154-1.324-.463a2.393 2.393 0 01-.645-1.113 5.118 5.118 0 010-2.619c.114-.434.328-.805.645-1.113.32-.313.762-.469 1.324-.469.563 0 1.002.156 1.318.469.317.312.532.685.645 1.119a4.926 4.926 0 010 2.613c-.113.43-.328.801-.645 1.113-.316.309-.755.463-1.318.463zm0-1.095c.348 0 .596-.223.744-.668.098-.293.147-.668.147-1.125 0-.457-.049-.832-.147-1.125-.148-.442-.396-.663-.744-.663-.34 0-.584.223-.732.668-.102.293-.153.666-.153 1.12 0 .453.051.828.153 1.125.14.445.384.668.732.668z" fill="#111"/><rect x="307.602" y="42.333" width="88" height="24.8" rx="12.4" fill="#030303"/><rect x="374.801" y="47.133" width="15.2" height="15.2" rx="7.6" fill="#0E0B0F"/><rect x="378.002" y="50.333" width="8.8" height="8.8" rx="4.4" fill="#161424"/><rect x="379.602" y="51.933" width="4.8" height="4.8" rx="2.4" fill="#0F0F2A"/><rect x="382.002" y="52.733" width="1.6" height="1.6" rx=".8" fill="#393752"/><g clip-path="url(#clip2_85_718)"><g clip-path="url(#clip3_85_718)"><path opacity=".35" d="M458.001 49.956h13.6a2.778 2.778 0 012.778 2.778v4a2.778 2.778 0 01-2.778 2.779h-13.6a2.778 2.778 0 01-2.778-2.779v-4a2.778 2.778 0 012.778-2.778z" stroke="#fff" stroke-width=".844" stroke-miterlimit="10"/><path opacity=".4" d="M475.6 53.534v3.376a1.83 1.83 0 000-3.376z" fill="#fff"/><path d="M456.4 52.734a1.6 1.6 0 011.6-1.6h13.6a1.6 1.6 0 011.6 1.6v4a1.6 1.6 0 01-1.6 1.6H458a1.6 1.6 0 01-1.6-1.6v-4zm-18.501 1.032a.27.27 0 01-.386-.003l-1.029-1.061a.296.296 0 01.002-.414 9.564 9.564 0 0113.429 0 .297.297 0 01.002.414l-1.029 1.06a.27.27 0 01-.386.004 7.61 7.61 0 00-5.301-2.162 7.612 7.612 0 00-5.302 2.162zm2.399 2.26a.273.273 0 01-.386-.005l-1.028-1.06a.296.296 0 01.004-.418 6.281 6.281 0 018.684 0 .297.297 0 01.004.418l-1.028 1.06a.271.271 0 01-.385.005 4.322 4.322 0 00-2.934-1.154 4.322 4.322 0 00-2.931 1.154zm5.022.982a.288.288 0 01-.084.21l-1.778 1.832a.275.275 0 01-.395 0l-1.779-1.832a.292.292 0 01.008-.416 3 3 0 013.936 0 .287.287 0 01.092.206zm-20.92-5.074a.8.8 0 01.8-.8h.8a.8.8 0 01.8.8v6.4a.8.8 0 01-.8.8h-.8a.8.8 0 01-.8-.8v-6.4zm4-1.6a.8.8 0 01.8-.8h.8a.8.8 0 01.8.8v8a.8.8 0 01-.8.8h-.8a.8.8 0 01-.8-.8v-8zm-8 4.401a.8.8 0 01.8-.8h.8a.8.8 0 01.8.8v3.6a.8.8 0 01-.8.8h-.8a.8.8 0 01-.8-.8v-3.6zm-4 2a.8.8 0 01.8-.8h.8a.8.8 0 01.8.8v1.6a.8.8 0 01-.8.8h-.8a.8.8 0 01-.8-.8v-1.6z" fill="#fff"/></g></g><path d="M246.903 49.824c.449.003.886.082 1.31.238a3.04 3.04 0 011.155.751c.342.345.613.808.815 1.388.202.58.302 1.298.302 2.154.003.806-.082 1.527-.256 2.162-.171.632-.417 1.166-.738 1.603a3.25 3.25 0 01-1.159.999c-.452.229-.96.343-1.525.343-.593 0-1.118-.116-1.576-.348a2.96 2.96 0 01-1.622-2.336h1.672c.086.372.26.669.523.889.265.216.6.325 1.003.325.65 0 1.151-.283 1.502-.848.352-.565.527-1.35.527-2.354h-.064c-.15.268-.343.5-.582.696-.238.192-.508.34-.811.444a2.878 2.878 0 01-.952.156 2.84 2.84 0 01-1.485-.394 2.875 2.875 0 01-1.039-1.081c-.254-.458-.382-.982-.385-1.571 0-.611.14-1.16.421-1.645.284-.489.68-.873 1.187-1.154.507-.284 1.099-.423 1.777-.417zm.005 1.374c-.33 0-.628.081-.894.243a1.73 1.73 0 00-.623.65 1.865 1.865 0 00-.224.912c.003.333.078.635.224.907.15.272.353.487.61.646.259.159.555.238.888.238a1.688 1.688 0 001.251-.536 1.86 1.86 0 00.376-.582c.091-.216.135-.445.132-.687 0-.32-.076-.617-.229-.888a1.759 1.759 0 00-.618-.655 1.63 1.63 0 00-.893-.248zm5.503 7.01a.984.984 0 01-.715-.294.96.96 0 01-.293-.715.94.94 0 01.293-.705.984.984 0 01.715-.293c.268 0 .502.097.701.293.201.195.303.43.307.705a1.055 1.055 0 01-.514.875.95.95 0 01-.494.133zm0-4.65a.984.984 0 01-.715-.294.96.96 0 01-.293-.714.94.94 0 01.293-.706.976.976 0 01.715-.298c.268 0 .502.1.701.298a.97.97 0 01.307.706 1.056 1.056 0 01-.514.87.926.926 0 01-.494.137zm1.892 4.035v-1.351l3.981-6.29h1.127v1.924h-.688l-2.679 4.247v.073h5.556v1.397h-7.297zm4.475 1.741v-2.153l.019-.605v-6.624h1.603v9.382h-1.622zm7.336-9.382v9.382h-1.7v-7.728h-.055l-2.194 1.402V51.45l2.332-1.498h1.617z" fill="#fff"/><path fill-rule="evenodd" clip-rule="evenodd" d="M384.875 336.631l-23.225 21.435 15.718 13.297c2.905 2.458 7.507.109 7.507-3.613v-31.119zm-5.005-28.947a4.32 4.32 0 00-2.502.953l-23.405 19.8h-6.088c-3.804 0-6.938 3.134-6.938 6.938v9.25c0 3.804 3.134 6.937 6.938 6.937h6.088l.574.488-15.167 14.002a2.312 2.312 0 003.135 3.396 626726.67 626726.67 0 0060.125-55.5 2.312 2.312 0 00-3.135-3.396l-14.62 13.495V312.25c0-2.749-2.511-4.694-5.005-4.566z" fill="#fff"/><defs><linearGradient id="paint0_linear_85_718" x1="335" y1="240" x2="335" y2="31.626" gradientUnits="userSpaceOnUse"><stop stop-color="#01FBB9"/><stop offset="1" stop-color="#002B1F"/></linearGradient><linearGradient id="paint1_linear_85_718" x1="474.641" y1="154.334" x2="466.913" y2="169.801" gradientUnits="userSpaceOnUse"><stop stop-color="#00FFA3"/><stop offset="1" stop-color="#DC1FFF"/></linearGradient><linearGradient id="paint2_linear_85_718" x1="474.641" y1="154.334" x2="466.913" y2="169.801" gradientUnits="userSpaceOnUse"><stop stop-color="#00FFA3"/><stop offset="1" stop-color="#DC1FFF"/></linearGradient><linearGradient id="paint3_linear_85_718" x1="474.641" y1="154.334" x2="466.913" y2="169.801" gradientUnits="userSpaceOnUse"><stop stop-color="#00FFA3"/><stop offset="1" stop-color="#DC1FFF"/></linearGradient><linearGradient id="paint4_linear_85_718" x1="269.883" y1="236.754" x2="270.006" y2="416.916" gradientUnits="userSpaceOnUse"><stop stop-opacity=".4"/><stop offset="1" stop-color="#D9D9D9" stop-opacity="0"/></linearGradient><clipPath id="clip0_85_718"><path fill="#fff" transform="translate(180 108.254)" d="M0 0h20v20H0z"/></clipPath><clipPath id="clip1_85_718"><path fill="#fff" transform="translate(0 55.754)" d="M0 0h751v414H0z"/></clipPath><clipPath id="clip2_85_718"><path fill="#fff" transform="translate(416.4 49.534)" d="M0 0h60.8v10.4H0z"/></clipPath><clipPath id="clip3_85_718"><path fill="#fff" transform="translate(416.4 49.534)" d="M0 0h60.8v10.4H0z"/></clipPath><filter id="filter1_d_85_718" x="230.307" y="442.394" width="55.095" height="55.095" filterUnits="userSpaceOnUse" color-interpolation-filters="sRGB"><feFlood flood-opacity="0" result="BackgroundImageFix"/><feColorMatrix in="SourceAlpha" values="0 0 0 0 0 0 0 0 0 0 0 0 0 0 0 0 0 0 127 0" result="hardAlpha"/><feOffset dy="4"/><feGaussianBlur stdDeviation="6"/><feComposite in2="hardAlpha" operator="out"/><feColorMatrix values="0 0 0 0 0 0 0 0 0 0 0 0 0 0 0 0 0 0 0.1 0"/><feBlend in2="BackgroundImageFix" result="effect1_dropShadow_85_718"/><feBlend in="SourceGraphic" in2="effect1_dropShadow_85_718" result="shape"/></filter><filter id="filter3_d_85_718" x="230.307" y="493.53" width="55.095" height="55.095" filterUnits="userSpaceOnUse" color-interpolation-filters="sRGB"><feFlood flood-opacity="0" result="BackgroundImageFix"/><feColorMatrix in="SourceAlpha" values="0 0 0 0 0 0 0 0 0 0 0 0 0 0 0 0 0 0 127 0" result="hardAlpha"/><feOffset dy="4"/><feGaussianBlur stdDeviation="6"/><feComposite in2="hardAlpha" operator="out"/><feColorMatrix values="0 0 0 0 0 0 0 0 0 0 0 0 0 0 0 0 0 0 0.1 0"/><feBlend in2="BackgroundImageFix" result="effect1_dropShadow_85_718"/><feBlend in="SourceGraphic" in2="effect1_dropShadow_85_718" result="shape"/></filter></defs></svg>