<svg width="19" height="19" viewBox="0 0 19 19" fill="none" xmlns="http://www.w3.org/2000/svg"><g clip-path="url(#clip0_85_1091)"><path d="M9.863 8.297L12.77 5.39 3.561.305a2.413 2.413 0 00-2.355.006l8.657 7.986zM.34 1.128a2.214 2.214 0 00-.332 1.16v14.424c0 .406.11.793.31 1.131l8.705-8.705L.34 1.128zm16.287 6.389l-2.774-1.53-3.117 3.115 3.82 3.524 2.072-1.144c.746-.413 1.192-1.154 1.192-1.983a2.249 2.249 0 00-1.193-1.982zm-6.73 2.426l-8.73 8.73c.368.213.786.327 1.212.33.404 0 .81-.103 1.182-.308l9.9-5.464-3.565-3.288z" fill="#fff"/></g><defs><clipPath id="clip0_85_1091"><path fill="#fff" d="M0 0h19v19H0z"/></clipPath></defs></svg>