<svg width="240" height="115" viewBox="0 0 240 115" fill="none" xmlns="http://www.w3.org/2000/svg"><rect width="240" height="115" rx="21" fill="#fff"/><g opacity=".6"><path d="M17.205 19.959c-.681 0-1.265-.148-1.75-.445-.487-.3-.86-.716-1.122-1.25-.26-.532-.388-1.15-.388-1.854 0-.704.129-1.322.388-1.855a2.94 2.94 0 011.121-1.245c.486-.3 1.07-.45 1.751-.45.786 0 1.44.197 1.964.592.524.391.891.92 1.103 1.585l-1.15.317c-.133-.445-.358-.792-.677-1.04-.319-.253-.732-.38-1.24-.38-.457 0-.839.103-1.145.308a1.889 1.889 0 00-.686.866c-.152.37-.229.803-.232 1.302 0 .498.076.933.227 1.306.155.369.385.656.691.861.306.205.688.308 1.145.308.508 0 .921-.127 1.24-.379.319-.252.544-.6.677-1.041l1.15.317c-.212.666-.58 1.196-1.103 1.59-.524.391-1.178.587-1.964.587zm4.106-.142v-5.111h1.008v1.245l-.123-.161c.063-.17.146-.325.25-.464.108-.142.236-.259.384-.35.126-.086.265-.152.416-.2.155-.05.313-.08.474-.089.16-.013.317-.006.468.019v1.065a1.462 1.462 0 00-.525-.043 1.204 1.204 0 00-.53.166 1.192 1.192 0 00-.388.326 1.39 1.39 0 00-.218.455 1.989 1.989 0 00-.07.544v2.598H21.31zm4.295 2.271l.984-2.702.02.795-2.23-5.475h1.188l1.58 4.05h-.302l1.538-4.05h1.14l-2.848 7.382h-1.07zm7.08-2.13c-.498 0-.916-.117-1.254-.354a2.173 2.173 0 01-.762-.965 3.57 3.57 0 01-.255-1.378c0-.514.085-.974.255-1.381.17-.407.42-.728.748-.961.331-.237.74-.355 1.226-.355.483 0 .9.118 1.254.355.356.233.633.554.828.96.196.404.294.865.294 1.382 0 .512-.097.97-.29 1.378a2.349 2.349 0 01-.813.965c-.35.237-.76.355-1.23.355zm-2.465 2.13v-7.382h1.008v3.587h.142v3.795h-1.15zm2.29-3.151c.297 0 .541-.075.734-.223.192-.148.334-.348.426-.6.094-.256.142-.54.142-.853 0-.309-.048-.59-.142-.842a1.295 1.295 0 00-.44-.606c-.2-.151-.452-.227-.758-.227-.29 0-.526.071-.71.213a1.217 1.217 0 00-.406.587 2.71 2.71 0 00-.128.875c0 .332.042.623.128.876.088.252.225.45.411.591.19.14.437.209.743.209zm6.547.88a4.63 4.63 0 01-.994.08 2.276 2.276 0 01-.866-.175 1.2 1.2 0 01-.582-.535 1.525 1.525 0 01-.184-.676c-.007-.23-.01-.49-.01-.781v-4.444h1.136v4.378c0 .205.002.385.005.54.006.154.04.28.1.378.113.189.294.295.543.317.25.022.534.01.852-.038v.956zM35.495 15.6v-.894h3.563v.894h-3.563zm6.66 4.359c-.51 0-.957-.115-1.339-.346a2.373 2.373 0 01-.89-.95 3.056 3.056 0 01-.312-1.402c0-.536.108-1.006.322-1.41.215-.404.513-.72.895-.946.381-.227.823-.341 1.325-.341.514 0 .962.115 1.344.345.382.23.678.55.89.956.21.404.316.87.316 1.396 0 .53-.107.999-.321 1.406-.212.404-.508.72-.89.951-.382.227-.828.34-1.34.34zm0-1.07c.455 0 .793-.151 1.014-.454.22-.303.33-.694.33-1.174 0-.495-.111-.89-.335-1.183-.224-.296-.56-.444-1.008-.444-.306 0-.559.069-.757.208a1.195 1.195 0 00-.436.572 2.326 2.326 0 00-.142.847c0 .496.112.892.336 1.188.227.294.56.44.999.44zm5.447 1.07c-.63 0-1.143-.142-1.538-.426-.394-.284-.634-.683-.719-1.197l1.164-.18c.06.252.193.451.398.596.205.145.464.218.776.218.274 0 .486-.054.634-.161a.527.527 0 00.227-.45.428.428 0 00-.085-.279c-.054-.072-.174-.142-.36-.208s-.471-.15-.856-.25a5.245 5.245 0 01-1.022-.365c-.253-.133-.434-.289-.545-.469a1.225 1.225 0 01-.165-.653c0-.319.083-.596.25-.833.168-.236.401-.418.701-.544.3-.13.653-.194 1.06-.194.398 0 .75.062 1.055.184.31.123.559.299.748.526.19.227.306.494.35.8l-1.164.208a.733.733 0 00-.298-.516c-.167-.126-.391-.197-.672-.213-.268-.016-.484.025-.648.123-.164.095-.246.229-.246.402a.35.35 0 00.099.251c.066.07.199.139.397.208.202.07.502.155.9.256.407.104.732.224.974.36.246.132.423.291.53.478.11.186.166.411.166.676 0 .515-.188.918-.563 1.212-.372.293-.888.44-1.547.44z" fill="#000"/><g clip-path="url(#clip0_85_1251)"><path d="M53.133 15.092l2.106 2.106-2.106 2.106" stroke="#050505" stroke-width=".703" stroke-linecap="round" stroke-linejoin="round"/></g></g><rect x="13.521" y="36.175" width="25.69" height="25.69" rx="12.845" fill="#F7931A"/><g clip-path="url(#clip1_85_1251)" stroke="#fff" stroke-width="1.805" stroke-linecap="round" stroke-linejoin="round"><path d="M18.254 49.02a8.113 8.113 0 1016.226-.001 8.113 8.113 0 00-16.226 0z"/><path d="M23.662 45.414h3.687c.951 0 1.722.807 1.722 1.803 0 .996-.771 1.803-1.722 1.803.951 0 1.722.806 1.722 1.803 0 .996-.771 1.802-1.722 1.802h-3.687m.901-3.605h3.607m-3.607-4.508v9.015-8.113m2.705-.901v.901m0 7.211v.902"/></g><path d="M48.195 46.499v-7.867h2.881c.558 0 1.02.092 1.387.276.366.182.64.43.822.742.182.31.273.66.273 1.048 0 .328-.06.605-.181.83-.12.223-.282.402-.484.538-.2.133-.42.23-.66.292v.077c.26.012.515.097.764.253.25.154.458.373.622.657.164.284.246.63.246 1.037 0 .402-.095.763-.284 1.083-.187.318-.477.57-.869.757-.391.184-.892.277-1.502.277h-3.015zm1.187-1.018h1.713c.569 0 .976-.11 1.222-.33.246-.22.369-.496.369-.827a1.29 1.29 0 00-.189-.683 1.344 1.344 0 00-.537-.496 1.723 1.723 0 00-.822-.184h-1.756v2.52zm0-3.446h1.59c.267 0 .506-.051.719-.153.215-.103.385-.246.51-.43a1.14 1.14 0 00.193-.661c0-.326-.114-.598-.342-.819-.228-.22-.578-.33-1.049-.33h-1.62v2.393zm5.582 4.464v-5.9h1.149v5.9h-1.149zm.58-6.81a.73.73 0 01-.515-.2.65.65 0 01-.21-.485c0-.19.07-.35.21-.484a.723.723 0 01.515-.203c.2 0 .37.068.511.203a.636.636 0 01.215.484.644.644 0 01-.215.484.716.716 0 01-.51.2zm4.652.91v.921h-3.223v-.922h3.223zm-2.359-1.414h1.149v5.581c0 .223.033.39.1.504a.52.52 0 00.257.226c.107.038.224.058.35.058.092 0 .172-.007.241-.02l.162-.03.207.949a2.25 2.25 0 01-.745.123 2.024 2.024 0 01-.845-.162 1.45 1.45 0 01-.634-.522c-.161-.236-.242-.532-.242-.888v-5.819zm5.835 7.433c-.571 0-1.063-.13-1.475-.388a2.57 2.57 0 01-.945-1.08c-.22-.458-.33-.983-.33-1.575 0-.599.112-1.128.337-1.586.226-.46.543-.82.953-1.08.41-.258.892-.387 1.448-.387.448 0 .848.083 1.199.25a2.09 2.09 0 011.237 1.732h-1.118a1.34 1.34 0 00-.423-.715c-.218-.2-.51-.3-.876-.3-.32 0-.6.085-.84.254a1.63 1.63 0 00-.558.715c-.133.307-.2.67-.2 1.09 0 .43.066.802.196 1.114.13.313.315.555.553.727.241.171.524.257.85.257.217 0 .414-.04.59-.12.18-.081.33-.198.45-.349.123-.15.209-.333.258-.545h1.117a2.17 2.17 0 01-.372 1.022c-.208.3-.485.535-.834.706-.345.172-.751.258-1.217.258zm5.92 0c-.552 0-1.035-.127-1.448-.38a2.564 2.564 0 01-.96-1.065c-.228-.455-.342-.988-.342-1.598 0-.612.114-1.147.342-1.605a2.56 2.56 0 01.96-1.068c.413-.254.895-.38 1.449-.38.553 0 1.035.127 1.448.38.412.254.732.61.96 1.068.228.458.342.993.342 1.605 0 .61-.114 1.143-.342 1.598-.228.456-.548.81-.96 1.064-.412.254-.895.38-1.448.38zm.004-.964c.359 0 .656-.095.892-.285.235-.19.41-.441.522-.756.115-.315.173-.662.173-1.041 0-.377-.058-.723-.173-1.038a1.69 1.69 0 00-.522-.764c-.236-.192-.533-.288-.892-.288-.36 0-.66.096-.898.288a1.716 1.716 0 00-.527.764 3.083 3.083 0 00-.169 1.038c0 .379.057.726.17 1.04.115.316.29.568.526.757.238.19.537.285.898.285zm3.813.845v-5.9h1.148v5.9H73.41zm.58-6.81a.73.73 0 01-.515-.2.65.65 0 01-.211-.485c0-.19.07-.35.21-.484a.723.723 0 01.516-.203c.2 0 .37.068.51.203a.636.636 0 01.216.484.644.644 0 01-.216.484.716.716 0 01-.51.2zm3.045 3.306V46.5h-1.148v-5.9h1.102v.96h.073c.136-.313.349-.563.638-.753.292-.19.66-.284 1.102-.284.403 0 .755.084 1.057.253.302.167.536.415.703.745.166.33.25.74.25 1.226V46.5h-1.15v-3.615c0-.428-.11-.762-.333-1.002-.223-.244-.53-.365-.918-.365a1.44 1.44 0 00-.711.172 1.244 1.244 0 00-.488.508c-.118.22-.177.486-.177.798z" fill="#000"/><path d="M48.228 59.5v-6.883h2.407c.479 0 .875.083 1.186.249.311.163.543.384.696.662.152.275.228.581.228.917 0 .296-.052.54-.158.733-.103.193-.24.345-.41.457-.168.112-.35.195-.548.249v.067c.211.014.423.087.636.222.212.134.39.327.534.578.143.251.215.558.215.92 0 .346-.078.656-.235.932-.157.276-.405.494-.743.655-.338.162-.779.242-1.32.242h-2.488zm.834-.74h1.653c.545 0 .931-.104 1.16-.315.23-.213.346-.47.346-.773 0-.233-.06-.448-.178-.645a1.29 1.29 0 00-.508-.478 1.591 1.591 0 00-.78-.181h-1.694v2.393zm0-3.118h1.546c.25 0 .477-.05.678-.148.204-.099.366-.238.484-.417.121-.18.182-.39.182-.632 0-.302-.105-.559-.316-.77-.21-.212-.544-.319-1.002-.319h-1.572v2.286zm4.756-2.286v-.74h5.163v.74h-2.165V59.5h-.834v-6.144h-2.164zm11.512 1.412h-.833a1.732 1.732 0 00-.703-1.089 1.882 1.882 0 00-.575-.282 2.293 2.293 0 00-.658-.094 2.1 2.1 0 00-1.133.316c-.336.21-.604.52-.803.93-.197.41-.296.914-.296 1.51s.099 1.099.296 1.509c.2.41.467.72.803.93a2.1 2.1 0 001.133.317c.228 0 .448-.032.658-.094a1.91 1.91 0 00.575-.28 1.772 1.772 0 00.703-1.092h.833a2.777 2.777 0 01-.343.945 2.582 2.582 0 01-1.448 1.15c-.305.1-.63.15-.978.15-.587 0-1.11-.143-1.566-.43a2.953 2.953 0 01-1.08-1.223c-.262-.529-.393-1.156-.393-1.882s.131-1.354.394-1.883a2.952 2.952 0 011.079-1.223c.457-.287.979-.43 1.566-.43.347 0 .673.05.978.151.307.1.584.249.83.444.246.192.453.428.618.706.166.275.28.59.343.944z" fill="#000" fill-opacity=".5"/><path d="M174.737 47.894v-9.833h.63v9.833h-.63zm1.971-6.783a1.122 1.122 0 00-.507-.845c-.297-.203-.671-.304-1.122-.304-.322 0-.602.051-.837.154a1.29 1.29 0 00-.55.415.98.98 0 00-.192.595c0 .187.044.348.131.484.09.136.206.25.35.342.146.09.302.165.468.227.167.058.327.107.48.146l.769.2c.251.06.508.144.772.249.263.105.508.243.733.415.226.171.408.384.546.638.141.253.211.556.211.91 0 .445-.115.841-.346 1.187-.228.346-.559.618-.994.818-.433.2-.957.3-1.572.3-.589 0-1.098-.094-1.528-.28a2.356 2.356 0 01-1.011-.796c-.243-.346-.377-.755-.403-1.23h1.191c.023.285.115.522.276.712a1.5 1.5 0 00.627.418c.256.09.536.135.841.135.335 0 .634-.053.895-.158.264-.107.471-.256.622-.445a1.06 1.06 0 00.227-.673.826.826 0 00-.2-.572 1.483 1.483 0 00-.534-.369 5.212 5.212 0 00-.757-.257l-.929-.254c-.63-.171-1.13-.423-1.498-.756-.367-.333-.55-.774-.55-1.322 0-.453.123-.849.369-1.187.246-.338.579-.6.999-.787a3.42 3.42 0 011.421-.284c.533 0 1.003.093 1.41.28.41.187.732.444.968.772.235.325.358.7.369 1.122h-1.145zm5.331-2.067v7.867h-1.191v-6.676h-.046l-1.882 1.23v-1.138l1.963-1.283h1.156zm4.897 0v7.867h-1.191v-6.676h-.046l-1.883 1.23v-1.138l1.963-1.283h1.157zm2.176 7.867l3.434-6.791v-.058h-3.971v-1.018h5.201v1.053l-3.423 6.814h-1.241zm5.94-1.075l-.057.418a6.844 6.844 0 01-.196.96 15.3 15.3 0 01-.28.934c-.095.287-.173.515-.235.684h-.814c.033-.16.079-.374.138-.646.059-.269.117-.57.173-.902.056-.333.099-.673.127-1.018l.038-.43h1.106zm3.425-6.792v7.867h-1.191v-6.676h-.046l-1.882 1.23v-1.138l1.962-1.283h1.157zm4.508 7.975c-.481 0-.914-.093-1.298-.277a2.36 2.36 0 01-.915-.768 2.032 2.032 0 01-.364-1.114h1.152c.028.338.178.616.449.833.272.218.597.327.976.327.302 0 .57-.07.803-.208.235-.14.42-.334.553-.58.136-.245.204-.526.204-.84 0-.32-.07-.607-.208-.857a1.53 1.53 0 00-.572-.592 1.616 1.616 0 00-.83-.219c-.238 0-.477.041-.718.123-.241.082-.436.19-.584.323l-1.087-.162.442-3.964h4.325v1.018h-3.338l-.25 2.201h.046c.154-.148.357-.273.611-.372.256-.1.53-.15.822-.15a2.408 2.408 0 012.166 1.275c.218.392.326.843.323 1.352.003.51-.113.964-.346 1.364-.23.4-.55.714-.96.945-.407.228-.874.342-1.402.342zm6.634 0c-.528 0-.999-.091-1.414-.273a2.404 2.404 0 01-.98-.757 2.01 2.01 0 01-.384-1.13h1.207c.015.234.093.436.234.608.143.169.33.3.561.392.23.092.486.138.768.138.31 0 .584-.054.822-.161a1.35 1.35 0 00.565-.45 1.15 1.15 0 00.203-.672 1.21 1.21 0 00-.203-.695 1.33 1.33 0 00-.588-.477c-.256-.115-.566-.173-.93-.173h-.664v-.968h.664c.292 0 .548-.052.769-.157.222-.105.396-.251.522-.438a1.18 1.18 0 00.188-.664c0-.244-.055-.455-.165-.634a1.11 1.11 0 00-.461-.427 1.497 1.497 0 00-.699-.153c-.256 0-.496.047-.718.142a1.32 1.32 0 00-.538.4 1.028 1.028 0 00-.223.618h-1.148c.012-.425.138-.8.376-1.122.241-.323.558-.575.953-.757a3.098 3.098 0 011.313-.272c.505 0 .94.098 1.306.295.369.195.653.455.853.78.202.325.302.681.3 1.068.002.44-.121.814-.369 1.122a1.79 1.79 0 01-.983.618v.062c.522.079.927.286 1.213.622.29.335.433.751.431 1.248.002.433-.118.821-.361 1.164-.241.343-.57.613-.988.81-.417.195-.895.293-1.432.293zm4.556-.035a.746.746 0 01-.542-.223.743.743 0 01-.226-.545c0-.21.075-.39.226-.538a.74.74 0 01.542-.227c.21 0 .39.076.542.227a.726.726 0 01.226.538.74.74 0 01-.107.388.797.797 0 01-.277.276.731.731 0 01-.384.104zm4.545.035c-.482 0-.914-.093-1.298-.277a2.36 2.36 0 01-.915-.768 2.033 2.033 0 01-.365-1.114h1.153c.028.338.178.616.449.833.272.218.597.327.976.327.302 0 .57-.07.803-.208.235-.14.42-.334.553-.58.136-.245.203-.526.203-.84 0-.32-.069-.607-.207-.857a1.53 1.53 0 00-.572-.592 1.619 1.619 0 00-.83-.219c-.238 0-.478.041-.718.123-.241.082-.436.19-.584.323l-1.087-.162.441-3.964h4.326v1.018h-3.338l-.25 2.201h.046c.154-.148.357-.273.611-.372.256-.1.53-.15.822-.15a2.408 2.408 0 012.166 1.275c.218.392.325.843.323 1.352.002.51-.113.964-.346 1.364-.23.4-.55.714-.96.945-.407.228-.875.342-1.402.342zm6.491 0c-.481 0-.914-.093-1.298-.277a2.356 2.356 0 01-.914-.768 2.025 2.025 0 01-.365-1.114h1.152c.028.338.178.616.45.833.271.218.596.327.975.327.302 0 .57-.07.803-.208.236-.14.42-.334.553-.58.136-.245.204-.526.204-.84 0-.32-.069-.607-.208-.857a1.53 1.53 0 00-.572-.592 1.616 1.616 0 00-.83-.219c-.238 0-.477.041-.718.123a1.67 1.67 0 00-.584.323l-1.087-.162.442-3.964h4.325v1.018h-3.338l-.25 2.201h.046c.154-.148.358-.273.611-.372.256-.1.53-.15.822-.15a2.408 2.408 0 012.167 1.275c.217.392.325.843.322 1.352.003.51-.112.964-.345 1.364-.231.4-.551.714-.961.945-.407.228-.874.342-1.402.342z" fill="#000"/><path d="M199.958 58.163v-4.22h.84v4.22h-.84zm-1.688-1.691v-.837h4.219v.837h-4.219zm7.899-3.627v6.392h-.967v-5.425h-.038l-1.529 1v-.925l1.595-1.042h.939zm1.812 6.451a.605.605 0 01-.44-.181.603.603 0 01-.184-.443.59.59 0 01.184-.437.6.6 0 01.44-.184.6.6 0 01.44.184.59.59 0 01.184.437c0 .114-.029.22-.087.315a.642.642 0 01-.225.225.597.597 0 01-.312.084zm3.631.028c-.447 0-.843-.077-1.186-.23a1.939 1.939 0 01-.802-.638 1.529 1.529 0 01-.287-.923 1.633 1.633 0 01.63-1.317 1.44 1.44 0 01.656-.294v-.037a1.287 1.287 0 01-.765-.512 1.5 1.5 0 01-.284-.911 1.494 1.494 0 01.259-.874 1.81 1.81 0 01.727-.609 2.405 2.405 0 011.052-.221c.389 0 .737.074 1.042.224.308.148.551.35.728.609.176.256.266.546.268.87a1.52 1.52 0 01-.293.912 1.303 1.303 0 01-.756.512v.037c.24.042.455.14.646.294.194.151.348.342.462.57a1.63 1.63 0 01-.115 1.67c-.194.27-.462.483-.805.637a2.838 2.838 0 01-1.177.231zm0-.79c.264 0 .493-.043.687-.13a1.07 1.07 0 00.449-.372c.106-.16.16-.347.162-.562a1.055 1.055 0 00-.174-.59 1.176 1.176 0 00-.459-.402 1.455 1.455 0 00-.665-.147c-.252 0-.475.049-.671.147-.196.097-.35.232-.462.402a1.036 1.036 0 00-.165.59.991.991 0 00.153.562c.106.158.257.282.452.371.196.088.427.132.693.132zm0-2.974c.212 0 .401-.043.565-.128a.974.974 0 00.534-.89.985.985 0 00-.144-.524.905.905 0 00-.384-.346 1.246 1.246 0 00-.571-.125 1.28 1.28 0 00-.58.125.905.905 0 00-.384.346.963.963 0 00-.135.525.975.975 0 00.138.533.96.96 0 00.387.356c.166.085.358.128.574.128zm3.218 3.677v-.7l2.162-2.24c.231-.244.422-.457.572-.64.151-.185.265-.361.34-.527.075-.167.112-.344.112-.531a.986.986 0 00-.15-.55.978.978 0 00-.409-.358 1.297 1.297 0 00-.583-.128 1.22 1.22 0 00-.599.14.964.964 0 00-.394.396c-.091.171-.137.37-.137.6h-.921c0-.39.09-.73.269-1.02.179-.292.424-.518.736-.678a2.274 2.274 0 011.065-.243c.401 0 .755.08 1.061.24.308.158.548.374.721.649.172.273.259.58.259.924 0 .237-.045.469-.135.696-.087.227-.24.48-.458.758a13.11 13.11 0 01-.912 1.008l-1.27 1.33v.047h2.878v.827h-4.207zm8.55-1.199v-.337c0-.241.05-.462.15-.662.102-.201.25-.363.443-.483.196-.123.432-.184.709-.184.283 0 .52.06.711.18.192.121.336.283.434.484.1.202.15.424.15.665v.337c0 .242-.05.463-.15.665-.1.2-.247.361-.44.484a1.3 1.3 0 01-.705.18 1.32 1.32 0 01-.712-.18 1.198 1.198 0 01-.44-.484c-.1-.202-.15-.423-.15-.665zm.727-.337v.337c0 .18.043.342.128.487.086.146.234.219.447.219.21 0 .356-.073.44-.219a.965.965 0 00.124-.487v-.337a.984.984 0 00-.121-.487c-.079-.145-.227-.218-.443-.218-.209 0-.356.073-.444.218a.931.931 0 00-.131.487zm-3.942-3.32v-.338c0-.241.05-.463.15-.664a1.2 1.2 0 01.443-.484c.196-.12.432-.181.709-.181.283 0 .52.06.712.18.191.122.336.283.433.485.098.201.147.423.147.664v.337c0 .242-.05.463-.15.665-.098.2-.243.361-.437.484a1.3 1.3 0 01-.705.181c-.283 0-.521-.06-.715-.181a1.211 1.211 0 01-.437-.484c-.1-.202-.15-.423-.15-.665zm.731-.338v.337c0 .18.041.342.125.487.085.146.234.219.446.219.208 0 .354-.073.437-.219a.949.949 0 00.128-.487v-.337a.985.985 0 00-.122-.486c-.081-.146-.229-.219-.443-.219-.208 0-.356.073-.443.218a.939.939 0 00-.128.487zm-.434 5.194l4.394-6.392h.746l-4.394 6.392h-.746z" fill="#379E2D"/><rect x="13.521" y="72.682" width="25.69" height="25.69" rx="12.845" fill="#EBEBEB"/><g clip-path="url(#clip2_85_1251)" stroke="#000" stroke-width="1.805" stroke-linecap="round" stroke-linejoin="round"><path d="M20.959 85.527l5.408-8.113 5.409 8.113-5.409 8.112-5.408-8.112z"/><path d="M20.96 85.527l5.408-2.704 5.408 2.704-5.408 1.803-5.409-1.803z"/></g><path d="M48.197 83.006v-7.867h4.933v1.022h-3.745v2.397h3.487v1.017h-3.487v2.409h3.79v1.022h-4.977zm8.964-5.9v.921h-3.223v-.921h3.223zm-2.359-1.414h1.149v5.581c0 .223.033.39.1.503a.52.52 0 00.257.227c.108.038.224.058.35.058.092 0 .172-.007.242-.02l.16-.03.208.949a2.243 2.243 0 01-.745.123 2.02 2.02 0 01-.845-.162 1.45 1.45 0 01-.634-.522c-.161-.236-.242-.532-.242-.888v-5.82zm4.688 3.81v3.504h-1.148v-7.867h1.133v2.927h.073c.138-.318.35-.57.634-.757.284-.187.655-.28 1.114-.28.404 0 .758.083 1.06.25.304.166.54.414.707.745.169.327.253.737.253 1.229v3.753h-1.148V79.39c0-.433-.112-.768-.335-1.006-.222-.241-.532-.362-.93-.362-.27 0-.514.058-.729.173-.213.116-.38.285-.503.507-.12.22-.18.487-.18.8zm7.685 3.623c-.581 0-1.082-.124-1.502-.373a2.528 2.528 0 01-.968-1.056c-.225-.456-.338-.99-.338-1.602 0-.604.113-1.137.338-1.598.228-.46.546-.82.953-1.08.41-.258.889-.387 1.437-.387a2.9 2.9 0 01.968.165c.312.11.592.283.84.518.25.236.445.542.588.918.144.374.216.829.216 1.364v.407h-4.69v-.86h3.564c0-.302-.061-.57-.184-.803a1.395 1.395 0 00-.519-.557 1.449 1.449 0 00-.776-.204 1.5 1.5 0 00-.845.239 1.599 1.599 0 00-.553.614 1.775 1.775 0 00-.192.818v.673c0 .394.07.73.207 1.006a1.5 1.5 0 00.588.634c.251.143.544.215.88.215.218 0 .416-.03.595-.092a1.234 1.234 0 00.764-.749l1.088.196c-.087.32-.244.6-.469.84a2.27 2.27 0 01-.841.558c-.336.13-.718.196-1.149.196zm3.59-.12v-5.9h1.11v.938h.061c.108-.318.297-.568.569-.75a1.63 1.63 0 01.93-.276 4.935 4.935 0 01.487.027v1.099a2.048 2.048 0 00-.246-.043 2.336 2.336 0 00-.353-.026 1.5 1.5 0 00-.726.172 1.284 1.284 0 00-.684 1.157v3.603h-1.148zm6.266.12c-.581 0-1.082-.124-1.502-.373a2.528 2.528 0 01-.968-1.056c-.225-.456-.338-.99-.338-1.602 0-.604.113-1.137.338-1.598.228-.46.546-.82.953-1.08.41-.258.889-.387 1.437-.387.333 0 .655.055.968.165.312.11.593.283.84.518.25.236.445.542.589.918.143.374.215.829.215 1.364v.407h-4.69v-.86h3.564c0-.302-.061-.57-.184-.803a1.395 1.395 0 00-.519-.557 1.45 1.45 0 00-.776-.204 1.5 1.5 0 00-.845.239 1.598 1.598 0 00-.553.614 1.774 1.774 0 00-.192.818v.673c0 .394.07.73.208 1.006a1.5 1.5 0 00.587.634c.251.143.544.215.88.215.217 0 .416-.03.595-.092a1.236 1.236 0 00.764-.749l1.088.196c-.087.32-.243.6-.469.84a2.271 2.271 0 01-.841.558c-.336.13-.718.196-1.149.196zm7.327-2.566v-3.453h1.153v5.9h-1.13v-1.022h-.061a1.841 1.841 0 01-.653.787c-.297.208-.667.311-1.11.311a1.99 1.99 0 01-1.007-.25 1.755 1.755 0 01-.683-.748c-.164-.33-.246-.74-.246-1.226v-3.752h1.148v3.614c0 .402.112.722.334.96.223.238.513.358.869.358.215 0 .428-.054.641-.162.215-.107.393-.27.534-.488.143-.217.214-.494.211-.83zm2.48 2.447v-5.9h1.102v.96h.073c.123-.325.324-.579.603-.76.28-.185.613-.277 1.002-.277.395 0 .725.092.992.276.268.185.467.438.595.76h.061a1.66 1.66 0 01.673-.752c.307-.19.673-.284 1.098-.284.535 0 .972.167 1.31.503.34.335.51.841.51 1.517v3.957H93.71v-3.85c0-.399-.108-.688-.326-.867a1.187 1.187 0 00-.78-.27c-.374 0-.664.116-.872.346-.207.228-.311.522-.311.88v3.76h-1.145v-3.921c0-.32-.1-.578-.3-.772-.199-.195-.459-.292-.779-.292-.218 0-.419.057-.603.173-.182.112-.33.27-.442.472-.11.202-.165.437-.165.703v3.638h-1.148z" fill="#000"/><path d="M48.333 96.007v-6.883h4.154v.74h-3.32v2.325h3.105v.74h-3.105v2.339h3.374v.74h-4.208zm5.09-6.144v-.74h5.163v.74h-2.164v6.144h-.834v-6.144h-2.164zm6.26 6.144v-6.883h.834v3.065h3.67v-3.065h.834v6.883h-.834V92.93h-3.67v3.078h-.833z" fill="#000" fill-opacity=".5"/><path d="M180.691 84.401v-9.833h.63V84.4h-.63zm1.97-6.783a1.123 1.123 0 00-.507-.845c-.297-.203-.671-.304-1.121-.304-.323 0-.602.051-.838.154-.235.1-.418.238-.549.415a.98.98 0 00-.192.595.87.87 0 00.131.484c.089.136.206.25.349.342.146.09.302.165.469.227.166.058.326.107.48.145l.768.2c.251.062.508.145.772.25.264.105.509.243.734.415.225.171.407.384.545.638.141.253.212.556.212.91 0 .445-.116.841-.346 1.187-.228.346-.56.618-.995.818-.433.2-.956.3-1.571.3-.589 0-1.099-.094-1.529-.28a2.353 2.353 0 01-1.01-.796 2.302 2.302 0 01-.403-1.23h1.19c.023.285.116.522.277.712.164.186.373.326.626.418.256.09.537.135.841.135.336 0 .634-.053.895-.158.264-.107.471-.256.623-.445.151-.192.226-.417.226-.673a.821.821 0 00-.2-.572 1.469 1.469 0 00-.533-.369 5.224 5.224 0 00-.757-.257l-.93-.254c-.63-.171-1.129-.424-1.498-.756-.366-.333-.549-.774-.549-1.322 0-.453.123-.849.369-1.187.245-.338.578-.6.998-.787.42-.19.894-.284 1.422-.284.532 0 1.002.093 1.409.28.41.187.733.444.968.772.236.325.359.7.369 1.122h-1.145zm5.086 5.907a3.49 3.49 0 01-1.414-.272 2.401 2.401 0 01-.979-.757 2.01 2.01 0 01-.384-1.13h1.206c.015.234.093.436.234.608.144.169.331.3.561.391.23.093.487.139.768.139.31 0 .584-.054.822-.162a1.34 1.34 0 00.565-.449c.136-.195.203-.419.203-.672 0-.264-.067-.496-.203-.696a1.324 1.324 0 00-.588-.476c-.256-.115-.566-.173-.929-.173h-.665v-.968h.665c.292 0 .548-.052.768-.157.223-.105.397-.251.522-.438.126-.19.188-.411.188-.665 0-.243-.055-.454-.165-.633a1.105 1.105 0 00-.461-.427 1.495 1.495 0 00-.699-.153c-.256 0-.495.047-.718.142-.22.092-.4.225-.538.4a1.034 1.034 0 00-.223.618h-1.148c.013-.425.138-.8.376-1.122a2.44 2.44 0 01.953-.757 3.1 3.1 0 011.314-.272c.504 0 .939.098 1.306.295.368.195.653.455.852.78.203.325.303.681.3 1.068.003.44-.12.814-.369 1.122a1.787 1.787 0 01-.983.618v.061c.522.08.927.287 1.214.623.289.335.433.751.43 1.248.003.433-.118.82-.361 1.164-.241.343-.57.613-.987.81-.418.195-.895.292-1.433.292zm5.294-1.183l-.058.42a6.704 6.704 0 01-.196.96c-.089.335-.183.646-.28.933a28.53 28.53 0 01-.234.684h-.815l.139-.646c.058-.269.116-.57.172-.902.057-.333.099-.673.127-1.018l.039-.43h1.106zm3.784 1.183c-.55 0-1.037-.094-1.46-.284a2.39 2.39 0 01-.987-.783 1.883 1.883 0 01-.353-1.137 2.001 2.001 0 01.776-1.621c.241-.19.509-.31.806-.361v-.046a1.591 1.591 0 01-.941-.63 1.843 1.843 0 01-.349-1.122c-.003-.402.104-.76.319-1.076a2.22 2.22 0 01.895-.749c.379-.181.81-.272 1.294-.272.479 0 .907.092 1.283.276.379.182.677.432.895.75.218.314.328.671.33 1.07a1.86 1.86 0 01-.361 1.122 1.6 1.6 0 01-.929.63v.047c.294.05.559.171.795.36.238.188.428.422.568.704a2 2 0 01.219.918 1.923 1.923 0 01-.361 1.137 2.382 2.382 0 01-.991.783c-.42.19-.902.284-1.448.284zm0-.971c.325 0 .607-.054.845-.162.238-.11.423-.262.553-.457.131-.197.198-.427.2-.691a1.29 1.29 0 00-.215-.726 1.438 1.438 0 00-.565-.496 1.79 1.79 0 00-.818-.18c-.31 0-.585.06-.826.18-.24.12-.43.286-.568.496-.139.21-.206.452-.204.726-.002.264.06.494.188.691.131.195.317.347.557.457.241.108.525.162.853.162zm0-3.661c.261 0 .493-.052.695-.157a1.194 1.194 0 00.657-1.095 1.214 1.214 0 00-.176-.646 1.127 1.127 0 00-.473-.426 1.535 1.535 0 00-.703-.154c-.271 0-.509.052-.714.154a1.122 1.122 0 00-.638 1.072 1.2 1.2 0 00.169.657c.115.187.274.332.476.438.205.105.441.157.707.157zm4.225 4.525l3.434-6.791v-.058h-3.972v-1.018h5.201v1.053l-3.422 6.814h-1.241zm8.768-7.867v7.867h-1.191v-6.676h-.046l-1.883 1.23v-1.138l1.963-1.283h1.157zm2.229 7.94a.748.748 0 01-.542-.223.743.743 0 01-.226-.545c0-.21.075-.39.226-.538a.741.741 0 01.542-.227.74.74 0 01.542.227.726.726 0 01.226.538.74.74 0 01-.107.388.796.796 0 01-.277.276.73.73 0 01-.384.104zm2.075-.073v-.86l2.662-2.759c.284-.3.519-.562.703-.787a2.99 2.99 0 00.419-.65 1.57 1.57 0 00.138-.652c0-.261-.062-.487-.184-.676a1.205 1.205 0 00-.504-.442 1.598 1.598 0 00-.718-.157c-.282 0-.527.057-.737.172a1.18 1.18 0 00-.484.488c-.113.21-.169.456-.169.738h-1.134c0-.48.11-.898.331-1.256.22-.359.522-.637.906-.834.384-.2.821-.3 1.31-.3.494 0 .93.1 1.306.296.379.195.675.461.887.8.213.335.319.714.319 1.136 0 .292-.055.578-.165.857-.107.28-.296.59-.565.933-.268.34-.642.754-1.121 1.241l-1.564 1.636v.058h3.542v1.018h-5.178zm9.156.13c-.607-.002-1.125-.162-1.555-.48-.431-.317-.76-.78-.988-1.386-.227-.607-.341-1.338-.341-2.194 0-.852.114-1.58.341-2.185.231-.605.561-1.066.991-1.383.433-.318.951-.476 1.552-.476.602 0 1.118.16 1.548.48.431.317.76.778.988 1.383.23.601.345 1.329.345 2.181 0 .858-.114 1.59-.342 2.198-.228.604-.557 1.066-.987 1.386-.43.318-.947.477-1.552.477zm0-1.025c.533 0 .949-.26 1.249-.78.302-.52.453-1.271.453-2.255 0-.653-.069-1.204-.207-1.655-.136-.453-.332-.797-.588-1.03a1.288 1.288 0 00-.907-.353c-.53 0-.946.261-1.248.784-.302.522-.455 1.274-.457 2.254 0 .656.068 1.21.203 1.664.139.45.335.792.588 1.025.254.23.558.346.914.346z" fill="#000"/><path d="M198.522 94.67v-4.22h.84v4.22h-.84zm-1.688-1.692v-.836h4.219v.836h-4.219zm7.584 2.853c-.391 0-.743-.075-1.055-.225a1.923 1.923 0 01-.743-.624 1.645 1.645 0 01-.296-.905h.936c.023.275.145.5.365.677.221.177.485.266.793.266a1.205 1.205 0 001.102-.64c.11-.2.165-.428.165-.684 0-.26-.056-.492-.168-.696a1.253 1.253 0 00-.465-.48 1.315 1.315 0 00-.674-.178c-.194 0-.388.033-.584.1a1.345 1.345 0 00-.474.262l-.884-.131.359-3.221h3.514v.827h-2.712l-.203 1.788h.038c.125-.12.29-.221.496-.302.208-.082.431-.122.668-.122a1.954 1.954 0 011.76 1.036c.177.318.265.684.262 1.099a2.13 2.13 0 01-.28 1.108 2.04 2.04 0 01-.781.767c-.331.186-.71.278-1.139.278zm3.56-.028a.607.607 0 01-.44-.181.603.603 0 01-.184-.443.59.59 0 01.184-.437.602.602 0 01.44-.184.6.6 0 01.44.184.59.59 0 01.184.437c0 .114-.029.22-.087.315a.642.642 0 01-.225.225.591.591 0 01-.312.084zm3.693.028c-.391 0-.743-.075-1.055-.225a1.916 1.916 0 01-.743-.624 1.645 1.645 0 01-.296-.905h.936c.023.275.145.5.365.677.221.177.485.266.793.266.245 0 .463-.057.652-.169.192-.114.341-.272.45-.471.11-.2.165-.428.165-.684 0-.26-.056-.492-.169-.696a1.24 1.24 0 00-.465-.48 1.31 1.31 0 00-.674-.178 1.8 1.8 0 00-.583.1 1.359 1.359 0 00-.475.262l-.883-.131.359-3.221h3.514v.827h-2.712l-.203 1.788h.038c.124-.12.29-.221.496-.302.208-.082.431-.122.668-.122a1.956 1.956 0 011.76 1.036 2.2 2.2 0 01.262 1.099 2.13 2.13 0 01-.281 1.108c-.187.324-.447.58-.78.767a2.294 2.294 0 01-1.139.278zm3.164-.087v-.7l2.163-2.24c.231-.244.422-.457.571-.64.152-.185.266-.361.341-.528.074-.166.112-.343.112-.53a.986.986 0 00-.15-.55.979.979 0 00-.409-.358 1.297 1.297 0 00-.583-.128 1.23 1.23 0 00-.6.14.969.969 0 00-.393.397c-.091.17-.137.37-.137.599h-.921c0-.39.09-.73.269-1.02.178-.292.424-.518.736-.678a2.272 2.272 0 011.064-.243c.402 0 .756.08 1.061.24a1.8 1.8 0 01.721.649c.173.273.259.58.259.924 0 .237-.044.469-.134.696-.087.227-.24.48-.459.758-.218.277-.522.613-.911 1.008l-1.27 1.33v.047h2.877v.827h-4.207zm8.551-1.199v-.337c0-.241.05-.462.15-.662.102-.201.249-.363.443-.483.195-.123.432-.184.708-.184.283 0 .521.06.712.18.191.121.336.282.434.484.1.202.15.424.15.665v.337c0 .242-.05.463-.15.665-.1.2-.247.361-.44.484a1.3 1.3 0 01-.706.18c-.281 0-.518-.06-.711-.18a1.197 1.197 0 01-.44-.484c-.1-.202-.15-.423-.15-.665zm.727-.337v.337c0 .18.043.341.128.487.085.146.234.219.446.219.21 0 .357-.073.44-.219a.956.956 0 00.125-.487v-.337a.985.985 0 00-.121-.487c-.08-.145-.227-.218-.444-.218-.208 0-.355.073-.443.218a.932.932 0 00-.131.487zm-3.942-3.32v-.338c0-.241.05-.463.15-.665a1.2 1.2 0 01.443-.483c.196-.12.432-.181.709-.181.283 0 .52.06.711.18.192.121.336.283.434.484.098.202.147.424.147.665v.337c0 .242-.05.463-.15.665-.098.2-.243.361-.437.484a1.3 1.3 0 01-.705.18c-.283 0-.521-.06-.715-.18a1.212 1.212 0 01-.437-.484c-.1-.202-.15-.423-.15-.665zm.731-.338v.337c0 .18.041.342.124.487.086.146.234.219.447.219.208 0 .353-.073.437-.219a.949.949 0 00.128-.487v-.337a.985.985 0 00-.122-.487c-.081-.145-.229-.218-.443-.218-.208 0-.356.073-.443.218a.94.94 0 00-.128.487zm-.434 5.194l4.394-6.392h.746l-4.394 6.392h-.746z" fill="#379E2D"/><defs><clipPath id="clip0_85_1251"><path fill="#fff" transform="translate(49.955 12.44)" d="M0 0h8.113v8.113H0z"/></clipPath><clipPath id="clip1_85_1251"><path fill="#fff" transform="translate(18.254 40.907)" d="M0 0h16.225v16.225H0z"/></clipPath><clipPath id="clip2_85_1251"><path fill="#fff" transform="translate(20.959 77.414)" d="M0 0h10.817v16.225H0z"/></clipPath></defs></svg>