<svg width="106" height="44" viewBox="0 0 106 44" fill="none" xmlns="http://www.w3.org/2000/svg"><rect width="106" height="37" rx="18.5" fill="#000" fill-opacity=".01"/><g filter="url(#filter1_d_85_1183)"><rect x="14" y="9" width="19" height="19" rx="9.5" fill="#F5B300" shape-rendering="crispEdges"/><path d="M20.162 13.368c.349.095.698.159 1.047.254s.698.158 1.046.254c.096.031.127 0 .159-.096.127-.539.254-1.046.38-1.585.032-.096.064-.127.16-.096.316.096.602.159.919.222.095.032.095.064.063.127-.127.508-.253 1.047-.38 1.554 0 .032 0 .064-.032.127.254.064.54.127.793.19.032 0 .063-.063.095-.095.095-.412.19-.793.317-1.205l.095-.38c0-.064.032-.096.095-.064.318.095.635.159.984.254.031 0 .031.032.063.032-.095.412-.19.792-.285 1.173a2.636 2.636 0 01-.127.476c-.032.095 0 .127.095.158l1.047.476c.317.19.602.444.824.761.286.476.317.984.19 1.491-.095.349-.222.666-.475.92-.19.19-.444.317-.698.412-.032 0-.063.032-.127.032.127.095.254.158.38.254a2 2 0 01.762 1.078c.063.349.032.73-.064 1.078-.126.444-.285.825-.57 1.174a1.97 1.97 0 01-1.3.697c-.667.096-1.301.032-1.935-.063-.096-.032-.159 0-.19.095-.128.508-.254 1.047-.381 1.554-.032.127-.032.159-.19.096-.286-.064-.603-.16-.889-.223-.095-.031-.095-.063-.063-.126.127-.54.254-1.079.412-1.586 0-.064.032-.095-.032-.127a30.334 30.334 0 00-.792-.19c-.064.285-.159.57-.222.856-.064.285-.159.57-.222.856-.032.064-.032.095-.127.064a10.227 10.227 0 00-.952-.222c-.095-.032-.095-.064-.063-.127.127-.54.253-1.078.412-1.586 0-.032.032-.063.032-.127-.73-.19-1.46-.38-2.22-.57.063-.128.095-.223.158-.35.127-.285.254-.57.35-.824.03-.095.063-.095.158-.095.222.063.476.127.698.158.253.064.444-.063.475-.285.413-1.618.825-3.235 1.205-4.885.064-.253-.095-.539-.38-.634-.286-.095-.571-.158-.825-.222-.063 0-.095-.032-.063-.095.095-.349.19-.73.285-1.078-.127.095-.127.095-.095.063zm1.618 7.834c.031 0 .063.032.063.032.508.127 1.047.285 1.586.317.38.032.73.032 1.078-.095.603-.19.856-.983.508-1.491-.159-.254-.413-.412-.666-.57-.571-.318-1.237-.445-1.872-.572-.095-.032-.095 0-.127.095-.063.318-.158.603-.222.92-.126.444-.221.888-.348 1.364zm2.664-3.235c.063 0 .222-.032.349-.063a.924.924 0 00.602-1.364c-.158-.286-.444-.476-.73-.603-.443-.19-.887-.285-1.363-.412-.095-.032-.127 0-.159.095a44.35 44.35 0 01-.507 1.966c-.032.064 0 .096.063.127.127.032.222.064.35.095.475.064.887.159 1.395.159z" fill="#140903"/></g><path d="M44.71 24.5h-4.85V12.828h4.788c1.094 0 2.258.188 3.086.883.766.648 1.04 1.523 1.04 2.383 0 .922-.383 1.836-1.266 2.437a2.966 2.966 0 011.547 2.617c0 2.266-1.766 3.352-4.344 3.352zm0-10.125h-3.148v3.438h3.149c1.516 0 2.352-.415 2.352-1.72 0-1.273-.86-1.718-2.352-1.718zm.102 4.977h-3.25v3.609h3.235c1.531 0 2.555-.484 2.555-1.813 0-1.304-1.032-1.796-2.54-1.796zm14.477-4.977h-3.758V24.5h-1.71V14.375h-3.743v-1.547h9.211v1.547zm6.445 10.344a6.756 6.756 0 01-2.023-.305 5.377 5.377 0 01-3.25-2.758 6.828 6.828 0 01-.695-2.992c0-1.875.804-4.14 2.828-5.258a6.305 6.305 0 013.14-.804c3.305 0 5.344 2.132 5.782 4.64l.023.149h-1.734l-.032-.094c-.023-.078-.03-.149-.054-.227a4.151 4.151 0 00-.352-.922c-.672-1.242-1.96-2.046-3.633-2.046-.593 0-1.156.101-1.68.328-1.85.765-2.546 2.586-2.546 4.234 0 1.633.703 3.484 2.539 4.234a4.41 4.41 0 001.687.32c2.125 0 3.57-1.28 3.985-2.952.023-.07.023-.149.039-.22l.023-.108h1.758l-.023.148c-.43 2.508-2.485 4.633-5.782 4.633zm18.572-10.713l4.063 4.063a.61.61 0 010 .863l-4.063 4.063a.61.61 0 01-.863-.864l3.631-3.631-3.632-3.631a.61.61 0 01.864-.864v.001z" fill="#fff"/><defs><filter id="filter1_d_85_1183" x="2" y="1" width="43" height="43" filterUnits="userSpaceOnUse" color-interpolation-filters="sRGB"><feFlood flood-opacity="0" result="BackgroundImageFix"/><feColorMatrix in="SourceAlpha" values="0 0 0 0 0 0 0 0 0 0 0 0 0 0 0 0 0 0 127 0" result="hardAlpha"/><feOffset dy="4"/><feGaussianBlur stdDeviation="6"/><feComposite in2="hardAlpha" operator="out"/><feColorMatrix values="0 0 0 0 0 0 0 0 0 0 0 0 0 0 0 0 0 0 0.1 0"/><feBlend in2="BackgroundImageFix" result="effect1_dropShadow_85_1183"/><feBlend in="SourceGraphic" in2="effect1_dropShadow_85_1183" result="shape"/></filter></defs></svg>