<svg width="93" height="37" viewBox="0 0 93 37" fill="none" xmlns="http://www.w3.org/2000/svg"><rect width="93" height="37" rx="18.5" fill="#000" fill-opacity=".01"/><path d="M16.312 21.117a.438.438 0 01.312-.13h10.774c.196 0 .294.24.155.38l-2.129 2.148a.438.438 0 01-.31.13H14.338c-.196 0-.294-.239-.156-.38l2.13-2.148z" fill="url(#paint0_linear_85_1179)"/><path d="M16.312 13.088a.438.438 0 01.312-.13h10.774c.196 0 .294.24.155.38l-2.129 2.15a.438.438 0 01-.31.13H14.338c-.196 0-.294-.24-.156-.38l2.13-2.15z" fill="url(#paint1_linear_85_1179)"/><path d="M25.424 17.077a.438.438 0 00-.31-.13H14.338c-.196 0-.294.24-.156.38l2.13 2.149c.082.083.194.13.31.13h10.775c.196 0 .294-.24.155-.38l-2.129-2.149z" fill="url(#paint2_linear_85_1179)"/><path d="M41.36 24.703c-2.038 0-3.663-.883-4.32-2.5a4.7 4.7 0 01-.281-1.21l-.031-.29h1.781l.031.242c.078.633.29 1.149.828 1.602.532.453 1.22.617 1.993.617.586 0 1.195-.078 1.687-.312.695-.329 1.11-.868 1.11-1.532 0-.398-.141-.78-.446-1.07-.258-.242-.781-.406-1.195-.523-.594-.172-1.219-.282-1.836-.399-.625-.125-1.25-.265-1.836-.484-1.477-.555-2.07-1.469-2.07-2.79 0-2.116 2.21-3.406 4.586-3.406 2.039 0 3.664.891 4.32 2.516a4.8 4.8 0 01.281 1.211l.031.29h-1.78l-.032-.25a2.72 2.72 0 00-.172-.704c-.398-.992-1.39-1.524-2.648-1.524-.594 0-1.18.079-1.68.32-.711.345-1.117.86-1.117 1.532 0 .406.125.773.445 1.07.258.243.766.407 1.188.524.593.172 1.218.281 1.828.398 2.218.438 3.922 1.032 3.922 3.274 0 2.117-2.22 3.398-4.586 3.398zm10.243-.015c-2.883 0-4.36-2.399-4.36-4.454 0-2.047 1.477-4.437 4.36-4.437s4.36 2.39 4.36 4.437c0 2.055-1.47 4.453-4.36 4.453zm0-1.485c.492 0 .914-.133 1.328-.367.953-.547 1.336-1.64 1.336-2.602 0-.937-.39-2.07-1.336-2.601a2.68 2.68 0 00-1.328-.36 2.7 2.7 0 00-1.328.36c-.938.531-1.336 1.664-1.336 2.601 0 .961.383 2.055 1.343 2.602a2.57 2.57 0 001.32.367zm7.554 1.313c-1.546 0-1.945-1.078-1.945-2.07v-9.618h1.68v9.485c0 .093 0 .195.008.289.008.093.023.171.047.242.054.117.14.195.374.195.227 0 .462-.016.688-.031h.164v1.469l-.148.007c-.29.016-.578.032-.867.032zM73.282 13.66l4.145 4.376a.661.661 0 01.182.465.687.687 0 01-.182.464l-4.145 4.375a.606.606 0 01-.44.193.607.607 0 01-.44-.193.676.676 0 01-.183-.464c0-.175.065-.342.182-.465l3.705-3.911-3.705-3.91a.676.676 0 01-.183-.466c0-.174.066-.341.183-.464a.607.607 0 01.44-.193c.165 0 .324.07.44.193z" fill="#fff"/><defs><linearGradient id="paint0_linear_85_1179" x1="23.245" y1="10.027" x2="15.669" y2="24.392" gradientUnits="userSpaceOnUse"><stop stop-color="#00FFA3"/><stop offset="1" stop-color="#DC1FFF"/></linearGradient><linearGradient id="paint1_linear_85_1179" x1="23.245" y1="10.027" x2="15.669" y2="24.392" gradientUnits="userSpaceOnUse"><stop stop-color="#00FFA3"/><stop offset="1" stop-color="#DC1FFF"/></linearGradient><linearGradient id="paint2_linear_85_1179" x1="23.245" y1="10.027" x2="15.669" y2="24.392" gradientUnits="userSpaceOnUse"><stop stop-color="#00FFA3"/><stop offset="1" stop-color="#DC1FFF"/></linearGradient></defs></svg>