<svg width="226" height="104" viewBox="0 0 226 104" fill="none" xmlns="http://www.w3.org/2000/svg"><rect width="226" height="47" rx="10" fill="#fff"/><path d="M20.745 29.363V16.636h.815v12.727h-.815zm2.351-8.656a1.357 1.357 0 00-.586-1.014c-.342-.242-.786-.363-1.333-.363-.384 0-.714.058-.99.174a1.464 1.464 0 00-.63.473c-.146.198-.22.425-.224.68 0 .213.048.397.144.552.1.156.234.289.403.398.169.106.356.196.561.269.206.072.413.134.622.183l.954.24c.385.089.755.21 1.11.362.357.153.677.345.959.577.285.232.51.512.676.84.165.328.248.713.248 1.153 0 .597-.152 1.122-.457 1.576-.305.451-.746.804-1.323 1.06-.573.251-1.267.377-2.083.377-.792 0-1.48-.122-2.063-.368-.58-.245-1.034-.603-1.362-1.074-.325-.47-.5-1.044-.527-1.72h1.815c.026.355.135.65.328.885.192.236.442.411.75.527.312.116.66.174 1.044.174.401 0 .753-.06 1.054-.179.305-.122.544-.291.716-.507.173-.219.26-.474.264-.765a.973.973 0 00-.234-.657 1.71 1.71 0 00-.641-.437 6.172 6.172 0 00-.955-.318l-1.158-.299c-.839-.215-1.502-.542-1.989-.98-.484-.44-.726-1.025-.726-1.754 0-.6.163-1.125.488-1.576.328-.45.774-.8 1.337-1.05.564-.251 1.201-.377 1.914-.377.723 0 1.356.126 1.9.378.546.248.975.595 1.287 1.039.311.44.472.948.482 1.521h-1.775z" fill="#636363"/><path d="M33.767 17.864V29.5h-2.108v-9.585h-.068l-2.722 1.738v-1.931l2.892-1.858h2.006zm7.216 11.795c-.557-.004-1.1-.1-1.63-.29a3.835 3.835 0 01-1.433-.937c-.424-.436-.76-1.013-1.01-1.733-.25-.724-.374-1.62-.37-2.688 0-.996.106-1.884.318-2.664.212-.78.517-1.44.915-1.978a4.038 4.038 0 011.437-1.238 4.152 4.152 0 011.892-.427c.731 0 1.38.145 1.944.432a3.66 3.66 0 011.374 1.182c.349.496.565 1.057.648 1.682h-2.074a1.883 1.883 0 00-.653-1.068c-.326-.27-.739-.404-1.239-.404-.806 0-1.428.35-1.863 1.052-.432.7-.65 1.662-.654 2.886h.08c.185-.333.426-.62.721-.858a3.296 3.296 0 011-.551 3.527 3.527 0 011.188-.199 3.49 3.49 0 011.835.489c.546.325.977.774 1.296 1.346.318.568.475 1.22.471 1.955.004.765-.17 1.452-.523 2.062a3.793 3.793 0 01-1.471 1.432c-.629.349-1.362.52-2.199.517zm-.011-1.704c.413 0 .782-.1 1.108-.302.325-.2.583-.471.772-.812.19-.341.283-.724.279-1.148a2.26 2.26 0 00-.273-1.13 2.078 2.078 0 00-.756-.802A2.07 2.07 0 0041 23.466a2.096 2.096 0 00-1.551.665 2.29 2.29 0 00-.636 1.58c.003.405.098.778.284 1.119.185.34.44.613.767.818a2.04 2.04 0 001.108.306zm10.3 1.704c-.817 0-1.545-.14-2.181-.42-.633-.28-1.133-.67-1.5-1.17a3.034 3.034 0 01-.585-1.734h2.136c.019.315.123.59.313.824.189.231.44.411.755.54.315.129.667.193 1.057.193.417 0 .786-.072 1.108-.216a1.82 1.82 0 00.756-.613c.181-.262.27-.563.267-.904a1.57 1.57 0 00-.273-.932c-.186-.269-.455-.479-.807-.63-.348-.152-.769-.228-1.261-.228h-1.029v-1.625h1.029c.405 0 .76-.07 1.062-.21a1.72 1.72 0 00.722-.59c.174-.258.26-.556.256-.893a1.55 1.55 0 00-.222-.858 1.497 1.497 0 00-.63-.574 2.074 2.074 0 00-.95-.204c-.356 0-.685.064-.988.193a1.798 1.798 0 00-.733.551 1.397 1.397 0 00-.296.841H47.25a2.95 2.95 0 01.563-1.716 3.63 3.63 0 011.454-1.159c.606-.28 1.286-.42 2.04-.42.776 0 1.45.145 2.023.437.575.288 1.02.676 1.335 1.165.314.489.471 1.028.471 1.62.004.654-.189 1.204-.58 1.647-.386.443-.893.733-1.522.87v.09c.818.114 1.445.417 1.88.91.44.488.658 1.096.654 1.823a2.92 2.92 0 01-.557 1.75c-.367.511-.875.913-1.522 1.205-.644.291-1.383.437-2.216.437zm10.286-11.954a4.777 4.777 0 011.625.295c.53.19 1.008.5 1.432.932.424.428.761 1.002 1.011 1.721.25.72.375 1.61.375 2.67.004 1-.102 1.895-.318 2.683-.212.784-.517 1.447-.915 1.988a4.037 4.037 0 01-1.437 1.239c-.56.284-1.191.426-1.892.426-.735 0-1.386-.144-1.955-.432a3.67 3.67 0 01-1.369-1.181 3.757 3.757 0 01-.642-1.716h2.074c.106.462.322.83.648 1.102.33.269.744.403 1.244.403.807 0 1.428-.35 1.864-1.05.435-.702.653-1.675.653-2.921h-.08a2.987 2.987 0 01-.721.863c-.296.239-.63.423-1.006.551a3.58 3.58 0 01-1.182.194 3.522 3.522 0 01-1.84-.489 3.568 3.568 0 01-1.29-1.341c-.315-.568-.474-1.218-.478-1.949 0-.757.175-1.437.523-2.04a3.794 3.794 0 011.472-1.431c.629-.353 1.363-.525 2.204-.518zm.006 1.704c-.41 0-.779.1-1.108.301a2.138 2.138 0 00-.773.807 2.305 2.305 0 00-.278 1.13c.004.414.096.789.278 1.126.186.337.438.604.756.8.322.198.69.296 1.102.296a2.095 2.095 0 001.551-.665c.201-.212.356-.452.466-.721.114-.269.169-.553.165-.852 0-.398-.095-.765-.284-1.103a2.194 2.194 0 00-.767-.812 2.022 2.022 0 00-1.108-.307zm8.314 8.5l-.074.625a9.296 9.296 0 01-.284 1.455 18.68 18.68 0 01-.42 1.369c-.148.417-.268.744-.358.983h-1.387l.216-.943c.095-.398.186-.845.273-1.341.087-.496.146-1 .176-1.511l.04-.637h1.818zm2.281 1.591v-1.523l4.04-3.96c.386-.39.708-.737.966-1.04a3.82 3.82 0 00.58-.88c.128-.285.192-.588.192-.91 0-.367-.083-.681-.25-.943a1.662 1.662 0 00-.687-.613 2.217 2.217 0 00-.994-.216c-.383 0-.718.08-1.006.238a1.642 1.642 0 00-.67.665c-.156.288-.233.63-.233 1.029H72.09c0-.739.169-1.381.506-1.927a3.413 3.413 0 011.392-1.267c.594-.299 1.276-.448 2.045-.448.78 0 1.466.145 2.057.437.59.292 1.05.691 1.375 1.199.33.508.494 1.087.494 1.738 0 .436-.083.864-.25 1.285-.166.42-.46.886-.88 1.397-.417.512-1.002 1.131-1.756 1.858l-2.006 2.04v.08h5.068V29.5H72.16zm9.477-2.16v-1.675l4.938-7.801h1.398v2.386h-.853l-3.323 5.267v.091h6.891v1.733h-9.05zm5.552 2.16v-2.67l.022-.75v-8.216h1.99V29.5h-2.011z" fill="#000"/><g clip-path="url(#clip0_85_1285)"><g clip-path="url(#clip1_85_1285)" fill="#097D0B"><path d="M181.74 18.048c-1.264.346-2.025 1.317-2.025 2.232 0 .915.761 1.886 2.025 2.23v-4.462zm2.025 6.752v4.46c1.263-.345 2.025-1.315 2.025-2.23s-.762-1.886-2.025-2.23z"/><path d="M182.499 37C175.044 37 169 30.956 169 23.5S175.044 10 182.499 10C189.955 10 196 16.044 196 23.5S189.955 37 182.499 37zm0-22.613c-.558 0-1.012.454-1.012 1.013v.428c-2.2.394-4.05 2.048-4.05 4.297 0 2.249 1.85 3.903 4.05 4.297v4.683c-1.264-.345-2.025-1.315-2.025-2.23a1.012 1.012 0 10-2.025 0c0 2.249 1.85 3.902 4.05 4.297v.427a1.012 1.012 0 102.025 0v-.427c2.201-.395 4.05-2.048 4.05-4.297 0-2.25-1.849-3.903-4.05-4.297v-4.685c1.264.346 2.025 1.317 2.025 2.232a1.013 1.013 0 002.025 0c0-2.249-1.849-3.903-4.05-4.297V15.4c0-.56-.453-1.013-1.013-1.013z"/></g></g><g clip-path="url(#clip2_85_1285)"><rect y="58" width="226" height="46" rx="10" fill="#fff"/><g clip-path="url(#clip3_85_1285)"><g clip-path="url(#clip4_85_1285)"><g clip-path="url(#clip5_85_1285)"><path d="M18.5 88.5v-1.666H16v-1.666h1.667v-8.334H16v-1.667h2.5V73.5h1.666v1.667h1.667V73.5H23.5v1.77c.723.195 1.32.587 1.792 1.178s.709 1.275.709 2.052a3.286 3.286 0 01-.792 2.146 3.39 3.39 0 011.177 1.188c.3.5.449 1.055.448 1.667a3.21 3.21 0 01-.98 2.354 3.211 3.211 0 01-2.354.98V88.5h-1.667v-1.666h-1.667V88.5H18.5zm.834-8.333h3.333c.458 0 .85-.163 1.178-.489.326-.326.489-.719.489-1.178a1.61 1.61 0 00-.49-1.176 1.61 1.61 0 00-1.177-.49h-3.333v3.333zm0 5H23.5c.459 0 .852-.163 1.178-.489a1.6 1.6 0 00.489-1.177c0-.46-.163-.852-.49-1.177a1.607 1.607 0 00-1.177-.49h-4.166v3.334z" fill="#636363"/></g></g><path d="M34.21 87.16c-.818 0-1.545-.141-2.182-.421-.632-.28-1.132-.67-1.5-1.17a3.034 3.034 0 01-.585-1.734h2.137c.019.315.123.59.312.824.19.231.441.411.756.54.314.129.666.193 1.056.193.417 0 .786-.072 1.108-.216a1.82 1.82 0 00.756-.614c.182-.26.271-.562.267-.903a1.57 1.57 0 00-.273-.932c-.185-.269-.454-.479-.806-.63-.349-.152-.77-.228-1.262-.228h-1.028v-1.625h1.028c.406 0 .76-.07 1.063-.21.307-.14.547-.337.721-.59a1.52 1.52 0 00.256-.893 1.55 1.55 0 00-.221-.858 1.497 1.497 0 00-.631-.574 2.074 2.074 0 00-.949-.204 2.5 2.5 0 00-.989.193 1.798 1.798 0 00-.733.551 1.397 1.397 0 00-.295.841h-2.029c.016-.651.203-1.224.563-1.716a3.63 3.63 0 011.455-1.159c.606-.28 1.285-.42 2.04-.42.776 0 1.45.145 2.022.437.576.288 1.02.676 1.335 1.165.315.489.472 1.028.472 1.62.004.654-.19 1.204-.58 1.647-.386.443-.894.733-1.522.87v.09c.818.114 1.445.417 1.88.91.44.488.658 1.096.654 1.823a2.92 2.92 0 01-.557 1.75c-.368.511-.875.913-1.523 1.205-.644.291-1.382.437-2.216.437zm7.192-.035c-.345 0-.64-.121-.886-.364a1.178 1.178 0 01-.364-.886c-.004-.34.117-.633.364-.875.246-.242.541-.364.886-.364.333 0 .623.122.87.364a1.195 1.195 0 01.198 1.506c-.114.19-.265.34-.454.454-.186.11-.39.165-.614.165zm3.35-.125v-1.523l4.04-3.96c.387-.39.709-.737.966-1.04.258-.303.451-.596.58-.88.129-.284.193-.587.193-.91 0-.367-.083-.681-.25-.943a1.662 1.662 0 00-.687-.613 2.217 2.217 0 00-.995-.216c-.382 0-.717.08-1.005.238a1.642 1.642 0 00-.67.665c-.156.288-.234.63-.234 1.029h-2.005c0-.739.168-1.381.505-1.926a3.413 3.413 0 011.392-1.268c.595-.299 1.277-.449 2.046-.449.78 0 1.466.146 2.057.438.59.292 1.049.691 1.375 1.199.33.508.494 1.087.494 1.739 0 .435-.083.863-.25 1.284-.167.42-.46.886-.88 1.397-.417.512-1.003 1.131-1.756 1.858l-2.006 2.04v.08h5.068V87h-7.977z" fill="#000"/></g><path d="M67.067 80.728v-1.536h6.617v1.536h-6.617zm0 3.182v-1.536h6.617v1.536h-6.617z" fill="#636363"/><g clip-path="url(#clip6_85_1285)"><path d="M88.024 86.863V74.135h.815v12.728h-.815zm2.352-8.656a1.357 1.357 0 00-.587-1.014c-.341-.242-.786-.363-1.332-.363-.385 0-.715.058-.99.174a1.464 1.464 0 00-.631.472c-.146.2-.22.426-.224.682 0 .212.048.396.144.551.1.156.234.289.403.398.169.106.356.196.562.269.205.072.412.134.621.183l.955.24c.384.089.754.21 1.108.362.358.153.678.345.96.577.285.232.51.512.676.84.166.328.249.713.249 1.153 0 .597-.153 1.122-.458 1.576-.305.451-.745.804-1.322 1.06-.574.251-1.268.377-2.083.377-.792 0-1.48-.122-2.064-.368-.58-.245-1.034-.603-1.362-1.074-.325-.47-.5-1.044-.527-1.72h1.815c.026.355.136.65.328.885.192.236.442.411.75.527.312.116.66.174 1.045.174.4 0 .752-.06 1.054-.179.305-.122.543-.291.716-.507.172-.219.26-.474.263-.766a.973.973 0 00-.233-.656 1.712 1.712 0 00-.642-.437 6.172 6.172 0 00-.954-.318l-1.159-.299c-.838-.215-1.501-.542-1.988-.98-.484-.44-.726-1.025-.726-1.754 0-.6.162-1.125.487-1.576.328-.45.774-.8 1.337-1.05.564-.251 1.202-.377 1.914-.377.723 0 1.356.126 1.9.378.546.248.976.595 1.287 1.039.312.44.472.948.482 1.521h-1.774z" fill="#636363"/><path d="M99.82 76.427v9.163h-1.66v-7.548h-.053l-2.143 1.369V77.89l2.277-1.463h1.58zm6.055 0v9.163h-1.66v-7.548h-.054l-2.143 1.369V77.89l2.277-1.463h1.58zm2.662 9.163l3.897-7.714v-.063h-4.523v-1.386h6.241v1.418l-3.892 7.745h-1.723zm7.404-1.253l-.058.492a7.277 7.277 0 01-.224 1.146c-.104.39-.215.75-.331 1.078-.116.328-.21.586-.282.774h-1.092l.17-.742c.075-.314.147-.666.215-1.056.069-.391.115-.788.139-1.19l.031-.502h1.432zm4.778 1.378c-.645 0-1.217-.11-1.719-.33a2.877 2.877 0 01-1.181-.922 2.392 2.392 0 01-.461-1.365h1.683c.015.247.097.464.246.649.149.182.347.323.595.425.248.101.525.152.832.152.328 0 .619-.057.873-.17.253-.117.452-.278.595-.483.143-.206.213-.443.21-.712a1.23 1.23 0 00-.215-.734 1.437 1.437 0 00-.635-.496c-.274-.12-.606-.18-.993-.18h-.81V80.27h.81c.319 0 .598-.055.836-.166.242-.11.431-.265.569-.465a1.2 1.2 0 00.201-.702 1.215 1.215 0 00-.175-.676 1.173 1.173 0 00-.496-.452 1.633 1.633 0 00-.747-.161c-.281 0-.54.05-.779.152a1.412 1.412 0 00-.577.434 1.102 1.102 0 00-.233.662h-1.597a2.32 2.32 0 01.443-1.35 2.85 2.85 0 011.145-.914 3.782 3.782 0 011.607-.33c.611 0 1.142.114 1.592.344.454.226.804.532 1.052.917s.371.81.371 1.275c.003.516-.149.949-.456 1.298-.304.349-.704.577-1.199.684v.072c.644.09 1.138.328 1.481.716.346.385.517.863.514 1.436a2.3 2.3 0 01-.438 1.378c-.289.403-.689.72-1.199.949-.507.23-1.089.344-1.745.344zm8.207 0c-.644 0-1.217-.11-1.718-.33a2.88 2.88 0 01-1.182-.922 2.391 2.391 0 01-.46-1.365h1.682c.015.247.097.464.246.649.149.182.348.323.595.425.248.101.525.152.832.152.329 0 .619-.057.873-.17.253-.117.452-.278.595-.483.143-.206.213-.443.21-.712a1.236 1.236 0 00-.214-.734 1.44 1.44 0 00-.636-.496c-.274-.12-.605-.18-.993-.18h-.81V80.27h.81c.319 0 .598-.055.837-.166a1.35 1.35 0 00.568-.465 1.2 1.2 0 00.201-.702 1.223 1.223 0 00-.174-.676 1.181 1.181 0 00-.497-.452 1.633 1.633 0 00-.747-.161c-.281 0-.54.05-.779.152a1.42 1.42 0 00-.577.434 1.102 1.102 0 00-.233.662h-1.597c.012-.513.16-.963.443-1.35a2.85 2.85 0 011.145-.914 3.785 3.785 0 011.607-.33c.611 0 1.142.114 1.593.344.453.226.804.532 1.051.917.248.385.372.81.372 1.275.003.516-.15.949-.457 1.298-.304.349-.704.577-1.199.684v.072c.644.09 1.138.328 1.481.716.346.385.518.863.515 1.436a2.3 2.3 0 01-.439 1.378c-.289.403-.689.72-1.199.949-.507.23-1.089.344-1.745.344zm8.207 0c-.644 0-1.217-.11-1.718-.33-.498-.222-.892-.529-1.181-.922a2.385 2.385 0 01-.461-1.365h1.682c.015.247.097.464.246.649.149.182.348.323.595.425.248.101.525.152.833.152.328 0 .619-.057.872-.17a1.43 1.43 0 00.595-.483c.143-.206.214-.443.211-.712a1.237 1.237 0 00-.215-.734 1.434 1.434 0 00-.636-.496c-.274-.12-.605-.18-.993-.18h-.81V80.27h.81c.319 0 .598-.055.837-.166a1.35 1.35 0 00.568-.465 1.2 1.2 0 00.201-.702 1.223 1.223 0 00-.174-.676 1.175 1.175 0 00-.497-.452 1.633 1.633 0 00-.747-.161c-.28 0-.54.05-.779.152a1.42 1.42 0 00-.577.434 1.101 1.101 0 00-.232.662h-1.598c.012-.513.16-.963.443-1.35a2.854 2.854 0 011.146-.914 3.778 3.778 0 011.606-.33c.611 0 1.142.114 1.593.344.453.226.804.532 1.051.917.248.385.372.81.372 1.275.003.516-.149.949-.457 1.298-.304.349-.704.577-1.199.684v.072c.645.09 1.138.328 1.481.716.346.385.518.863.515 1.436 0 .513-.146.973-.439 1.378-.289.403-.689.72-1.199.949-.507.23-1.089.344-1.745.344zm5.664-.026a.959.959 0 01-.698-.287.927.927 0 01-.287-.698.917.917 0 01.287-.689.959.959 0 01.698-.286c.262 0 .49.095.684.286a.94.94 0 01.157 1.186 1.04 1.04 0 01-.358.358.93.93 0 01-.483.13zm5.551.026c-.665 0-1.256-.112-1.772-.335-.513-.224-.915-.53-1.208-.917a2.155 2.155 0 01-.429-1.33c-.003-.384.08-.738.25-1.06.17-.322.4-.59.689-.805.293-.218.618-.357.976-.416v-.063a1.942 1.942 0 01-1.146-.72 2.08 2.08 0 01-.429-1.311 2.083 2.083 0 01.394-1.262c.265-.37.629-.66 1.091-.873.463-.214.991-.322 1.584-.322.588 0 1.111.108 1.571.322.462.212.826.503 1.092.873.268.37.402.79.402 1.262 0 .495-.147.932-.443 1.31a1.93 1.93 0 01-1.132.721v.063c.358.06.68.198.967.416.289.215.519.483.689.805.173.322.259.676.259 1.06 0 .496-.146.939-.438 1.33-.292.387-.695.693-1.208.917-.51.224-1.096.335-1.759.335zm0-1.28c.343 0 .642-.058.895-.174.254-.12.451-.286.591-.501.14-.215.212-.462.215-.743a1.384 1.384 0 00-.229-.774 1.494 1.494 0 00-.604-.532 1.895 1.895 0 00-.868-.193c-.328 0-.62.064-.877.193a1.532 1.532 0 00-.608.532 1.358 1.358 0 00-.215.774c-.003.28.066.528.206.743.14.212.337.377.59.497.257.119.558.179.904.179zm0-4.174c.281 0 .528-.057.743-.17.218-.113.389-.271.515-.474.125-.203.189-.437.192-.703a1.31 1.31 0 00-.188-.689 1.21 1.21 0 00-.51-.46 1.64 1.64 0 00-.752-.166 1.69 1.69 0 00-.765.165 1.21 1.21 0 00-.51.461 1.276 1.276 0 00-.174.69c-.003.265.056.499.179.702.125.2.296.358.514.474.221.113.473.17.756.17zm8.263 5.504c-.736 0-1.369-.187-1.897-.56-.525-.376-.929-.917-1.212-1.624-.281-.71-.421-1.565-.421-2.564.003-1 .145-1.85.425-2.55.284-.704.688-1.241 1.213-1.611.528-.37 1.159-.555 1.892-.555.734 0 1.365.185 1.893.555.528.37.932.907 1.213 1.61.283.705.425 1.555.425 2.551 0 1.002-.142 1.859-.425 2.569-.281.707-.685 1.246-1.213 1.62-.525.372-1.156.559-1.893.559zm0-1.4c.573 0 1.025-.283 1.356-.847.334-.566.501-1.4.501-2.5 0-.729-.076-1.34-.228-1.835-.152-.496-.367-.868-.644-1.119a1.413 1.413 0 00-.985-.38c-.569 0-1.02.283-1.351.85-.331.564-.498 1.391-.501 2.483-.003.731.07 1.346.219 1.844.152.498.367.874.645 1.127.277.25.607.376.988.376z" fill="#000"/></g><g clip-path="url(#clip7_85_1285)"><g clip-path="url(#clip8_85_1285)" fill="#E89E1E"><path d="M183.333 84.548c1.203-.004 3.835-.014 3.804-1.688-.029-1.712-2.556-1.609-3.788-1.558a9.085 9.085 0 01-.36.012l.057 3.236a8.57 8.57 0 01.287-.002zm-.128-4.716c1.004-.001 3.196-.003 3.17-1.525-.028-1.557-2.133-1.465-3.161-1.419-.116.005-.216.009-.302.01l.051 2.935.242-.001z"/><path d="M180.854 93.612c-6.962-1.735-11.202-8.79-9.465-15.754 1.736-6.965 8.79-11.206 15.752-9.468 6.966 1.736 11.206 8.79 9.469 15.755-1.736 6.964-8.791 11.203-15.757 9.466l.001.001zm4.596-20.852l-1.471.026.042 2.351c-.387.006-.781.022-1.174.036l-.041-2.366-1.469.025.041 2.414c-.317.013-.629.023-.935.029v-.008l-2.028.035.029 1.568s1.084-.04 1.068-.018c.595-.011.794.331.856.628l.047 2.752c.052-.001.105.001.156.007h-.05l-.105.003.068 3.854c-.023.189-.128.489-.544.497.019.017-1.068.019-1.068.019l-.262 1.759 1.914-.032c.212-.005.424-.007.634-.007l.415-.003.044 2.442 1.469-.026-.044-2.416c.403.001.795-.002 1.175-.009l.042 2.405 1.469-.026-.041-2.437c2.468-.186 4.187-.839 4.361-3.163.141-1.872-.753-2.689-2.161-3.001.844-.449 1.364-1.224 1.217-2.495-.199-1.738-1.711-2.295-3.611-2.429l-.043-2.414z"/></g></g></g><g clip-path="url(#clip9_85_1285)"><path fill-rule="evenodd" clip-rule="evenodd" d="M212.999 59.833c5.983 0 10.834-4.85 10.834-10.833 0-5.983-4.851-10.833-10.834-10.833S202.166 43.017 202.166 49c0 5.983 4.85 10.833 10.833 10.833zm2.98-16.25v8.667l1.825-2.092a.812.812 0 111.224 1.07l-3.25 3.723a.812.812 0 01-1.424-.534V43.583a.812.812 0 111.625 0zm-8.931 4.337a.813.813 0 001.147-.078l1.825-2.092v8.667a.813.813 0 001.625 0V43.583a.813.813 0 00-1.424-.534l-3.25 3.724a.812.812 0 00.077 1.147z" fill="#000" fill-opacity=".71"/><circle cx="13" cy="13" r="12.5" transform="matrix(-1 0 0 1 226 36)" stroke="#000"/></g><defs><clipPath id="clip0_85_1285"><path fill="#fff" transform="translate(169 10)" d="M0 0h27v27H0z"/></clipPath><clipPath id="clip1_85_1285"><path fill="#fff" transform="translate(169 10)" d="M0 0h27v27H0z"/></clipPath><clipPath id="clip2_85_1285"><rect y="58" width="226" height="46" rx="10" fill="#fff"/></clipPath><clipPath id="clip3_85_1285"><path fill="#fff" transform="translate(16 69)" d="M0 0h41.28v24H0z"/></clipPath><clipPath id="clip4_85_1285"><path fill="#fff" transform="translate(16 73.5)" d="M0 0h11v15H0z"/></clipPath><clipPath id="clip5_85_1285"><path fill="#fff" transform="translate(16 73.5)" d="M0 0h10.834v15H0z"/></clipPath><clipPath id="clip6_85_1285"><path fill="#fff" transform="translate(83.28 69)" d="M0 0h77.34v24H0z"/></clipPath><clipPath id="clip7_85_1285"><path fill="#fff" transform="translate(171 68)" d="M0 0h26v26H0z"/></clipPath><clipPath id="clip8_85_1285"><path fill="#fff" transform="translate(171 68)" d="M0 0h26v26H0z"/></clipPath><clipPath id="clip9_85_1285"><path fill="#fff" transform="matrix(0 1 1 0 200 36)" d="M0 0h26v26H0z"/></clipPath></defs></svg>