<svg width="24" height="24" viewBox="0 0 24 24" fill="none" xmlns="http://www.w3.org/2000/svg">
<path d="M5 2C3.8954 2 3 2.9 3 4V12V16V22C3 23.1 3.8954 24 5 24H19C20.105 24 21 23.1 21 22V16V12V8L15 2H5Z" fill="#C0392B"/>
<path d="M5 1C3.8954 1 3 1.9 3 3V11V15V21C3 22.1 3.8954 23 5 23H19C20.105 23 21 22.1 21 21V15V11V7L15 1H5Z" fill="#E74C3C"/>
<path d="M21 7L15 1V5C15 6.1 15.895 7 17 7H21Z" fill="#C0392B"/>
<path d="M19.112 11H18.822C18.732 11.1 18.221 11.8 18 12C17.94 12.1 17.85 12.2 17.799 12.2C17.056 13.1 15.476 14.6 14.528 15.4C14.404 15.5 14.284 15.6 14.262 15.6C14.196 15.7 13.564 16.0999 13.28 16.2999C12.375 16.8999 11.313 17.4 10.488 17.6C8.85989 18 7.58959 17.9 5.94039 17.1C5.44199 16.9 4.73189 16.5 4.34259 16.2C3.96059 15.9 4.00089 15.9 4.00149 16.4V16.9L4.25929 17C4.58999 17.2 5.30379 17.5999 5.76919 17.7999C6.12379 17.9999 6.23429 18.1 6.03589 18.1C5.85309 18 4.81569 18 4.41709 18.1H4.01709C4.00789 18.1 4.00039 18.3 4.00039 18.5V18.9H4.13369C4.70729 18.7 5.93839 18.6999 6.51149 18.7999C7.18629 18.8999 7.66109 18.9999 8.23139 19.2999C9.31949 19.7999 10.222 20.7999 10.615 21.7999L10.695 22H11.135H11.575L11.551 21.9C11.41 21.3 11.014 20.6 10.524 20.1C10.202 19.7 9.63329 19.3 9.40919 19.1H9.33359C9.29719 19 8.91709 18.7999 8.75469 18.7999C8.66229 18.6999 8.58699 18.7 8.58699 18.7C8.58699 18.6 8.65699 18.6 8.74249 18.7C8.95599 18.7 9.81579 18.6 10.205 18.5C11.283 18.3 12.303 17.8999 13.334 17.2999C13.704 17.0999 14.544 16.4 14.88 16.2C15.13 15.9 15.21 15.9 15.108 16C15.072 16.1 15.003 16.1999 14.953 16.2999C14.904 16.3999 14.818 16.5 14.763 16.6C13.985 17.8 13.486 19.3 13.351 21C13.332 21.3 13.316 21.6 13.316 21.7V22H15.648H17.98L17.904 21.9C17.484 21.3 16.963 20 16.788 19.1C16.644 18.4 16.601 17.3 16.691 16.7C16.953 15.1 17.846 13.6999 19.38 12.7999C19.538 12.6999 19.742 12.6 19.833 12.5L20 12.4V12.1C20 11.9 19.988 11.7 19.973 11.7C19.609 11.9 18.799 12.4 18.427 12.6C18.228 12.8 18.216 12.8 18.403 12.6C18.671 12.3 19.133 11.8 19.624 11.2L19.853 11H19.352H19.112Z" fill="#ECF0F1"/>
</svg>
