<svg width="90" height="90" viewBox="0 0 90 90" fill="none" xmlns="http://www.w3.org/2000/svg"><path d="M81.376 10.725a3.751 3.751 0 00-3.15-.75 11.25 11.25 0 01-8.738-1.8 3.75 3.75 0 00-4.312 0 11.25 11.25 0 01-8.738 1.8 3.75 3.75 0 00-4.167 2.038 3.75 3.75 0 00-.37 1.6V26.25a17.099 17.099 0 007.162 13.875l6.075 4.35a3.75 3.75 0 004.388 0l6.075-4.35a17.1 17.1 0 007.162-13.875V13.613a3.75 3.75 0 00-1.387-2.888zM75.263 26.25a9.637 9.637 0 01-4.012 7.5l-3.75 2.775-4.088-2.775a9.636 9.636 0 01-4.012-7.5V17.7a19.387 19.387 0 008.1-2.062 19.2 19.2 0 007.912 2.062l-.15 8.55zM70.988 52.5a3.75 3.75 0 00-4.537 2.7A26.25 26.25 0 0140.988 75H20.063l2.438-2.362a3.75 3.75 0 000-5.138 26.25 26.25 0 0118.487-45 3.75 3.75 0 000-7.5 33.75 33.75 0 00-26.25 54.825l-6.375 6.263a3.75 3.75 0 002.625 6.412h30a33.75 33.75 0 0032.7-25.312 3.75 3.75 0 00-2.7-4.688z" fill="#000"/></svg>