<svg width="40" height="40" viewBox="0 0 40 40" fill="none" xmlns="http://www.w3.org/2000/svg"><rect width="40" height="40" rx="20" fill="#000"/><path d="M7.449 20.978c2.338-1.288 4.947-2.363 7.386-3.443 4.195-1.77 8.407-3.508 12.661-5.127.828-.276 2.315-.546 2.461.68-.08 1.737-.408 3.463-.634 5.19-.571 3.796-1.232 7.579-1.877 11.362-.222 1.26-1.8 1.913-2.811 1.106-2.428-1.64-4.874-3.263-7.27-4.941-.786-.798-.058-1.944.643-2.513 2-1.97 4.12-3.645 6.015-5.717.512-1.235-.999-.194-1.497.124-2.737 1.887-5.408 3.888-8.294 5.546-1.474.812-3.192.118-4.665-.335-1.322-.547-3.258-1.098-2.118-1.932z" fill="#fff"/></svg>