<svg width="26" height="24" viewBox="0 0 26 24" fill="none" xmlns="http://www.w3.org/2000/svg"><g clip-path="url(#clip0_85_1119)"><g clip-path="url(#clip1_85_1119)"><path d="M16.28.272A1.998 1.998 0 0117.005 3l-3.96 6.825-2.95 5.091h3.45l2.308 3.992H1.996a1.996 1.996 0 010-3.992h3.483l5.259-9.068-1.652-2.85A1.997 1.997 0 1112.54.996l.506.87.507-.87A1.996 1.996 0 0116.28.27v.002zM2.81 23.65a2.045 2.045 0 01-.8-2.702h4.715L5.6 22.898a2.044 2.044 0 01-2.79.752zm17.703-.752l-6.32-10.977 2.354-4.048 4.087 7.043h3.16a1.998 1.998 0 110 3.995h-.862l1.123 1.948A2.043 2.043 0 0122.298 24a2.044 2.044 0 01-1.783-1.101h-.002z" fill="#000"/></g></g><defs><clipPath id="clip0_85_1119"><path fill="#fff" d="M0 0h26v24H0z"/></clipPath><clipPath id="clip1_85_1119"><path fill="#fff" d="M0 0h25.791v24H0z"/></clipPath></defs></svg>