<svg width="21" height="24" viewBox="0 0 21 24" fill="none" xmlns="http://www.w3.org/2000/svg"><g clip-path="url(#clip0_85_1123)"><g clip-path="url(#clip1_85_1123)"><path d="M19.833 14.061c1.555-.915 1.555-3.205 0-4.122L15.792 7.56 10.98 12l4.81 4.44 4.043-2.379zm-5.392 3.174L9.875 13.02l-9.83 9.075c.302 1.544 2.04 2.415 3.455 1.583l10.941-6.443zM0 20.094V3.905L8.769 12 0 20.094zM.045 1.905l9.83 9.075 4.566-4.215L3.5.323C2.085-.511.347.36.045 1.905z" fill="#000"/></g></g><defs><clipPath id="clip0_85_1123"><path fill="#fff" d="M0 0h21v24H0z"/></clipPath><clipPath id="clip1_85_1123"><path fill="#fff" d="M0 0h21v24H0z"/></clipPath></defs></svg>