<svg width="40" height="40" viewBox="0 0 40 40" fill="none" xmlns="http://www.w3.org/2000/svg"><rect width="40" height="40" rx="20" fill="#000"/><path d="M30.22 15.06a2.708 2.708 0 00-1.885-1.936C26.67 12.666 20 12.666 20 12.666s-6.671 0-8.335.458A2.708 2.708 0 009.78 15.06c-.446 1.708-.446 5.273-.446 5.273s0 3.564.446 5.272a2.709 2.709 0 001.886 1.937c1.664.457 8.335.457 8.335.457s6.671 0 8.335-.457a2.709 2.709 0 001.886-1.937c.446-1.708.446-5.272.446-5.272s0-3.564-.446-5.273z" fill="#fff"/><path d="M18 23.999v-6.667l5.333 3.334L18 23.998z" fill="#002B1F"/></svg>